<svg width="81" height="40" fill="none" xmlns="http://www.w3.org/2000/svg"><g clip-path="url(#a)"><path fill-rule="evenodd" clip-rule="evenodd" d="M22.463 35.867V24.636L11.231 35.867h11.232ZM0 35.867h11.232V24.636h11.231V4.098H0v31.77Zm66.77-15.139c-.31 0-.567.1-.772.3-.205.2-.307.455-.307.764 0 .31.102.567.307.772.205.205.462.307.772.307s.567-.102.772-.307c.204-.205.307-.462.307-.772s-.103-.564-.307-.764c-.205-.2-.462-.3-.772-.3Zm-5.045 9.464c-.425.465-.977.697-1.656.697-.68 0-1.232-.232-1.657-.697-.424-.464-.636-1.061-.636-1.79 0-.73.214-1.324.644-1.784.43-.46.98-.69 1.649-.69s1.219.23 1.648.69c.43.46.645 1.054.645 1.784 0 .729-.213 1.326-.637 1.79Zm.532-4.563c-.26-.4-.612-.707-1.057-.922a3.386 3.386 0 0 0-1.491-.322c-.7 0-1.332.187-1.896.562a3.816 3.816 0 0 0-1.311 1.476 4.335 4.335 0 0 0-.465 1.994c0 .799.158 1.503.472 2.113.315.61.744 1.079 1.29 1.408.544.33 1.155.495 1.835.495 1.219 0 2.103-.425 2.653-1.274l.03 1.034h1.663v-12.14h-1.723v5.576Zm3.659 6.564h1.723v-7.568h-1.723v7.568Zm-13.183-2c-.425.464-.977.696-1.656.696-.68 0-1.232-.232-1.656-.697-.425-.464-.637-1.061-.637-1.79 0-.73.215-1.324.645-1.784.429-.46.979-.69 1.648-.69.67 0 1.219.23 1.649.69.429.46.644 1.054.644 1.784 0 .729-.212 1.326-.637 1.79Zm.367-5.306a4.135 4.135 0 0 0-2.023-.502 3.988 3.988 0 0 0-3.522 2.023c-.34.61-.51 1.274-.51 1.993 0 .78.183 1.48.547 2.099.365.62.852 1.096 1.462 1.43.61.336 1.283.503 2.023.503a3.99 3.99 0 0 0 2.083-.555A3.9 3.9 0 0 0 54.6 30.41c.34-.61.51-1.279.51-2.009 0-.779-.183-1.476-.548-2.09a3.812 3.812 0 0 0-1.46-1.424Zm21.693 5.305c-.425.465-.977.697-1.656.697-.68 0-1.231-.232-1.656-.697-.425-.464-.637-1.061-.637-1.79 0-.73.215-1.324.644-1.784.43-.46.98-.69 1.65-.69.668 0 1.218.23 1.648.69.43.46.644 1.054.644 1.784 0 .729-.212 1.326-.637 1.79Zm.562-4.518a2.621 2.621 0 0 0-1.064-.952 3.336 3.336 0 0 0-1.514-.337c-.7 0-1.331.187-1.895.562a3.815 3.815 0 0 0-1.312 1.476 4.336 4.336 0 0 0-.464 1.994c0 .799.157 1.503.472 2.113.314.61.744 1.079 1.289 1.408.544.33 1.156.495 1.835.495 1.22 0 2.104-.425 2.653-1.274v.66c0 .909-.212 1.578-.637 2.008-.425.43-1.087.644-1.986.644-.47 0-.931-.06-1.386-.18a4.15 4.15 0 0 1-1.176-.494l-.195 1.589c.31.17.74.314 1.289.434.549.12 1.079.18 1.588.18 1.389 0 2.436-.362 3.14-1.087.704-.724 1.057-1.796 1.057-3.214v-7.074h-1.664l-.03 1.049Zm3.482 6.52h1.723v-7.57h-1.723v7.57Zm.854-9.323a1.047 1.047 0 0 0 1.08-1.079c0-.31-.103-.564-.308-.764a1.06 1.06 0 0 0-.772-.3c-.31 0-.567.1-.772.3-.205.2-.307.455-.307.764a1.047 1.047 0 0 0 1.08 1.08ZM39.278 30.2c-.43.46-.98.69-1.649.69-.67 0-1.22-.23-1.649-.69-.43-.46-.644-1.054-.644-1.784 0-.729.212-1.326.637-1.79.424-.465.976-.697 1.656-.697.68 0 1.231.232 1.656.697.425.464.637 1.061.637 1.79 0 .73-.215 1.325-.644 1.784Zm.622-5.32a3.475 3.475 0 0 0-1.837-.495c-1.258 0-2.163.455-2.712 1.364l-.015-1.124h-1.619v11.24h1.724v-4.66c.26.399.61.704 1.049.913.44.21.939.315 1.498.315.7 0 1.332-.187 1.896-.562a3.816 3.816 0 0 0 1.312-1.476c.31-.61.465-1.274.465-1.994 0-.799-.158-1.503-.473-2.113-.314-.609-.744-1.079-1.288-1.408Zm4.608-.255h-1.724v7.568h1.724V26.24h2.178v-1.614h-2.178Z" fill="#fff"/></g><defs><clipPath id="a"><path fill="#fff" transform="translate(0 4)" d="M0 0h80.906v32H0z"/></clipPath></defs></svg>