<svg width="85" height="40" fill="none" xmlns="http://www.w3.org/2000/svg"><path d="m7.583 28.858-4.435-17.01v17.01H.93v-17.64H5.14l4.586 17.01 4.587-17.01h4.208v17.64h-2.218v-17.01l-4.435 17.01H7.583ZM27.754 29.085c-2.973-.026-5.317-1.79-5.317-5.242 0-2.318 1.21-3.654 2.394-4.334-.857-.68-1.79-1.94-1.79-3.932 0-2.847 2.168-4.662 4.713-4.662h1.764c2.545 0 4.713 1.815 4.713 4.662 0 1.991-.933 3.251-1.79 3.932 1.185.68 2.394 2.016 2.394 4.334 0 3.452-2.343 5.216-5.317 5.242h-1.764Zm-3.125-5.242c0 2.092 1.31 3.226 3.251 3.25h1.512c1.94-.024 3.251-1.158 3.251-3.25 0-1.966-1.31-3.25-3.25-3.25H27.88c-1.94 0-3.25 1.284-3.25 3.25Zm.504-8.165c0 1.638 1.11 2.923 2.747 2.923h1.512c1.638 0 2.747-1.285 2.747-2.923 0-1.688-1.184-2.772-2.747-2.772H27.88c-1.562 0-2.747 1.084-2.747 2.772ZM38.78 28.858l8.796-15.574H37.344v-2.066h10.862v5.015l-6.98 12.625H38.78ZM84.606 20a14 14 0 0 0-28 0h8.75a5.25 5.25 0 1 1 10.5 0h8.75ZM84.606 20a14 14 0 0 1-28 0h8.75a5.25 5.25 0 1 0 10.5 0h8.75Z" fill="#000"/></svg>