<svg width="176" height="40" fill="none" xmlns="http://www.w3.org/2000/svg"><g clip-path="url(#a)"><path d="M14.458 6c-7.717 0-14 6.282-14 14s6.283 14 14 14c7.718 0 14-6.282 14-14s-6.282-14-14-14Zm.803 5.455c1.594-.766 3.777-.468 4.969.67.632.607 1.04 1.453 1.216 2.53.097.614.103 1.246.012 1.878-.225 1.527-.985 2.84-2.092 3.607-.717.499-1.41.73-2.19.73h-.4c.09-.085.17-.201.17-.602 0-.11-.006-.353-.019-.688-.042-1.477-.14-4.944.134-6.179.049-.219.14-.632-.055-.784a.63.63 0 0 0-.322-.104c-.505-.042-.973.11-1.29.402-.182.17-.175.365-.17.553v7.195c0 .091-.03.213-.285.213h-2.555c.092-.085.17-.2.17-.602v-2.117c.098-2.086.396-5.601 2.689-6.708l.018.006Zm2.074 20.635c-.438.14-.535-.06-.541-.261-.146-2.463-.098-7.012-.03-9.104 0-.14.12-.25.26-.25h.22c1.246 0 2.493-.298 3.545-.973a6.256 6.256 0 0 0 1.673-9.019 6.386 6.386 0 0 0-4.069-2.45 5.92 5.92 0 0 0-1.91 0c-2.098.328-3.983 1.8-4.804 3.752-.712 1.69-.845 3.934-.395 6.848.012.073.024.158 0 .188-.013.012-.049.037-.17.024a10.531 10.531 0 0 0-2.482.098c-.973.146-1.77.535-2.372 1.161a3.557 3.557 0 0 0-.985 1.989 3.772 3.772 0 0 0 1.07 3.23 3.759 3.759 0 0 0 3.236 1.07c1.514-.22 3.314-1.229 3.314-4.823a.153.153 0 0 0-.054-.122.174.174 0 0 0-.134-.036l-1.247.25a.253.253 0 0 0-.2.242v.292c.005.87.018 1.861-.505 2.549-.657.857-1.995 1.125-3.053.608a2.677 2.677 0 0 1-1.454-1.989c-.164-1.131.444-2.274 1.417-2.664.59-.23 1.235-.23 1.867-.225h5.62c-.092.08-.177.2-.177.596 0 .055.195 8.46.195 8.83 0 .53-.468.53-.7.53-7.079 0-12.795-5.948-12.412-13.106.322-6.27 5.455-11.403 11.725-11.738C20.941 7.204 26.89 12.921 26.89 20c0 5.918-4.13 10.394-9.554 12.09Z" fill="#fff"/></g><path d="M175.105 17.128v.373c-.236.037-.454.162-.653.373-.199.2-.392.548-.579 1.046l-2.912 7.802-.448.448-3.64-8.605c-.236-.485-.466-.778-.69-.877-.212-.112-.392-.168-.542-.168v-.392c.311.037.641.068.99.093.348.012.709.019 1.082.019.423 0 .846-.013 1.27-.038.435-.025.84-.05 1.213-.074v.392c-.299 0-.566.024-.803.074a.537.537 0 0 0-.448.355c-.062.187 0 .51.187.97l2.315 5.694-.131.056 1.885-5.003c.187-.497.262-.896.224-1.194-.037-.312-.168-.542-.392-.691-.224-.162-.554-.255-.989-.28v-.373c.211.012.404.024.579.037.186 0 .367.006.541.019h.523c.273 0 .528-.007.765-.019.249-.012.467-.025.653-.037Zm-4.144 9.594-.672 1.755a4.55 4.55 0 0 1-.392.784 2.245 2.245 0 0 1-.41.523 1.618 1.618 0 0 1-.691.373 3.115 3.115 0 0 1-.821.112c-.262 0-.511-.05-.747-.15a1.313 1.313 0 0 1-.56-.41 1.073 1.073 0 0 1-.224-.69c0-.324.106-.586.317-.785.212-.199.492-.298.84-.298.311 0 .573.08.784.242.212.174.318.423.318.747a.924.924 0 0 1-.187.579 1.096 1.096 0 0 1-.448.373.353.353 0 0 0 .112.019h.093c.349 0 .66-.119.934-.355.273-.224.504-.591.69-1.101l.672-1.792.392.074ZM159.332 12.144v6.794c.312-.771.747-1.306 1.307-1.605a3.74 3.74 0 0 1 1.811-.467c.498 0 .902.069 1.213.206.324.124.591.298.803.522.224.237.386.542.485.915.1.373.149.877.149 1.512v5.003c0 .522.1.877.299 1.064.212.186.56.28 1.045.28v.392c-.224-.013-.56-.025-1.008-.038a21.908 21.908 0 0 0-2.594 0c-.411.013-.716.025-.915.038v-.392c.423 0 .722-.094.896-.28.174-.187.261-.542.261-1.064v-5.526c0-.36-.031-.684-.093-.97a1.2 1.2 0 0 0-.411-.71c-.199-.186-.497-.28-.896-.28-.448 0-.852.131-1.213.392-.348.25-.628.598-.84 1.046-.199.448-.299.958-.299 1.53v4.518c0 .522.088.877.262 1.064.174.186.473.28.896.28v.392a35.65 35.65 0 0 0-.934-.038 19.724 19.724 0 0 0-1.232-.037c-.435 0-.883.012-1.344.037-.448.013-.784.025-1.008.038v-.392c.486 0 .828-.094 1.027-.28.212-.187.317-.542.317-1.064v-10.64c0-.56-.099-.971-.298-1.232-.187-.274-.535-.411-1.046-.411v-.392a12.432 12.432 0 0 0 2.334 0c.373-.05.715-.118 1.026-.205ZM149.142 16.922v11.443c0 .548.155.915.466 1.101.312.187.741.28 1.288.28v.392c-.286-.012-.684-.03-1.194-.056a67.32 67.32 0 0 0-1.643-.018c-.411 0-.815.006-1.213.018l-.915.056v-.392c.436 0 .741-.087.915-.261.186-.162.28-.473.28-.933v-9.39c0-.56-.094-.97-.28-1.232-.187-.273-.542-.41-1.064-.41v-.392a12.376 12.376 0 0 0 2.333 0c.373-.05.716-.119 1.027-.206Zm2.968-.056c.647 0 1.226.18 1.736.542.522.348.933.864 1.232 1.549.298.684.448 1.537.448 2.557 0 .747-.087 1.456-.262 2.128a5.387 5.387 0 0 1-.802 1.755 3.94 3.94 0 0 1-1.326 1.195c-.535.286-1.169.429-1.904.429-.547 0-1.032-.118-1.456-.355-.41-.236-.703-.535-.877-.896l.187-.261a2.1 2.1 0 0 0 .672.765c.298.2.666.299 1.101.299.647 0 1.151-.205 1.512-.616.373-.423.635-.99.784-1.699a12.15 12.15 0 0 0 .224-2.445c0-1.02-.075-1.842-.224-2.464-.149-.635-.373-1.095-.672-1.381a1.475 1.475 0 0 0-1.083-.448c-.56 0-1.07.224-1.53.672-.448.448-.722 1.12-.822 2.016l-.186-.392c.162-.934.535-1.655 1.12-2.166.597-.522 1.306-.784 2.128-.784Z" fill="#fff"/><path fill-rule="evenodd" clip-rule="evenodd" d="M142.948 17.389c-.647-.348-1.387-.523-2.221-.523-.821 0-1.562.175-2.221.523-.66.348-1.182.896-1.568 1.643-.374.746-.56 1.723-.56 2.93s.186 2.184.56 2.931c.386.734.908 1.276 1.568 1.624.659.336 1.4.504 2.221.504.834 0 1.574-.168 2.221-.504.648-.348 1.164-.89 1.55-1.624.386-.747.578-1.724.578-2.93 0-1.208-.192-2.185-.578-2.931-.386-.747-.902-1.295-1.55-1.643Zm-3.734.1c-.613.209-.994.732-1.142 1.572-.153.827.039 2.03.575 3.609.537 1.579 1.118 2.65 1.743 3.213.621.551 1.238.723 1.85.514.601-.204.98-.714 1.137-1.53.164-.83-.022-2.036-.558-3.614-.537-1.58-1.124-2.648-1.76-3.207-.63-.575-1.245-.76-1.845-.556Z" fill="#fff"/><path d="M132.084 16.866c.497 0 .927.081 1.288.243.373.15.64.286.802.41.411.324.666.113.766-.634h.41c-.025.348-.043.771-.056 1.27a82.45 82.45 0 0 0-.018 1.94h-.411a5.73 5.73 0 0 0-.392-1.343 2.649 2.649 0 0 0-.784-1.083c-.336-.286-.778-.43-1.325-.43-.411 0-.753.119-1.027.355-.274.224-.411.56-.411 1.008 0 .374.112.697.336.971.224.274.51.529.859.765.361.237.747.492 1.157.766.461.31.871.622 1.232.933.374.299.666.635.878 1.008.224.373.336.809.336 1.307 0 .572-.156 1.057-.467 1.456a2.854 2.854 0 0 1-1.195.914c-.498.2-1.045.299-1.642.299-.299 0-.579-.031-.84-.093a4.133 4.133 0 0 1-.728-.206l-.411-.224a6.704 6.704 0 0 0-.373-.242c-.125-.087-.237-.075-.336.037-.1.112-.175.311-.224.597h-.411c.025-.398.043-.883.056-1.456.012-.572.019-1.331.019-2.277h.41c.087.684.218 1.288.392 1.81.174.523.43.934.766 1.233.348.286.821.429 1.418.429.237 0 .473-.05.71-.15.236-.111.429-.286.578-.522.162-.236.243-.554.243-.952 0-.548-.193-.996-.579-1.344-.373-.36-.858-.74-1.456-1.139a64.629 64.629 0 0 1-1.213-.877 4.285 4.285 0 0 1-.915-.99c-.236-.373-.354-.815-.354-1.325 0-.56.13-1.02.392-1.381.273-.36.634-.629 1.082-.803a3.7 3.7 0 0 1 1.438-.28Z" fill="#fff"/><path fill-rule="evenodd" clip-rule="evenodd" d="M126.032 17.389c-.647-.348-1.388-.523-2.222-.523-.821 0-1.561.175-2.221.523-.659.348-1.182.896-1.568 1.643-.373.746-.56 1.723-.56 2.93s.187 2.184.56 2.931c.386.734.909 1.276 1.568 1.624.66.336 1.4.504 2.221.504.834 0 1.575-.168 2.222-.504.647-.348 1.163-.89 1.549-1.624.386-.747.579-1.724.579-2.93 0-1.208-.193-2.185-.579-2.931-.386-.747-.902-1.295-1.549-1.643Zm-3.735.1c-.613.209-.993.732-1.142 1.572-.153.827.039 2.03.576 3.609.536 1.579 1.117 2.65 1.742 3.213.621.551 1.238.723 1.851.514.601-.204.979-.714 1.136-1.53.164-.83-.022-2.036-.558-3.614-.537-1.58-1.123-2.648-1.76-3.207-.629-.575-1.244-.76-1.845-.556Z" fill="#fff"/><path d="M117.712 12.125v12.899c0 .522.099.877.298 1.064.212.186.56.28 1.046.28v.392a35.554 35.554 0 0 0-.99-.038 24.214 24.214 0 0 0-2.706 0c-.448.013-.784.025-1.008.038v-.392c.485 0 .827-.094 1.026-.28.212-.187.318-.542.318-1.064V14.365c0-.56-.094-.97-.28-1.232-.187-.274-.542-.41-1.064-.41v-.393a12.376 12.376 0 0 0 2.333 0c.373-.05.716-.118 1.027-.205ZM111.855 12.424c.385 0 .709.124.97.373.262.236.392.535.392.896 0 .36-.13.666-.392.915-.261.236-.585.354-.97.354-.386 0-.71-.118-.971-.354a1.215 1.215 0 0 1-.392-.915c0-.36.131-.66.392-.896.261-.249.585-.373.971-.373Zm1.12 4.498v8.102c0 .522.099.877.298 1.064.212.186.56.28 1.046.28v.392a36.054 36.054 0 0 0-.99-.038 23.527 23.527 0 0 0-2.688 0c-.46.013-.802.025-1.026.038v-.392c.485 0 .827-.094 1.026-.28.212-.187.318-.542.318-1.064v-5.862c0-.56-.094-.97-.28-1.232-.187-.273-.542-.41-1.064-.41v-.392a12.376 12.376 0 0 0 2.333 0c.373-.05.715-.119 1.027-.206ZM102.489 12.144v6.794c.311-.771.746-1.306 1.306-1.605a3.74 3.74 0 0 1 1.811-.467c.498 0 .902.069 1.213.206.324.124.592.298.803.522.224.237.386.542.485.915.1.373.15.877.15 1.512v5.003c0 .522.099.877.298 1.064.212.186.56.28 1.046.28v.392c-.224-.013-.56-.025-1.008-.038a21.934 21.934 0 0 0-2.595 0c-.411.013-.715.025-.915.038v-.392c.424 0 .722-.094.896-.28.175-.187.262-.542.262-1.064v-5.526c0-.36-.031-.684-.094-.97a1.205 1.205 0 0 0-.41-.71c-.199-.186-.498-.28-.896-.28-.448 0-.853.131-1.214.392-.348.25-.628.598-.84 1.046-.199.448-.298.958-.298 1.53v4.518c0 .522.087.877.261 1.064.174.186.473.28.896.28v.392a35.534 35.534 0 0 0-.933-.038 19.747 19.747 0 0 0-1.232-.037c-.436 0-.884.012-1.344.037-.448.013-.784.025-1.008.038v-.392c.485 0 .827-.094 1.026-.28.212-.187.318-.542.318-1.064v-10.64c0-.56-.1-.971-.299-1.232-.187-.274-.535-.411-1.045-.411v-.392a12.415 12.415 0 0 0 2.333 0c.373-.05.716-.118 1.027-.205Z" fill="#fff"/><path d="M89.128 13.544c.287.012.654.024 1.102.037.46.012.914.019 1.362.019.598 0 1.164-.007 1.699-.02.548-.011.933-.018 1.157-.018 1.58 0 2.763.343 3.547 1.027.784.684 1.176 1.568 1.176 2.65 0 .449-.08.921-.243 1.42-.149.485-.416.939-.802 1.362-.386.41-.909.747-1.568 1.008-.66.261-1.5.392-2.52.392h-1.83v-.373h1.643c.834 0 1.469-.168 1.904-.504a2.4 2.4 0 0 0 .896-1.326 6.233 6.233 0 0 0 .243-1.773c0-1.182-.212-2.066-.635-2.65-.423-.586-1.157-.878-2.203-.878-.535 0-.89.106-1.064.317-.161.212-.242.641-.242 1.288v9.222c0 .46.05.808.149 1.045.1.224.286.373.56.448.274.075.678.118 1.213.13v.393a18.397 18.397 0 0 0-1.306-.038 71.202 71.202 0 0 0-1.662-.018c-.497 0-.976.006-1.437.018-.448 0-.828.013-1.139.038v-.374c.424-.025.74-.074.952-.15a.623.623 0 0 0 .411-.447c.075-.224.112-.56.112-1.008v-9.259c0-.46-.037-.796-.112-1.008a.624.624 0 0 0-.43-.448c-.21-.087-.522-.137-.933-.15v-.372ZM81.046 16.866c1.095 0 1.953.33 2.575.99.623.66.934 1.704.934 3.136h-6.44l-.037-.355h4.498a7.153 7.153 0 0 0-.15-1.68c-.111-.523-.285-.94-.522-1.25a1.117 1.117 0 0 0-.933-.467c-.535 0-1.002.286-1.4.858-.386.56-.622 1.463-.71 2.707l.056.093-.037.579c-.012.2-.018.398-.018.597 0 .859.13 1.58.392 2.166.26.585.603 1.026 1.026 1.325.423.286.853.43 1.288.43.336 0 .66-.05.97-.15.324-.112.63-.293.916-.541.286-.262.54-.616.765-1.064l.373.149c-.15.423-.38.84-.69 1.25-.312.411-.71.747-1.195 1.009-.485.248-1.052.373-1.699.373-.87 0-1.63-.193-2.277-.579-.647-.398-1.145-.964-1.493-1.698-.349-.735-.523-1.606-.523-2.614 0-1.107.18-2.053.541-2.837.361-.784.865-1.381 1.512-1.792.66-.423 1.419-.635 2.278-.635ZM66.848 16.866c.473 0 .871.069 1.195.206.323.124.585.298.784.522.224.237.38.554.467.952.087.386.13.878.13 1.475v5.003c0 .522.1.877.299 1.064.199.186.535.28 1.008.28v.392a35.491 35.491 0 0 0-.99-.038 22.568 22.568 0 0 0-1.287-.037c-.423 0-.84.012-1.251.037-.398.013-.703.025-.915.038v-.392c.41 0 .697-.094.859-.28.174-.187.261-.542.261-1.064v-5.526c0-.36-.025-.684-.074-.97-.05-.299-.168-.535-.355-.71-.174-.186-.454-.28-.84-.28-.436 0-.828.131-1.176.392-.336.262-.61.622-.821 1.083-.2.448-.3.952-.3 1.512v4.499c0 .522.088.877.262 1.064.174.186.46.28.859.28v.392a31.46 31.46 0 0 0-.896-.038 19.746 19.746 0 0 0-1.232-.037c-.423 0-.865.012-1.325.037-.46.013-.803.025-1.027.038v-.392c.485 0 .828-.094 1.027-.28.211-.187.317-.542.317-1.064v-5.862c0-.56-.093-.97-.28-1.232-.187-.273-.541-.41-1.064-.41v-.392a12.383 12.383 0 0 0 2.333 0c.374-.05.716-.119 1.027-.206v2.035c.323-.747.753-1.282 1.288-1.605a3.328 3.328 0 0 1 1.717-.486Zm5.619 0c.473 0 .871.069 1.195.206.323.124.584.298.784.522.224.237.38.554.466.952.087.386.13.878.13 1.475v5.003c0 .522.1.877.3 1.064.211.186.56.28 1.045.28v.392a35.491 35.491 0 0 0-.99-.038c-.447-.025-.89-.037-1.325-.037-.423 0-.84.012-1.25.037-.399.013-.704.025-.915.038v-.392c.41 0 .697-.094.859-.28.174-.187.26-.542.26-1.064v-5.526c0-.36-.024-.684-.074-.97-.05-.299-.168-.535-.354-.71-.187-.186-.48-.28-.878-.28-.435 0-.827.137-1.176.411-.336.261-.61.622-.821 1.083-.2.448-.299.952-.299 1.512l-.074-1.55c.336-.821.784-1.381 1.344-1.68a3.788 3.788 0 0 1 1.773-.448Z" fill="#fff"/><path fill-rule="evenodd" clip-rule="evenodd" d="M57.782 17.389c-.647-.348-1.388-.523-2.221-.523-.822 0-1.562.175-2.222.523-.66.348-1.182.896-1.568 1.643-.373.746-.56 1.723-.56 2.93s.187 2.184.56 2.931c.386.734.909 1.276 1.568 1.624.66.336 1.4.504 2.221.504.834 0 1.575-.168 2.222-.504.647-.348 1.163-.89 1.55-1.624.385-.747.578-1.724.578-2.93 0-1.208-.193-2.185-.579-2.931-.386-.747-.902-1.295-1.55-1.643Zm-3.735.1c-.613.209-.993.732-1.142 1.572-.153.827.04 2.03.576 3.609.536 1.579 1.117 2.65 1.742 3.213.621.551 1.238.723 1.85.514.602-.204.98-.714 1.137-1.53.164-.83-.022-2.036-.558-3.614-.537-1.58-1.123-2.648-1.76-3.207-.63-.575-1.244-.76-1.845-.556Z" fill="#fff"/><path d="M45.632 26.76v-.374c.423-.025.74-.074.952-.15a.623.623 0 0 0 .41-.447c.075-.224.112-.56.112-1.008v-9.259c0-.46-.037-.796-.112-1.008a.624.624 0 0 0-.429-.448c-.212-.087-.523-.137-.933-.15v-.372c.31.012.697.024 1.157.037a52.977 52.977 0 0 0 2.856 0c.448-.012.809-.025 1.083-.037v.373c-.411.012-.722.062-.934.15a.672.672 0 0 0-.429.447c-.075.212-.112.548-.112 1.008v9.259c0 .448.037.784.112 1.008a.672.672 0 0 0 .43.448c.21.075.522.124.933.15v.373a12.489 12.489 0 0 0-1.083-.038 52.445 52.445 0 0 0-2.856 0c-.46 0-.846.013-1.157.038Zm-7.84 0v-.374c.423-.025.74-.074.952-.15a.623.623 0 0 0 .41-.447c.075-.224.112-.56.112-1.008v-9.259c0-.46-.037-.796-.112-1.008a.624.624 0 0 0-.429-.448c-.212-.087-.523-.137-.933-.15v-.372c.286.012.653.024 1.101.037a54.505 54.505 0 0 0 2.856 0c.46-.012.84-.025 1.139-.037v.373c-.411.012-.722.062-.934.15a.672.672 0 0 0-.429.447c-.075.212-.112.548-.112 1.008v9.259c0 .448.037.784.112 1.008a.672.672 0 0 0 .43.448c.21.075.522.124.933.15v.373a14.177 14.177 0 0 0-1.139-.038 54.505 54.505 0 0 0-2.856 0c-.448 0-.815.013-1.101.038Zm2.781-6.46v-.372h7.373v.373h-7.373Z" fill="#fff"/><defs><clipPath id="a"><path fill="#fff" transform="translate(.458 6)" d="M0 0h28v28H0z"/></clipPath></defs></svg>