<svg width="70" height="40" fill="none" xmlns="http://www.w3.org/2000/svg"><path d="M67.406 16.09a6.15 6.15 0 0 0-4.857-2.386 6.133 6.133 0 0 0-4.857 2.385 6.409 6.409 0 0 0-1.155 3.765 6.409 6.409 0 0 0 1.155 3.765 6.151 6.151 0 0 0 4.857 2.386 6.133 6.133 0 0 0 4.857-2.386 6.412 6.412 0 0 0 1.154-3.765 6.412 6.412 0 0 0-1.154-3.765Zm-1.924 5.176c-.441 1.322-1.488 2.353-2.938 2.386-1.45.033-2.496-1.064-2.933-2.386a4.373 4.373 0 0 1 0-2.824c.441-1.322 1.488-2.353 2.933-2.386 1.446-.033 2.497 1.064 2.938 2.386.31.914.31 1.905 0 2.82v.004Zm-44.23 4.423a.348.348 0 0 1-.346.349h-2.018a.347.347 0 0 1-.348-.349V9.054a.349.349 0 0 1 .348-.348h2.017a.347.347 0 0 1 .348.348V25.69Zm-4.739 0a.349.349 0 0 1-.347.349h-2.018a.347.347 0 0 1-.347-.349V9.054a.349.349 0 0 1 .342-.348h2.018a.347.347 0 0 1 .347.348V25.69h.005Zm39.57-11.294v1.412a.368.368 0 0 1-.29.408.365.365 0 0 1-.18-.008c-2.28-.47-3.684.546-3.684 2.659v6.823a.348.348 0 0 1-.347.349h-2.018a.347.347 0 0 1-.347-.349V18.72a4.716 4.716 0 0 1 1.487-3.525 5.23 5.23 0 0 1 3.694-1.496c.472.001.943.045 1.407.132.24.08.277.22.277.583v-.019Zm-8.64 5.454a6.322 6.322 0 0 0-1.154-3.764 6.15 6.15 0 0 0-4.858-2.386 6.134 6.134 0 0 0-4.856 2.386 6.634 6.634 0 0 0 0 7.53A5.978 5.978 0 0 0 41.43 26a6.183 6.183 0 0 0 3.46-1.045v1.487c0 2.02-1.76 2.386-2.887 2.457-.775.025-1.55-.017-2.318-.127-.31-.047-.526 0-.526.334v1.788a.306.306 0 0 0 .32.292c2.613.226 4.373.179 5.696-.579a4.318 4.318 0 0 0 1.929-2.461 8.251 8.251 0 0 0 .333-2.457v-5.84h.005Zm-6.011 3.793c-1.45 0-2.497-1.063-2.938-2.386a4.373 4.373 0 0 1 0-2.823c.441-1.322 1.487-2.386 2.938-2.386 3.242 0 3.35 3.318 3.35 3.798s-.108 3.797-3.35 3.797Zm-29.48-5.011c0-1.605-.357-2.824-1.127-3.666-.77-.843-2.318-1.261-3.754-1.261A8.12 8.12 0 0 0 2.965 14.8a.258.258 0 0 0-.127.226l.108 1.77a.316.316 0 0 0 .369.255.315.315 0 0 0 .148-.072c1.76-1.087 3.871-1.29 4.946-.744a1.88 1.88 0 0 1 .938 1.7v.258H6.414c-1.262 0-5.129.47-5.129 4.033v.038a3.463 3.463 0 0 0 1.253 2.86 4.946 4.946 0 0 0 3.135.9h5.936a.347.347 0 0 0 .347-.349v-7.059l-.004.015Zm-2.605 5.218H5.842a2.164 2.164 0 0 1-1.244-.437 1.382 1.382 0 0 1-.586-1.158c0-.635.427-1.906 2.562-1.906h2.773v3.501Zm19.334-10.146c-3.59 0-5.162 2.415-5.664 4.457a6.878 6.878 0 0 0-.206 1.685 6.413 6.413 0 0 0 1.154 3.764 6.166 6.166 0 0 0 4.857 2.386c1.938.07 3.233-.259 4.224-.823a.55.55 0 0 0 .234-.598v-1.567c0-.32-.192-.47-.47-.278a6.11 6.11 0 0 1-3.903.942 3.19 3.19 0 0 1-2.108-.833 3.208 3.208 0 0 1-1.027-2.024h7.977a.328.328 0 0 0 .329-.325c.14-2.188-.493-6.786-5.397-6.786Zm-2.867 4.946a2.725 2.725 0 0 1 1.814-2.445c.34-.119.7-.17 1.058-.148a2.406 2.406 0 0 1 1.864.715 2.418 2.418 0 0 1 .689 1.878h-5.425Z" fill="#fff"/></svg>