<svg width="80" height="40" fill="none" xmlns="http://www.w3.org/2000/svg"><path fill-rule="evenodd" clip-rule="evenodd" d="m76.11 17.604 3.89-.023s-.95.979-1.787 2.14c-.836 1.162-4.713 6.386-4.713 6.386s-2.024 2.868-3.154 4.087c-.577.621-2.872 2.911-5.867 3.812-2.875.865-6.466.354-6.466.354s-1.944-.285-2.193-.729c-.248-.443 0-.478.215-.512.215-.034 1.424.17 2.137.262.348.044 1.794.32 3.446.186 1.73-.142 3.673-.703 4.275-1.006 1.175-.592 2.95-1.719 3.707-3.108.758-1.388.961-2.264.77-2.844-.193-.58-1.675-3.2-2.341-4.372-.667-1.172-1.802-2.948-2.26-3.505a7.596 7.596 0 0 0-.629-.65c-.294-.27-.56-.466-.56-.466l3.11-.104s.644 0 .87.388c.226.387 3.787 6.83 3.787 6.83s.17.33.35.318c.182-.011.363-.205.499-.421.136-.217 2.147-3.518 2.147-3.518s1.21-2.003 1.221-2.481c.012-.478-.135-.751-.191-.82a1.969 1.969 0 0 0-.261-.204h-.001Zm-17.387 8.14c0-.06-.039-.176-.198-.176-.278 0-1.708.993-5.362.993-4.727 0-6.831-2.297-6.831-4.341 0-3.115 4.09-4.965 10.365-4.965.715 0 1.39.04 2.067.079 2.728.154 2.938.376 2.938.376v6.437c0 .74 0 1.578.714 2.102l-3.533.235-.16-.74Zm.04-6.386c0-.915-.437-1.402-2.462-1.402-4.409 0-6.793 1.636-6.793 3.856 0 1.771 1.749 3.737 5.84 3.737 2.303 0 3.415-.857 3.415-1.947v-4.244Zm-22.037 7.223c-1.588 0-2.938-.157-4.407-.43-.437-.077-.676-.155-.676-.427 0-.468.16-.935.198-1.422 1.232.974 2.224 1.578 4.846 1.578 2.343 0 3.733-.546 3.733-1.655 0-2.375-7.863-1.986-7.863-4.866 0-1.46 2.303-2.084 6.036-2.084 1.191 0 2.423.097 3.614.233.12.02.516.059.516.176 0 .35-.039.914-.08 1.323-1.548-.954-2.343-1.15-4.169-1.15-1.55 0-2.979.35-2.979 1.189 0 2.316 8.26 2.044 8.26 4.75 0 1.849-3.653 2.783-7.03 2.783l.001.002Zm-7.703-7.95c-1.152 0-2.343-.503-3.217-.503-1.669 0-1.786 1.301-1.786 1.886v4.079c0 .72 0 1.774.713 2.319h-4.368c.715-.545.715-1.598.715-2.319v-4.527c0-1.868 3.018-2.238 6.355-2.238.913 0 2.82.058 2.82.7 0 .37-.557.603-1.233.603Zm-21.358 7.95C2.185 26.58 0 24.38 0 22.258c0-3.018 3.416-4.983 9.372-4.983 5.481 0 7.666 2.198 7.666 4.32 0 3.018-3.416 4.984-9.373 4.984Zm.397-8.605c-3.733 0-4.726 1.811-4.726 3.427 0 2.277 1.43 4.477 5.64 4.477 3.732 0 4.726-1.81 4.726-3.426 0-2.278-1.43-4.477-5.64-4.477Z" fill="#fff"/></svg>