<svg width="74" height="40" fill="none" xmlns="http://www.w3.org/2000/svg"><path d="M12.082 25.159a6.23 6.23 0 0 1-6.229-6.233 6.228 6.228 0 0 1 9.53-5.285l-3.3 5.285 6.214-3.59c-.675-1.076-1.643-2.003-2.814-2.707-1.49-.892-3.564-1.445-5.856-1.445-3.27 0-6.138 1.189-7.738 2.969C.706 15.469 0 17.124 0 18.926c0 1.803.705 3.46 1.89 4.776 1.603 1.782 4.43 2.964 7.645 2.964s6.04-1.182 7.645-2.964c.088-.098.173-.197.253-.3l-.242-.908a6.227 6.227 0 0 1-5.109 2.665ZM32.688 26.291l-2.609-9.734a3.679 3.679 0 0 0-4.814-2.507l-5.616 2.043h5.775l.988 3.687a5.453 5.453 0 0 0-3.57-1.326c-2.711 0-4.906 1.818-4.906 4.06 0 2.241 2.195 4.061 4.906 4.061a5.845 5.845 0 0 0 4.742-2.424l.573 2.14h4.53ZM24.73 24.78a2.265 2.265 0 1 1 0-4.533 2.265 2.265 0 0 1 0 4.533ZM43.323 13.83a2.24 2.24 0 0 0-.954.211l-3.606 1.681a2.267 2.267 0 0 0-3.193-1.68l-4.402 2.051h3.095v10.198h4.53v-9.063a1.134 1.134 0 1 1 2.267 0v9.063h4.529V16.093a2.264 2.264 0 0 0-2.266-2.263ZM71.736 13.83c-.344 0-.67.076-.962.211l-3.602 1.681a2.265 2.265 0 0 0-3.194-1.68l-4.4 2.051h3.094v10.198h4.53v-9.063a1.133 1.133 0 1 1 2.265 0v9.063H74V16.093a2.264 2.264 0 0 0-2.264-2.263ZM60.31 20.248a6.418 6.418 0 1 1-12.832-.001 6.418 6.418 0 0 1 12.833.001Zm-6.149-4.47a1.413 1.413 0 0 0-1.732-1 1.417 1.417 0 0 0-1.002 1.733l2.2 8.207a1.418 1.418 0 0 0 1.733 1.004 1.419 1.419 0 0 0 1.001-1.736l-2.2-8.208Z" fill="#000"/></svg>