<svg width="52" height="40" fill="none" xmlns="http://www.w3.org/2000/svg"><g clip-path="url(#a)"><path d="M48.175 12.51h-3.097a.613.613 0 0 0-.611.613v.433h.214c1.399 0 1.919.232 1.919 1.51v1.816h1.574a.612.612 0 0 0 .612-.613v-3.145a.613.613 0 0 0-.61-.614Zm-16.903 4.883c-.143-.18-.413-.205-.684-.205h-.203c-.675 0-.94.209-1.09.859l-1.875 7.82c-.234.962-.563 1.138-1.126 1.138-.69 0-.966-.165-1.24-1.14l-2.125-7.822c-.176-.655-.435-.855-1.11-.855h-.182c-.272 0-.544.025-.683.208-.14.182-.092.455-.02.723l2.147 7.889c.402 1.51.881 2.759 2.67 2.759.334 0 .643-.046.9-.133-.543 1.711-1.095 2.466-2.722 2.634-.33.027-.545.075-.665.236-.124.166-.096.405-.051.619l.044.202c.097.468.263.758.787.758.055 0 .114-.003.177-.008 2.43-.16 3.733-1.473 4.495-4.53l2.6-10.432c.062-.268.099-.54-.044-.72Zm-13.078 6.009v1.579c0 1.287-.476 2.032-2.908 2.032-1.606 0-2.387-.583-2.387-1.783 0-1.315.783-1.828 2.794-1.828h2.5Zm-2.908-6.546c-1.326 0-2.156.167-2.472.23-.557.122-.79.275-.79.912v.181c0 .25.036.422.115.544.092.142.24.213.44.213.098 0 .211-.016.346-.05.319-.08 1.337-.245 2.452-.245 2 0 2.817.556 2.817 1.919v1.216H15.67c-3.243 0-4.754 1.097-4.754 3.454 0 2.286 1.56 3.545 4.393 3.545 3.367 0 4.868-1.149 4.868-3.726v-4.49c0-2.491-1.6-3.703-4.89-3.703Zm-6.36 1.512c0 1.877-.477 2.894-2.997 2.894h-3.88v-4.844c0-.671.25-.921.919-.921h2.96c1.9 0 2.999.47 2.999 2.871ZM5.93 13.554H2.583c-1.787 0-2.585.8-2.585 2.592v11.517c0 .693.222.915.913.915h.226c.69 0 .912-.222.912-.915v-4.48h3.88c3.444 0 5.049-1.53 5.049-4.815s-1.605-4.814-5.05-4.814Zm42.548-4.29h-1.562a.31.31 0 0 1-.309-.31V7.369a.31.31 0 0 1 .31-.31l1.562.001a.31.31 0 0 1 .308.31v1.586a.31.31 0 0 1-.309.31Zm3.065 3.248h-2.3a.455.455 0 0 1-.454-.456V9.72c0-.252.204-.456.455-.456l2.3.001c.251 0 .455.204.455.456l-.001 2.336a.455.455 0 0 1-.455.455Zm-6.465 4.37a.612.612 0 0 1-.611-.614v-2.712h-.225c-1.398 0-1.919.232-1.919 1.51V18.728l-.002.068v4.177c0 .51-.098.917-.3 1.232-.382.59-1.137.857-2.345.859-1.207-.002-1.962-.27-2.343-.858-.203-.316-.301-.722-.301-1.233v-4.177l-.002-.067v-3.665c0-1.277-.52-1.509-1.92-1.509h-.44c-1.398 0-1.918.232-1.918 1.51v7.908c0 1.273.286 2.35.839 3.218 1.067 1.683 3.135 2.579 6.074 2.579h.022c2.94 0 5.008-.896 6.075-2.579.553-.868.839-1.945.839-3.218v-6.092h-1.523Z" fill="#fff"/></g><defs><clipPath id="a"><path fill="#fff" d="M0 0h52v40H0z"/></clipPath></defs></svg>