<svg width="79" height="40" fill="none" xmlns="http://www.w3.org/2000/svg"><g clip-path="url(#a)" fill="#000"><path d="M52.898 15.222c-.079.343-.18.594-.3.753a.936.936 0 0 1-.459.328c-.249.087-.495.046-.738.046h-3.365l2.709-3.732-.386-.513-2.312-3.202h3.216c.725 0 .845-.032.986.065.136.093.191.225.23.365.039.139.052.299.074.487h.187l-.128-1.656h-6.144v.181l3.22 4.373-3.22 4.404v.181h6.311l.306-2.04-.187-.04ZM10.252 15.847c.288.33.624.577 1.01.737.385.161.81.242 1.278.242.46 0 .885-.08 1.279-.242.392-.16.734-.409 1.026-.744.292-.335.52-.759.683-1.272.164-.512.246-1.121.246-1.825 0-.61-.06-1.145-.181-1.603a3.984 3.984 0 0 0-.52-1.195l-4.822 5.902Zm4.611-6.182a2.487 2.487 0 0 0-1.027-.77 3.492 3.492 0 0 0-1.296-.235c-.452 0-.874.08-1.267.242-.393.161-.736.409-1.028.744-.292.335-.519.759-.683 1.272-.163.513-.245 1.121-.245 1.825 0 .62.065 1.164.193 1.634.129.471.305.868.531 1.19l4.822-5.902Zm-6.69 3.078c0-.72.107-1.363.321-1.927a4.05 4.05 0 0 1 .9-1.43c.385-.39.846-.688 1.383-.891a4.94 4.94 0 0 1 1.763-.305c1.136 0 2.07.296 2.802.89.07-.076.158-.178.263-.305.105-.127.21-.257.315-.388.105-.131.199-.256.28-.375.082-.119.134-.204.158-.255.093.12.202.22.327.305a1.712 1.712 0 0 0-.21.204c-.094.102-.193.214-.298.337-.105.123-.21.248-.315.375l-.264.318c.42.39.746.872.975 1.444.23.572.345 1.24.345 2.003 0 .721-.107 1.363-.321 1.927a4.049 4.049 0 0 1-.899 1.431 3.62 3.62 0 0 1-1.383.871 5.27 5.27 0 0 1-1.775.287c-1.098 0-2.02-.276-2.767-.827l-.274.324-.31.363a5.253 5.253 0 0 0-.274.35c-.082.114-.143.21-.181.286a1.191 1.191 0 0 0-.327-.305c.039-.035.103-.1.192-.198l.292-.318c.105-.114.212-.24.32-.375.11-.135.207-.254.293-.356a3.863 3.863 0 0 1-.98-1.437c-.234-.577-.35-1.251-.35-2.023ZM.857 6.468C.825 5.638.79 4.793.75 3.93c.574.026 1.143.049 1.71.069a49.386 49.386 0 0 0 3.447 0c.586-.02 1.223-.043 1.91-.069a3.048 3.048 0 0 0 0 1.176c-.344-.04-.757-.076-1.241-.108a53.201 53.201 0 0 0-1.48-.079c-.504-.02-.987-.036-1.452-.049a43.08 43.08 0 0 0-1.155-.02 101.252 101.252 0 0 0-.039 2.567c0 .457.003.879.01 1.264.006.385.01.787.01 1.204.84 0 1.67-.013 2.492-.039a36.903 36.903 0 0 0 2.435-.156 2.325 2.325 0 0 0 0 1.175c-.318-.04-.678-.069-1.08-.088-.4-.02-.818-.036-1.25-.05-.433-.012-.872-.019-1.318-.019H2.47v1.665c0 .862.016 1.711.048 2.547.032.836.067 1.659.105 2.468-.293-.026-.605-.039-.936-.039-.33 0-.643.013-.936.04.039-.81.074-1.633.106-2.47.031-.835.047-1.684.047-2.546V9.005c0-.862-.016-1.708-.047-2.537ZM18.497 14.43c0-.691.009-1.282.028-1.772.02-.49.029-.976.029-1.46a129.49 129.49 0 0 0-.038-3.114c.318.065.585.097.802.097.203 0 .464-.032.783-.097a54.855 54.855 0 0 0-.143 2.576c-.032.934-.048 1.89-.048 2.87 0 .679.057 1.198.172 1.557.114.36.254.63.42.813.178.209.404.382.678.52.274.136.595.205.964.205.535 0 .98-.12 1.337-.363.356-.241.618-.538.783-.891.09-.222.16-.411.21-.568.051-.157.093-.366.125-.627.031-.261.05-.614.057-1.058.006-.444.01-1.051.01-1.822V9.651c0-.287-.004-.562-.01-.823-.007-.261-.016-.51-.029-.744.14.026.274.049.401.068a2.656 2.656 0 0 0 .802 0c.128-.02.255-.042.382-.068a60.099 60.099 0 0 0-.114 2.948c-.013.947-.02 1.95-.02 3.007 0 .588.007 1.162.02 1.724.012.562.032 1.104.057 1.626a7.287 7.287 0 0 0-1.49 0 6.543 6.543 0 0 0 .039-.784v-.842h-.039c-.33.627-.757 1.087-1.279 1.381a3.41 3.41 0 0 1-1.7.441c-.993 0-1.773-.271-2.34-.813-.566-.542-.85-1.322-.85-2.341ZM33.644 9.659c-.37-.503-.879-.754-1.528-.754-.892 0-1.544.28-1.958.842-.414.562-.62 1.352-.62 2.37v1.666c0 .587.009 1.204.028 1.851.02.646.06 1.231.124 1.753a9.686 9.686 0 0 0-1.719 0c.064-.522.105-1.107.125-1.753.019-.647.028-1.264.028-1.851v-2.038c0-.588-.01-1.205-.028-1.851-.02-.646-.061-1.25-.125-1.812.357.065.643.098.86.098.102 0 .213-.01.334-.03.12-.02.264-.042.43-.068a21.483 21.483 0 0 0-.057 1.567h.038c.356-.561.783-.996 1.28-1.303.496-.306 1.088-.46 1.775-.46.357 0 .716.052 1.08.157.362.104.69.284.983.538.293.255.532.601.716 1.039.185.438.277.996.277 1.675 0 .561-.013 1.14-.038 1.733a44.057 44.057 0 0 0-.038 1.89v1.274a18.936 18.936 0 0 0 .038 1.195 7.882 7.882 0 0 0-1.585 0c.025-.679.054-1.378.086-2.096a50.38 50.38 0 0 0 .047-2.214v-1.195c0-.98-.184-1.72-.553-2.223ZM38.471 12.94c0 .784.08 1.43.24 1.94.158.509.362.917.61 1.224.249.307.532.519.85.637.318.117.63.176.936.176.497 0 .923-.127 1.28-.382.356-.255.652-.588.888-1 .235-.41.407-.877.516-1.4a7.72 7.72 0 0 0 .162-1.567c0-1.254-.236-2.21-.707-2.87-.471-.66-1.165-.99-2.082-.99-.458 0-.856.108-1.193.324a2.571 2.571 0 0 0-.84.901 4.549 4.549 0 0 0-.497 1.352 8.035 8.035 0 0 0-.163 1.655Zm5.425 2.586c-.103.21-.24.434-.411.676a3.37 3.37 0 0 1-.65.676c-.26.209-.57.379-.926.509-.356.13-.77.196-1.241.196a4.12 4.12 0 0 1-1.423-.255 3.197 3.197 0 0 1-1.241-.832c-.363-.385-.657-.882-.879-1.489-.223-.607-.334-1.335-.334-2.184 0-.836.12-1.56.363-2.175.241-.614.556-1.127.945-1.538a3.851 3.851 0 0 1 2.798-1.225c1.413 0 2.394.654 2.941 1.96h.038v-1.92c0-.496-.003-.996-.01-1.499a1709.332 1709.332 0 0 0-.037-2.732 45.68 45.68 0 0 0-.03-1.078c.154.026.3.05.44.069a3.024 3.024 0 0 0 .831 0l.45-.069a32.71 32.71 0 0 0-.097 1.812c-.025.79-.047 1.662-.066 2.615-.02.954-.036 1.934-.048 2.939a218.228 218.228 0 0 0-.02 2.762c0 .901.007 1.711.02 2.43l.038 2.213a7.098 7.098 0 0 0-1.47 0l.057-1.861h-.038ZM58.47 9.473a1.676 1.676 0 0 0-.564-.098c-.306 0-.58.072-.82.215a1.925 1.925 0 0 0-.612.578 2.78 2.78 0 0 0-.382.862c-.09.333-.134.69-.134 1.068v2.155c0 .875.004 1.544.01 2.008.006.464.028.84.067 1.126a7.87 7.87 0 0 0-1.566 0c.038-.443.06-1.048.066-1.812.006-.764.01-1.7.01-2.811v-.627c0-.51-.004-1.097-.01-1.763a66.088 66.088 0 0 0-.066-2.292c.14.026.273.049.4.069.128.019.261.029.402.029.114 0 .235-.01.363-.03.127-.02.26-.042.4-.068-.05.47-.08.842-.085 1.116-.007.275-.01.536-.01.784l.038.02c.751-1.41 1.592-2.116 2.521-2.116.115 0 .214.007.296.02.083.013.188.046.316.098-.064.156-.103.395-.115.714-.013.32-.02.611-.02.872l-.133.098c-.064-.078-.188-.15-.372-.215ZM13.33 22.994c-.033-.83-.068-1.675-.106-2.537.165.026.325.049.478.069a3.616 3.616 0 0 0 .916 0c.153-.02.312-.043.478-.07-.039.863-.074 1.709-.105 2.538-.032.83-.048 1.675-.048 2.537 0 1.645.006 3.072.02 4.28.012 1.208.025 2.29.037 3.242.904 0 1.77-.01 2.598-.029.827-.02 1.719-.095 2.674-.225a2.319 2.319 0 0 0-.096.587c0 .144.032.32.096.53a39.182 39.182 0 0 0-1.757-.04H14.99c-.567 0-1.156.013-1.767.04.038-.81.073-1.633.105-2.47.032-.835.048-1.684.048-2.546v-3.37c0-.861-.016-1.707-.048-2.536ZM21.473 28.276c0-.588-.01-1.205-.03-1.851-.018-.647-.06-1.251-.123-1.813.356.066.642.098.859.098a5 5 0 0 0 .86-.098 21.804 21.804 0 0 0-.125 1.813c-.019.646-.028 1.263-.028 1.85v2.038c0 .588.01 1.205.029 1.852.018.646.06 1.23.123 1.753a9.607 9.607 0 0 0-1.718 0c.063-.523.105-1.107.124-1.753.019-.647.029-1.264.029-1.852v-2.037Zm-.268-7.072c0-.274.096-.51.287-.706a.926.926 0 0 1 .687-.293c.267 0 .497.098.688.293.19.197.286.431.286.706 0 .274-.095.509-.286.705a.926.926 0 0 1-.688.294.926.926 0 0 1-.687-.294.974.974 0 0 1-.287-.705ZM30.604 27.512c0-.823-.191-1.45-.573-1.88-.382-.432-.885-.647-1.51-.647-.687 0-1.221.238-1.603.715-.382.477-.573 1.114-.573 1.91 0 .823.175 1.473.525 1.95.35.476.894.714 1.633.714.37 0 .684-.075.945-.225.261-.15.478-.353.65-.607.172-.255.299-.549.382-.882.082-.333.124-.682.124-1.048Zm1.031 8.482c0-.783-.223-1.332-.669-1.645-.445-.314-1.183-.47-2.215-.47-.954 0-1.693.16-2.215.48-.522.32-.783.898-.783 1.733 0 .444.073.823.22 1.136.146.314.343.569.591.764.249.197.545.34.888.431a4.304 4.304 0 0 0 2.235-.02c.369-.104.697-.26.984-.47.286-.208.518-.473.697-.793.178-.32.267-.702.267-1.146Zm-6.78-8.384c0-.549.096-1.022.287-1.42a2.72 2.72 0 0 1 .792-.99c.337-.26.726-.457 1.165-.587.44-.13.907-.196 1.404-.196.242 0 .474.006.697.02.223.012.506.032.85.058.293.026.554.046.783.059.229.013.414.02.554.02.713 0 1.228-.033 1.547-.099a2.177 2.177 0 0 0 0 .823c-.37-.026-.73-.055-1.08-.088-.35-.032-.696-.055-1.04-.069l-.038.04c.394.222.712.565.954 1.028.242.464.364.944.364 1.44 0 .98-.322 1.747-.965 2.302-.643.555-1.506.832-2.588.832-.178 0-.353-.006-.525-.02a7.132 7.132 0 0 0-.525-.019.964.964 0 0 0-.64.255.815.815 0 0 0-.296.646c0 .34.08.588.239.745.159.156.455.242.888.255.356.013.706.023 1.05.029.344.007.694.016 1.05.03.586.013 1.086.084 1.5.215.413.13.751.307 1.012.529.26.222.452.476.573.764.12.287.181.6.181.94 0 .457-.086.92-.257 1.391a3.63 3.63 0 0 1-.802 1.273c-.364.38-.831.692-1.404.94-.573.249-1.26.373-2.063.373-1.235 0-2.21-.252-2.922-.755-.713-.502-1.07-1.191-1.07-2.066 0-.34.06-.654.182-.94.12-.288.277-.543.468-.764.19-.223.407-.4.65-.53.24-.13.49-.228.744-.293v-.04c-.395-.117-.694-.313-.898-.587a1.593 1.593 0 0 1-.305-.98c0-.221.04-.424.124-.607.082-.183.188-.346.315-.49.127-.143.274-.26.44-.352.165-.092.324-.15.477-.177v-.039c-.586-.26-1.044-.63-1.375-1.107-.332-.476-.497-1.074-.497-1.792ZM34.322 23.34c-.007-.523-.016-1.039-.029-1.548a88.82 88.82 0 0 0-.047-1.46c-.02-.463-.042-.858-.067-1.185.356.065.643.098.86.098.216 0 .502-.033.859-.098-.026.327-.048.718-.067 1.175a116.124 116.124 0 0 0-.086 4.369v1.489h.038c.356-.562.783-.996 1.28-1.303.496-.307 1.088-.46 1.776-.46.356 0 .716.052 1.079.156.363.105.69.285.983.539.293.255.532.6.717 1.038.184.438.276.997.276 1.675 0 .562-.012 1.14-.038 1.734a44.028 44.028 0 0 0-.038 1.89v1.274a18.934 18.934 0 0 0 .038 1.195 7.825 7.825 0 0 0-1.585 0c.026-.679.054-1.378.086-2.096.032-.718.048-1.456.048-2.214v-1.195c0-.98-.185-1.72-.554-2.224-.37-.502-.879-.754-1.528-.754-.891 0-1.544.281-1.958.843-.413.561-.62 1.351-.62 2.37a111.649 111.649 0 0 0 .086 4.153c.019.457.04.83.067 1.117a9.611 9.611 0 0 0-1.72 0c.026-.3.048-.679.068-1.136.019-.457.034-.94.047-1.45a127.948 127.948 0 0 0 .038-2.997v-3.546c0-.444-.003-.927-.009-1.45ZM53.991 26.19c-.37-.503-.879-.755-1.528-.755-.891 0-1.544.281-1.958.843-.413.561-.62 1.351-.62 2.37v1.665c0 .588.01 1.205.028 1.852.02.646.06 1.23.124 1.753a9.574 9.574 0 0 0-1.718 0c.063-.522.105-1.107.124-1.753.019-.647.029-1.264.029-1.852v-2.037c0-.588-.01-1.205-.03-1.851-.018-.647-.06-1.25-.123-1.813.356.066.642.098.859.098.102 0 .213-.01.334-.029l.43-.069a21.491 21.491 0 0 0-.057 1.568h.038c.356-.562.783-.996 1.28-1.303.496-.307 1.088-.46 1.776-.46.356 0 .715.052 1.079.156.363.105.69.285.984.539.292.255.531.6.715 1.038.185.438.277.996.277 1.675 0 .562-.012 1.14-.038 1.734a44.173 44.173 0 0 0-.038 1.89v1.274a18.366 18.366 0 0 0 .038 1.195 7.802 7.802 0 0 0-.802-.04c-.267 0-.529.013-.783.04.025-.679.054-1.378.086-2.096.032-.718.047-1.456.047-2.214v-1.195c0-.98-.184-1.72-.553-2.224ZM57.898 28.276c0-.588-.01-1.205-.03-1.851a21.81 21.81 0 0 0-.123-1.813c.356.066.643.098.86.098.216 0 .502-.032.858-.098a21.81 21.81 0 0 0-.123 1.813c-.02.646-.03 1.263-.03 1.85v2.038c0 .588.01 1.205.03 1.852.018.646.06 1.23.123 1.753a9.604 9.604 0 0 0-1.718 0c.063-.523.105-1.107.124-1.753.019-.647.029-1.264.029-1.852v-2.037Zm-.268-7.072c0-.274.096-.51.286-.706a.927.927 0 0 1 .688-.293c.268 0 .497.098.688.293.19.197.286.431.286.706 0 .274-.095.509-.286.705a.926.926 0 0 1-.688.294.926.926 0 0 1-.688-.294.975.975 0 0 1-.286-.705ZM66.86 26.19c-.37-.503-.88-.755-1.53-.755-.89 0-1.543.281-1.956.843-.415.561-.621 1.351-.621 2.37v1.665c0 .588.01 1.205.028 1.852.02.646.06 1.23.125 1.753a9.573 9.573 0 0 0-1.72 0c.064-.522.106-1.107.125-1.753.019-.647.028-1.264.028-1.852v-2.037c0-.588-.01-1.205-.028-1.851-.019-.647-.06-1.25-.124-1.813.356.066.643.098.859.098.102 0 .213-.01.334-.029l.43-.069a21.604 21.604 0 0 0-.057 1.568h.038c.356-.562.783-.996 1.28-1.303.496-.307 1.088-.46 1.776-.46.356 0 .716.052 1.079.156.362.105.69.285.984.539.292.255.531.6.716 1.038.184.438.276.996.276 1.675 0 .562-.012 1.14-.038 1.734a44.374 44.374 0 0 0-.038 1.89v1.274c0 .209.003.415.01.617.006.202.015.395.028.578a7.802 7.802 0 0 0-1.585 0c.025-.679.054-1.378.086-2.096.032-.718.048-1.456.048-2.214v-1.195c0-.98-.185-1.72-.554-2.224ZM75.704 27.512c0-.823-.191-1.45-.574-1.88-.381-.432-.884-.647-1.508-.647-.688 0-1.222.238-1.604.715-.382.477-.573 1.114-.573 1.91 0 .823.175 1.473.525 1.95.35.476.894.714 1.633.714.369 0 .684-.075.946-.225.26-.15.476-.353.648-.607.172-.255.3-.549.383-.882.082-.333.124-.682.124-1.048Zm1.031 8.482c0-.783-.223-1.332-.668-1.645-.446-.314-1.184-.47-2.216-.47-.955 0-1.693.16-2.215.48-.523.32-.783.898-.783 1.733 0 .444.073.823.22 1.136.146.314.343.569.591.764.249.197.545.34.888.431a4.305 4.305 0 0 0 2.235-.02c.369-.104.697-.26.983-.47.287-.208.52-.473.698-.793.178-.32.267-.702.267-1.146Zm-6.78-8.384c0-.549.095-1.022.287-1.42.19-.399.455-.728.792-.99a3.53 3.53 0 0 1 1.165-.587c.44-.13.907-.196 1.404-.196.242 0 .474.006.697.02.223.012.506.032.85.058.293.026.554.046.782.059.23.013.415.02.555.02.713 0 1.228-.033 1.546-.099a2.18 2.18 0 0 0 0 .823 47.002 47.002 0 0 1-1.078-.088c-.35-.032-.697-.055-1.041-.069l-.038.04c.394.222.713.565.955 1.028.241.464.362.944.362 1.44 0 .98-.321 1.747-.964 2.302-.643.555-1.506.832-2.588.832-.179 0-.353-.006-.525-.02a7.126 7.126 0 0 0-.525-.019.965.965 0 0 0-.64.255.815.815 0 0 0-.296.646c0 .34.079.588.239.745.158.156.455.242.888.255.356.013.706.023 1.05.029.344.007.694.016 1.05.03.586.013 1.086.084 1.5.215.413.13.751.307 1.012.529.26.222.452.476.573.764.12.287.181.6.181.94 0 .457-.086.92-.258 1.391-.172.47-.439.895-.802 1.273-.363.38-.83.692-1.403.94-.573.249-1.26.373-2.063.373-1.236 0-2.209-.252-2.922-.755-.713-.502-1.07-1.191-1.07-2.066 0-.34.06-.654.182-.94.121-.288.277-.543.468-.764.19-.223.407-.4.65-.53.24-.13.49-.228.744-.293v-.04c-.395-.117-.694-.313-.898-.587a1.596 1.596 0 0 1-.305-.98c0-.221.04-.424.124-.607a1.94 1.94 0 0 1 .315-.49c.127-.143.273-.26.44-.352a1.53 1.53 0 0 1 .477-.177v-.039c-.586-.26-1.044-.63-1.376-1.107-.331-.476-.496-1.074-.496-1.792ZM9.049 26.705v.827H.751l.01-.827H9.05Z"/><path d="M4.501 22.864h.806v8.511l-.806-.01v-8.5ZM16.183 7.6l.712.615-7.99 9.73-.703-.628 7.98-9.718ZM47.02 25.475l.457.732-4.46 2.931-.452-.736 4.454-2.927Z"/><path d="M43.534 28.626c-.22.147-.374.249-.463.305a5.18 5.18 0 0 0-.132-.254 1.167 1.167 0 0 0-.182-.238c.22-.136.46-.282.72-.44.258-.159.515-.323.768-.493v-1.68a103.18 103.18 0 0 0-.074-3.858 28.99 28.99 0 0 0-.057-1.027c.308.057.556.085.743.085.188 0 .436-.028.745-.085-.022.283-.042.625-.058 1.027a89.283 89.283 0 0 0-.066 2.604c-.006.452-.009.87-.009 1.255v.865c.243-.158.46-.302.654-.432.193-.13.372-.258.537-.382 0 .09.03.184.091.28.06.096.13.178.207.246-.132.09-.322.206-.57.348-.25.141-.554.33-.919.568v1.577a102.275 102.275 0 0 0 .075 3.851c.016.396.036.724.058.984a8.31 8.31 0 0 0-1.488 0c.021-.26.04-.588.057-.984s.03-.814.042-1.255a108.713 108.713 0 0 0 .032-2.596v-.746l-.71.475Z"/></g><defs><clipPath id="a"><path fill="#fff" d="M0 0h78.961v40H0z"/></clipPath></defs></svg>