<svg width="134" height="40" fill="none" xmlns="http://www.w3.org/2000/svg"><g clip-path="url(#a)" fill="#000"><path fill-rule="evenodd" clip-rule="evenodd" d="M84.16 26.448V11.01h-2.38v15.44h2.38Zm-44.225 0-3.673-5.892h-1.69v5.892h-2.378V11.71h5.196c1.683 0 2.96.41 3.828 1.23.868.821 1.305 1.906 1.309 3.254 0 1.155-.324 2.101-.971 2.837-.648.736-1.584 1.213-2.809 1.43l3.86 5.987h-2.672Zm-5.36-7.574h2.63c1.919 0 2.878-.848 2.878-2.544 0-.808-.234-1.436-.698-1.89-.465-.454-1.194-.677-2.183-.677h-2.627v5.111Zm17.829-3.358a5.074 5.074 0 0 1 2.086 2.044c.519.96.779 2.039.753 3.13a6.303 6.303 0 0 1-.753 3.148 5.074 5.074 0 0 1-2.086 2.056 6.296 6.296 0 0 1-3.003.71 6.23 6.23 0 0 1-2.994-.71 5.135 5.135 0 0 1-2.086-2.053 6.26 6.26 0 0 1-.762-3.14 6.202 6.202 0 0 1 .762-3.13 5.154 5.154 0 0 1 2.086-2.045 6.23 6.23 0 0 1 2.994-.709 6.297 6.297 0 0 1 3.003.698Zm-4.694 1.772a3.094 3.094 0 0 0-1.242 1.283 4.41 4.41 0 0 0-.47 2.119c-.024.737.137 1.469.47 2.127.28.537.712.98 1.242 1.273a3.636 3.636 0 0 0 3.38 0 3.09 3.09 0 0 0 1.242-1.273c.336-.657.5-1.39.478-2.127a4.408 4.408 0 0 0-.47-2.12 3.094 3.094 0 0 0-1.241-1.282 3.636 3.636 0 0 0-3.38 0h-.01Zm13.741 6.114-3.443-8.45h-2.67l4.84 11.224-2.482 5.737h2.649l6.948-16.96h-2.65l-3.192 8.45Zm13.87-7.825a4.183 4.183 0 0 1 1.565 2.044v-2.668h2.379v11.495h-2.379v-2.67a4.174 4.174 0 0 1-1.565 2.044 4.548 4.548 0 0 1-2.67.77 5.094 5.094 0 0 1-2.683-.698 4.84 4.84 0 0 1-1.846-2.045 6.957 6.957 0 0 1-.668-3.148 6.915 6.915 0 0 1 .668-3.13 4.84 4.84 0 0 1 1.846-2.045 5.093 5.093 0 0 1 2.682-.709 4.564 4.564 0 0 1 2.671.76Zm-4.475 2.326c-.633.672-.95 1.6-.95 2.787 0 1.185.317 2.113.95 2.784.632.675 1.477 1.013 2.533 1.013.63.01 1.251-.153 1.796-.47a3.343 3.343 0 0 0 1.25-1.324 4.19 4.19 0 0 0 .461-2.003 4.195 4.195 0 0 0-.46-1.997 3.304 3.304 0 0 0-1.25-1.336 3.452 3.452 0 0 0-1.797-.469c-1.056.003-1.9.341-2.533 1.015Zm26.457 3.267h-8.847c.04 1.182.367 2.055.98 2.618.616.573 1.433.88 2.274.856.72.023 1.426-.19 2.014-.605.535-.381.9-.958 1.013-1.606h2.544a4.885 4.885 0 0 1-2.859 3.62 6.236 6.236 0 0 1-2.608.53 5.994 5.994 0 0 1-2.952-.689 5.03 5.03 0 0 1-2.01-2.055 6.462 6.462 0 0 1-.73-3.15 6.424 6.424 0 0 1 .73-3.129 5.029 5.029 0 0 1 2.012-2.044 6.546 6.546 0 0 1 5.905 0 4.862 4.862 0 0 1 1.94 1.92c.458.833.691 1.77.679 2.721.002.34-.026.678-.085 1.013ZM94.6 18.195a2.706 2.706 0 0 0-1.17-1.126 3.617 3.617 0 0 0-1.617-.364 3.334 3.334 0 0 0-2.343.855c-.624.57-.967 1.412-1.022 2.525h6.53a3.548 3.548 0 0 0-.378-1.89Zm13.166.408a4.372 4.372 0 0 0-1.493-2.765c-.822-.688-1.907-1.032-3.256-1.032-1.296-.001-2.308.302-3.035.908a2.926 2.926 0 0 0-1.092 2.368 2.682 2.682 0 0 0 .555 1.783c.353.428.813.756 1.333.949.666.237 1.346.432 2.036.585.522.104 1.037.24 1.543.406.348.116.668.305.938.554a1.255 1.255 0 0 1 .376.958 1.478 1.478 0 0 1-.489 1.137 1.916 1.916 0 0 1-1.351.458 2.977 2.977 0 0 1-1.92-.585 2.168 2.168 0 0 1-.834-1.527h-2.315a4.121 4.121 0 0 0 1.595 2.797c.883.667 2.041 1 3.474 1 1.241 0 2.225-.3 2.953-.897a2.893 2.893 0 0 0 1.091-2.335c0-.778-.192-1.394-.574-1.848a3.408 3.408 0 0 0-1.377-.991 15.35 15.35 0 0 0-2.097-.605 15.283 15.283 0 0 1-1.513-.416 2.484 2.484 0 0 1-.886-.522 1.15 1.15 0 0 1-.355-.873 1.452 1.452 0 0 1 .491-1.156 2.036 2.036 0 0 1 1.388-.437 2.544 2.544 0 0 1 1.745.574c.443.39.728.927.803 1.512h2.266Zm10.269-3.087a5.072 5.072 0 0 1 2.086 2.044c.518.96.776 2.039.751 3.13a6.329 6.329 0 0 1-.751 3.148 5.074 5.074 0 0 1-2.086 2.056 6.696 6.696 0 0 1-5.999 0 5.15 5.15 0 0 1-2.086-2.053 6.267 6.267 0 0 1-.762-3.14 6.203 6.203 0 0 1 .762-3.13 5.169 5.169 0 0 1 2.086-2.045 6.697 6.697 0 0 1 5.999 0v-.01Zm-4.694 1.772a3.09 3.09 0 0 0-1.242 1.283 4.421 4.421 0 0 0-.469 2.119c-.025.737.136 1.469.469 2.127.28.537.712.98 1.242 1.273a3.634 3.634 0 0 0 3.38 0 3.105 3.105 0 0 0 1.242-1.273c.333-.658.494-1.39.469-2.127a4.398 4.398 0 0 0-.469-2.12 3.102 3.102 0 0 0-1.242-1.282 3.634 3.634 0 0 0-3.38 0Zm20.301 2.463c0-1.599-.403-2.83-1.209-3.694-.807-.861-1.879-1.292-3.214-1.292a4.462 4.462 0 0 0-2.492.71 3.846 3.846 0 0 0-1.543 2v-2.523h-2.379v11.492h2.379v-6.11c-.002-1.167.284-2.054.855-2.66a2.981 2.981 0 0 1 2.274-.908c.911.003 1.63.286 2.158.849.529.563.793 1.359.793 2.387v6.446h2.378v-6.697Z"/><path d="M24.609 31.786 13.26 21.861a.124.124 0 0 1-.026-.157.126.126 0 0 1 .04-.041l1.25-.788c.024-.015 2.795-1.863 2.795-4.831a5.571 5.571 0 0 0-5.567-5.57H2.806a.34.34 0 0 0-.34.341v15.402a.34.34 0 0 0 .349.332h4.266a.34.34 0 0 0 .338-.332v-9.434a.126.126 0 0 0-.124-.124H5.071a.122.122 0 0 1-.122-.122v-2.228a.122.122 0 0 1 .122-.122 10.616 10.616 0 0 0 2.24-.295c.84-.2 1.663-.464 2.463-.79a.122.122 0 0 1 .122.122v14.852a.951.951 0 0 1-.949.956H.951A.951.951 0 0 1 0 28.076V8.951A.951.951 0 0 1 .951 8H25.03a.951.951 0 0 1 .95.951v22.22a.826.826 0 0 1-1.371.615Zm-7.407-9.759 5.74 5.02a.34.34 0 0 0 .565-.258V10.815a.341.341 0 0 0-.343-.34h-5.331a.124.124 0 0 0-.09.207 8.009 8.009 0 0 1 2.052 5.36c0 2.697-1.458 4.672-2.6 5.804a.123.123 0 0 0-.035.092.124.124 0 0 0 .042.09Z"/></g><defs><clipPath id="a"><path fill="#fff" transform="translate(0 8)" d="M0 0h133.643v24H0z"/></clipPath></defs></svg>