<svg width="101" height="40" fill="none" xmlns="http://www.w3.org/2000/svg"><path fill-rule="evenodd" clip-rule="evenodd" d="M26.591 17.562h2.283c.89 0 1.23.308 1.23 1.065 0 .728-.34 1.037-1.23 1.037h-2.282v-2.102Zm-3.536 7.651h3.537v-3.111h3.787c2.508 0 3.411-1.485 3.411-3.405 0-2.228-.928-3.489-3.436-3.489h-7.299v10.005ZM34.956 15.208h9.518v2.438h-5.981v1.345h5.555v2.439h-5.555v1.345h5.98v2.438h-9.517V15.208ZM49.49 17.562h2.283c.89 0 1.23.308 1.23 1.065 0 .728-.34 1.037-1.23 1.037H49.49v-2.102Zm-3.536 7.651h3.536v-3.111h3.788c2.508 0 3.411-1.485 3.411-3.405 0-2.228-.928-3.489-3.437-3.489h-7.298v10.005ZM60.112 20.967c-1.73-.294-2.445-1.415-2.445-2.816 0-2.593 2.27-3.293 5.179-3.293 3.987 0 5.63 1.162 5.756 3.279h-4.113c0-.407-.214-.66-.54-.8-.313-.153-.714-.21-1.103-.21-1.053 0-1.417.295-1.417.715 0 .28.113.463.464.519l4.226.7c1.78.294 2.885 1.22 2.885 2.914 0 2.44-1.781 3.589-5.757 3.589-2.72 0-5.693-.42-5.706-3.363h4.264c.012.335.126.56.377.714.262.14.651.21 1.203.21 1.103 0 1.405-.336 1.405-.813 0-.294-.164-.588-.64-.672l-4.038-.673ZM70.157 15.208h3.536v10.005h-3.536V15.208ZM86.798 21.317c-.225 1.318-.627 2.383-1.505 3.111-.865.729-2.22 1.136-4.376 1.136-2.145 0-6.12-.169-6.12-5.353 0-5.185 3.975-5.353 6.12-5.353 2.131 0 5.417.307 5.881 4.274h-3.987c-.1-.716-.528-1.752-1.894-1.752-1.443 0-2.358.798-2.358 2.83 0 2.033.89 2.83 2.182 2.83 1.116 0 1.78-.518 2.07-1.723h3.987ZM91.425 20.211c0-2.032.916-2.831 2.359-2.831 1.441 0 2.357.799 2.357 2.831s-.916 2.83-2.358 2.83c-1.442 0-2.358-.798-2.358-2.83Zm-3.762 0c0 5.184 3.975 5.353 6.12 5.353s6.12-.169 6.12-5.353c0-5.185-3.975-5.353-6.12-5.353s-6.12.168-6.12 5.353ZM17.712 15.307c.228-4.8-3.89-10.206-9.506-10.874l.01-.065c5.536 0 9.78 5.15 9.78 9.213-.006.846-.073 1.37-.191 1.75l-.093-.024Zm-.336.61a9.037 9.037 0 0 1-1.374 1.34c-.998-5.77-5.217-10.817-8.2-12.29l-.064.045c3 2.475 6.578 7.28 7.97 12.472-.666.493-1.436.947-2.286 1.315-2.83-3.244-5.47-9.502-6.32-13.473l-.087.026c.02 3.855 2.742 10.398 6.062 13.59a11.4 11.4 0 0 1-2.361.657c-3.183-1.268-5.449-5.327-5.449-9.485 0-2.714.824-4.393.983-4.737l-.068-.027c-.193.293-1.399 1.971-1.399 4.902 0 4.7 2.306 8.292 5.368 9.424-1.047.114-2.15.08-3.28-.155l-.023.072c.327.12 1.438.59 3.134.59 3.834 0 6.426-2.395 7.47-4.215l-.076-.05Z" fill="#fff"/><path fill-rule="evenodd" clip-rule="evenodd" d="M9.598 2.672c-2.906 0-6.315 2.108-6.315 4.035 0 .746.679 1.375 2.083 1.375 3.26 0 6.289-2.25 6.289-4.001 0-.921-.88-1.41-2.057-1.41Zm1.16 1.355c0 1.475-2.818 3.279-5.175 3.279-1.041 0-1.604-.412-1.604-1.092 0-1.496 2.851-3.27 5.062-3.27 1.441 0 1.718.738 1.718 1.083Z" fill="#fff"/><path fill-rule="evenodd" clip-rule="evenodd" d="M2.125 7.6c-.081.142-.408.785-.408 1.445 0 1.224 1.23 2.36 3.492 2.36 4.353 0 9.381-3.22 9.381-6.21 0-1.34-1.263-2.07-2.14-2.221l-.017.052c.273.087 1.273.554 1.273 1.75 0 2.38-4.44 5.626-8.863 5.626-1.693 0-2.76-.84-2.76-2.064 0-.387.08-.642.102-.716l-.06-.022Z" fill="#fff"/><path fill-rule="evenodd" clip-rule="evenodd" d="M16.385 5.42c.12.09.836.69.836 1.826 0 3.872-6.036 7.68-11.373 7.68-3.182 0-4.633-1.58-4.568-2.982h.057c.124.729 1.158 2.032 3.943 2.032 5.343 0 11.309-3.94 11.309-7.392 0-.592-.16-.96-.25-1.125l.046-.04Z" fill="#fff"/><path fill-rule="evenodd" clip-rule="evenodd" d="M18.402 9.034c.025.082.155.453.155 1.034 0 4.307-6.108 7.994-11.421 7.994-2.734 0-4.162-1.335-4.464-1.877l.049-.036c.756.665 2.247 1.17 3.986 1.17 4.692 0 11.694-3.587 11.631-8.27l.064-.015Z" fill="#fff"/></svg>