<svg width="95" height="40" fill="none" xmlns="http://www.w3.org/2000/svg"><g clip-path="url(#a)" fill="#000"><path fill-rule="evenodd" clip-rule="evenodd" d="M.577 22.609s.321 6.77 7.501 9.278c-.209-1.88 1.573-3.6 2.986-3.6L.577 22.61Z"/><path fill-rule="evenodd" clip-rule="evenodd" d="m6.944 11.008.02-.48.168-.725.292-.57.416-.463.516-.343.343-.149.432-.127.752-.115.652-.032.612-.004 1.509.06.694.136.649.258.514.36.404.476.274.572.102.38.068.503.007.264.25.026.082.012c.384.08 1.49.428 1.49 1.807v3.677c-.047.024-1.23 1.122-1.23 1.122a.581.581 0 0 0-.182.421v3.265c0 .32.26.58.58.58h2.192c.32 0 .58-.26.58-.58v-3.265a.58.58 0 0 0-.182-.421s-1.182-1.098-1.228-1.122v-3.677c0-.664-.212-1.155-.512-1.515l.233.06.515.166.478.188.441.21.41.234.378.257.348.28.318.306.29.33.261.357.233.384.205.416.178.45.15.487.122.536.096.594.068.68.041.83.014 1.5-.014 1.5-.04.829-.069.68-.096.594-.122.535-.15.488-.178.45-.205.415-.233.385-.261.357-.29.33-.318.305-.348.28-.378.258-.41.234-.441.21-.478.188-.515.166-.556.143-.605.122-.663.099-.736.077-.843.055-1.028.033-1.859.01-1.858-.01-1.028-.033-.842-.055-.737-.077-.663-.1-.605-.12-.557-.144-.514-.166-.477-.187-.443-.211-.41-.234-.377-.257-.348-.28-.318-.306-.29-.33-.26-.357-.234-.385-.205-.415-.178-.45-.15-.488-.123-.535-.096-.594-.067-.68-.042-.83-.013-1.5.013-1.5.042-.829.067-.68L.534 16l.123-.536.15-.487.178-.45.205-.415.233-.385.262-.357.289-.33.318-.305.348-.281.378-.257.41-.233.442-.211.477-.188.514-.166.557-.143.605-.122.663-.099.258-.027Zm1.558-.112.026-.305.097-.326.166-.252.357-.237.662-.166 1.337-.051.874.012.612.06.4.098.297.138.23.2.184.387.032.44-.766-.024-1.859-.01-1.858.01-.791.026ZM6.06 19.87a1.174 1.174 0 1 1-2.349-.001 1.174 1.174 0 0 1 2.35 0Zm4.663 1.66 1.955-.677a.641.641 0 0 0 .396-.816l-.677-1.953a.642.642 0 0 0-.817-.396l-1.955.676a.642.642 0 0 0-.396.817l.677 1.953a.642.642 0 0 0 .817.396Z"/><path d="M29.068 25.709c-.3 0-.55-.084-.751-.25-.19-.179-.284-.43-.284-.752V14.74c0-.323.095-.568.284-.735.2-.167.45-.25.751-.25.3 0 .551.083.751.25.2.167.3.412.3.735v9.967c0 .323-.1.573-.3.751-.2.167-.45.25-.75.25ZM35.312 17.244c1.135 0 1.975.284 2.52.852.557.556.835 1.408.835 2.554v4.074c0 .3-.089.54-.267.718-.178.167-.423.25-.734.25-.29 0-.529-.089-.718-.267-.178-.178-.267-.412-.267-.701v-.367c-.19.434-.49.773-.902 1.018-.4.245-.868.367-1.402.367-.546 0-1.041-.111-1.486-.334a2.644 2.644 0 0 1-1.052-.918 2.32 2.32 0 0 1-.384-1.302c0-.601.15-1.074.45-1.42.312-.344.813-.595 1.503-.75.69-.156 1.642-.234 2.855-.234h.418V20.4c0-.546-.117-.94-.351-1.186-.234-.256-.612-.384-1.135-.384-.323 0-.651.05-.985.15-.334.09-.73.223-1.186.401-.29.145-.5.217-.634.217a.653.653 0 0 1-.501-.217c-.122-.145-.184-.334-.184-.567 0-.19.045-.351.134-.485.1-.144.261-.278.484-.4.39-.212.852-.379 1.386-.501a7.307 7.307 0 0 1 1.603-.184Zm-.518 6.996c.557 0 1.007-.184 1.352-.551.357-.379.535-.863.535-1.453v-.35h-.3c-.747 0-1.325.033-1.737.1-.412.066-.707.183-.885.35-.178.167-.267.396-.267.685 0 .356.122.651.367.885.256.222.568.334.935.334ZM44.53 24.156c.556.034.834.284.834.752a.695.695 0 0 1-.334.617c-.212.134-.518.19-.918.167l-.451-.033c-1.87-.134-2.805-1.136-2.805-3.005v-3.64h-.835c-.3 0-.534-.067-.7-.2-.157-.134-.235-.329-.235-.585 0-.256.078-.45.234-.584.167-.134.4-.2.701-.2h.835v-1.537c0-.3.095-.54.284-.717.19-.179.445-.268.768-.268.312 0 .562.09.751.268.19.178.284.417.284.717v1.537h1.42c.3 0 .528.066.684.2.167.133.25.328.25.584 0 .256-.083.451-.25.585-.156.133-.384.2-.685.2h-1.419v3.79c0 .824.379 1.263 1.135 1.319l.451.033ZM52.413 23.372c.189 0 .34.072.45.216.123.145.184.34.184.585 0 .345-.206.634-.618.868a5.527 5.527 0 0 1-2.655.701c-1.313 0-2.353-.378-3.121-1.135-.768-.757-1.152-1.792-1.152-3.105 0-.835.167-1.575.5-2.221a3.659 3.659 0 0 1 1.403-1.503c.612-.356 1.302-.534 2.07-.534.735 0 1.375.162 1.92.484.546.323.969.78 1.27 1.37.3.59.45 1.285.45 2.086 0 .479-.212.718-.634.718h-4.926c.067.768.284 1.336.651 1.703.368.356.902.535 1.603.535.356 0 .668-.045.935-.134a8.88 8.88 0 0 0 .935-.367c.334-.178.579-.267.735-.267Zm-2.889-4.659c-.567 0-1.024.178-1.369.535-.334.356-.534.868-.6 1.536h3.773c-.023-.68-.19-1.191-.501-1.536-.312-.357-.746-.535-1.303-.535ZM58.448 24.156c.556.034.834.284.834.752a.695.695 0 0 1-.333.617c-.212.134-.518.19-.919.167l-.45-.033c-1.87-.134-2.805-1.136-2.805-3.005v-3.64h-.835c-.3 0-.534-.067-.701-.2-.156-.134-.234-.329-.234-.585 0-.256.078-.45.234-.584.167-.134.4-.2.7-.2h.836v-1.537c0-.3.094-.54.283-.717.19-.179.446-.268.768-.268.312 0 .563.09.752.268.189.178.283.417.283.717v1.537h1.42c.3 0 .528.066.684.2.167.133.25.328.25.584 0 .256-.083.451-.25.585-.156.133-.384.2-.684.2h-1.42v3.79c0 .824.379 1.263 1.136 1.319l.45.033ZM64.428 17.278c.29-.023.517.039.684.183.167.145.25.362.25.651 0 .3-.072.524-.216.668-.145.145-.406.24-.785.284l-.5.05c-.657.067-1.142.29-1.453.668-.3.378-.451.851-.451 1.419v3.506c0 .323-.1.573-.3.751-.201.167-.451.25-.752.25-.3 0-.55-.083-.751-.25-.19-.178-.284-.428-.284-.75v-6.462c0-.312.095-.551.284-.718.2-.167.445-.25.734-.25.29 0 .523.083.702.25.178.156.267.384.267.684v.668a2.49 2.49 0 0 1 .935-1.135c.423-.267.89-.417 1.402-.45l.234-.017ZM66.796 25.709c-.3 0-.55-.084-.75-.25-.19-.179-.285-.43-.285-.752v-6.444c0-.323.095-.568.284-.735.2-.167.45-.25.751-.25.3 0 .551.083.752.25.2.167.3.412.3.735v6.444c0 .323-.1.573-.3.751-.2.167-.451.25-.752.25Zm0-9.917c-.378 0-.679-.1-.901-.3a1.078 1.078 0 0 1-.334-.819c0-.334.111-.601.334-.801.222-.2.523-.3.901-.3.368 0 .663.1.885.3.234.2.35.467.35.801s-.11.607-.333.818c-.223.2-.523.3-.902.3ZM74.192 17.244c.701 0 1.324.178 1.87.534.556.357.985.863 1.285 1.52.312.645.468 1.391.468 2.237 0 .846-.156 1.586-.468 2.22-.3.635-.723 1.125-1.268 1.47-.546.345-1.175.517-1.887.517a3.232 3.232 0 0 1-1.553-.367 2.578 2.578 0 0 1-1.052-1.018v3.405c0 .29-.094.518-.284.685-.189.167-.44.25-.75.25-.312 0-.568-.089-.769-.267-.189-.178-.284-.412-.284-.701v-9.466c0-.3.09-.54.267-.718.19-.178.44-.267.752-.267.311 0 .562.089.751.267.19.178.284.417.284.718v.417a2.522 2.522 0 0 1 1.052-1.052 3.247 3.247 0 0 1 1.586-.384Zm-.551 6.879c.657 0 1.169-.223 1.536-.668.367-.456.55-1.096.55-1.92 0-.846-.183-1.503-.55-1.97-.367-.468-.88-.701-1.536-.701-.668 0-1.186.228-1.553.684-.356.457-.534 1.108-.534 1.954 0 .834.178 1.48.534 1.936.368.457.885.685 1.553.685ZM78.978 25.659a.6.6 0 0 1-.443-.175.629.629 0 0 1-.175-.451.6.6 0 0 1 .175-.443.586.586 0 0 1 .443-.183c.178 0 .325.06.442.183a.6.6 0 0 1 .175.443.628.628 0 0 1-.175.45.6.6 0 0 1-.442.176ZM81.761 25.675c-.406 0-.765-.086-1.077-.258a1.77 1.77 0 0 1-.71-.735 2.35 2.35 0 0 1-.25-1.11c0-.423.087-.796.259-1.119.178-.328.426-.581.743-.76a2.195 2.195 0 0 1 1.094-.267c.217 0 .434.031.65.092.223.061.418.145.585.25.178.118.267.265.267.443 0 .123-.03.223-.092.3a.27.27 0 0 1-.225.11.498.498 0 0 1-.192-.043 1.685 1.685 0 0 1-.2-.1 1.984 1.984 0 0 0-.351-.167 1.029 1.029 0 0 0-.384-.067c-.345 0-.612.115-.801.343-.184.222-.276.545-.276.968 0 .418.092.74.276.968.189.223.456.334.801.334.14 0 .261-.02.367-.058.112-.045.234-.103.368-.175.083-.05.155-.087.217-.109a.441.441 0 0 1 .183-.042c.09 0 .164.04.226.117a.458.458 0 0 1 .091.292.469.469 0 0 1-.066.25.54.54 0 0 1-.2.184 2.29 2.29 0 0 1-.602.268 2.695 2.695 0 0 1-.7.091Z"/><path d="M85.387 25.675a2.27 2.27 0 0 1-1.102-.258 1.797 1.797 0 0 1-.726-.743 2.355 2.355 0 0 1-.259-1.127c0-.429.087-.802.26-1.119.172-.323.414-.57.725-.743a2.27 2.27 0 0 1 1.102-.259c.418 0 .782.087 1.094.26.317.172.56.42.726.742.173.317.259.69.259 1.119 0 .428-.086.804-.259 1.127-.167.323-.409.57-.726.743a2.222 2.222 0 0 1-1.094.258Zm-.008-.81c.34 0 .598-.11.776-.333.178-.223.267-.551.267-.985 0-.429-.089-.754-.267-.977-.178-.228-.434-.342-.768-.342s-.592.114-.776.342c-.178.223-.267.548-.267.977 0 .434.089.762.267.985.178.222.434.334.768.334ZM92.677 21.426c.446 0 .785.134 1.019.401.24.262.359.687.359 1.277v2.054c0 .161-.05.287-.15.376a.548.548 0 0 1-.376.125.567.567 0 0 1-.376-.125.49.49 0 0 1-.142-.376v-2.054c0-.306-.055-.523-.167-.65-.105-.134-.27-.201-.492-.201a.812.812 0 0 0-.651.284c-.162.183-.242.437-.242.76v1.86c0 .162-.05.288-.15.377a.535.535 0 0 1-.368.125.567.567 0 0 1-.376-.125.476.476 0 0 1-.15-.376v-2.054c0-.306-.056-.523-.167-.65-.106-.134-.27-.201-.492-.201a.812.812 0 0 0-.651.284c-.156.183-.234.437-.234.76v1.86c0 .162-.05.288-.15.377a.567.567 0 0 1-.376.125.567.567 0 0 1-.376-.125.491.491 0 0 1-.142-.376v-3.23c0-.157.05-.276.15-.36a.567.567 0 0 1 .376-.125c.145 0 .262.042.35.125.096.078.143.192.143.343v.2c.128-.223.297-.392.509-.51.217-.116.465-.175.743-.175.612 0 1.021.256 1.227.768a1.38 1.38 0 0 1 .543-.559c.239-.139.509-.209.81-.209Z"/></g><defs><clipPath id="a"><path fill="#fff" transform="translate(.316 8)" d="M0 0h94.632v24H0z"/></clipPath></defs></svg>