<svg width="73" height="40" fill="none" xmlns="http://www.w3.org/2000/svg"><path d="M10.25 13.6H.216v3.217H6.81c.43 0 .717.358.717.716v5.65H6.093a.717.717 0 0 1-.717-.716v-4.076H2.581A2.567 2.567 0 0 0 0 20.966v2.86a2.567 2.567 0 0 0 2.58 2.575h10.251V16.174a2.567 2.567 0 0 0-2.58-2.575ZM22.509 23.183h-1.434a.717.717 0 0 1-.717-.716V13.6h-2.796a2.567 2.567 0 0 0-2.58 2.575v7.652a2.567 2.567 0 0 0 2.58 2.575h10.251V8.235h-5.376l.072 14.948ZM37.49 23.183h-1.433a.717.717 0 0 1-.717-.716V13.6h-5.376v10.227a2.567 2.567 0 0 0 2.58 2.575h4.946v1.573H30.18v3.72h10.107a2.567 2.567 0 0 0 2.58-2.575v-15.52H37.49v9.584ZM55.268 13.6H44.945v10.226a2.567 2.567 0 0 0 2.58 2.575h10.108v-3.218h-6.595a.717.717 0 0 1-.716-.716v-5.65h1.433c.43 0 .717.358.717.716v4.076h2.796a2.567 2.567 0 0 0 2.58-2.575v-2.86a2.567 2.567 0 0 0-2.58-2.575ZM70.25 13.6H59.998v12.8h5.376v-9.583h1.434c.43 0 .716.358.716.716V26.4h5.377V16.174c-.072-1.43-1.219-2.575-2.653-2.575Z" fill="#000"/></svg>