<svg width="73" height="40" fill="none" xmlns="http://www.w3.org/2000/svg"><g clip-path="url(#a)"><g clip-path="url(#b)" fill-rule="evenodd" clip-rule="evenodd" fill="#000"><g clip-path="url(#c)"><path d="M31.075 34.855a3.349 3.349 0 0 1-.38.172 1.776 1.776 0 0 1-.378.069c-.345 0-.586-.104-.793-.276-.207-.172-.31-.448-.31-.793 0-.345.103-.62.275-.827.207-.207.448-.31.759-.31.275 0 .482.068.62.24.138.173.207.38.207.656v.138h-1.413c0 .31.069.551.24.69.139.137.38.206.725.206.138 0 .31 0 .448-.034v.069Zm-.448-1.138v-.07c0-.206-.035-.378-.104-.447-.069-.104-.172-.138-.31-.138a.491.491 0 0 0-.414.207c-.103.138-.137.276-.172.482h1v-.034ZM32.419 33.027c.276-.034.517-.103.724-.172h.034V34.752c0 .034.035.068.069.068l.276.069v.103h-1.069v-.103l.276-.069c.035 0 .069-.034.069-.069v-1.62l-.31-.07-.07-.034Zm.758-.965c0 .07-.034.138-.069.207-.034.034-.103.069-.207.069a.263.263 0 0 1-.172-.069.263.263 0 0 1-.069-.172c0-.07.035-.138.07-.207.034-.035.102-.07.206-.07.069 0 .138.035.172.07a.264.264 0 0 1 .07.172ZM40.76 33.027c.24-.034.482-.103.723-.172h.035v.276c.275-.173.551-.276.827-.276-.035.241-.104.448-.138.69h-.104c-.034-.138-.069-.242-.137-.31a.19.19 0 0 0-.173-.104c-.069 0-.172.034-.31.103v1.483c0 .034.035.069.069.069l.31.069v.103H40.76v-.103l.276-.07c.035 0 .069-.034.069-.068V33.13l-.31-.07-.035-.034Z"/><g clip-path="url(#d)"><g clip-path="url(#e)"><path d="M10.12 33.475v1.311c0 .034.035.069.07.069l.24.069v.103H9.327v-.104l.276-.069a.074.074 0 0 0 .07-.068V32.13a.074.074 0 0 0-.07-.069l-.276-.103v-.104H10.43v.104l-.24.069a.074.074 0 0 0-.07.069v1.137h1.655v-1.138a.074.074 0 0 0-.07-.068l-.24-.07v-.103h1.102v.104l-.276.103a.074.074 0 0 0-.069.069v2.655c0 .034.035.069.07.069l.275.069v.103h-1.103v-.104l.242-.069c.034 0 .069-.034.069-.068v-1.311H10.12ZM13.05 33.062c.31-.138.551-.207.792-.207.242 0 .414.069.552.172.138.104.207.31.207.517v1.104c0 .034.034.069.034.103.034.035.069.035.103.069h.173v.103c-.07.035-.138.035-.242.07a.606.606 0 0 1-.206.034c-.138 0-.241-.07-.31-.241-.207.137-.414.24-.586.24-.207 0-.38-.034-.517-.137-.138-.069-.207-.207-.207-.38 0-.24.103-.413.31-.516.207-.104.517-.173.965-.173v-.172c0-.173-.034-.31-.138-.38-.103-.068-.207-.137-.413-.137-.138 0-.31.034-.517.069v-.138Zm1.102.93c-.31 0-.516.035-.654.104-.104.069-.173.173-.173.345 0 .138.035.241.104.31.069.069.172.104.31.104s.276-.035.38-.07l.034-.792ZM15.083 33.027c.241-.034.483-.103.724-.172h.034v.276c.276-.173.517-.276.724-.276.207 0 .38.069.517.172.138.104.172.276.172.517v1.207c0 .035.035.069.07.069l.24.069v.103h-.999v-.103l.241-.069a.074.074 0 0 0 .07-.069v-1.138c0-.172-.035-.31-.139-.413-.103-.07-.206-.138-.379-.138a.941.941 0 0 0-.482.138v1.517c0 .034.034.069.069.069l.241.069v.103h-1.034v-.103l.276-.07c.034 0 .034-.034.069-.068V33.13l-.31-.07-.104-.034ZM19.047 31.786c.275-.034.517-.103.723-.172l.035.034v3.069c0 .034.034.069.034.103.035.035.07.035.104.035h.172v.103c-.069.034-.138.034-.241.069-.104.034-.173.034-.173.034-.137 0-.24-.069-.31-.24-.241.171-.448.275-.69.275-.275 0-.516-.104-.654-.31-.172-.207-.241-.449-.241-.724 0-.38.103-.655.344-.862.207-.207.517-.31.931-.31.103 0 .207 0 .31.034v-.965l-.344-.104v-.069Zm.31 1.345c-.104-.035-.207-.035-.345-.035-.241 0-.448.07-.586.207-.138.138-.207.38-.207.655 0 .242.07.448.173.62.103.173.275.242.517.242.138 0 .275-.034.448-.103V33.13ZM22.39 33.303c.034.07.034.138.034.242v1.206c0 .035.035.07.069.07l.241.068v.103h-.965v-.103l.207-.069a.074.074 0 0 0 .069-.069v-1.138c0-.172-.035-.31-.138-.413a.55.55 0 0 0-.379-.138.758.758 0 0 0-.448.138v1.517c0 .034.034.069.034.069l.242.069v.103h-1.034v-.103l.275-.07a.074.074 0 0 0 .07-.068V33.13l-.31-.07v-.068c.24-.035.482-.104.723-.172h.034v.275c.242-.172.483-.275.69-.275.275 0 .482.103.586.31.24-.207.482-.31.792-.31.207 0 .38.069.483.172.103.103.172.276.172.517v1.207c0 .034.035.069.07.069l.24.069v.103h-.999v-.103l.207-.07a.074.074 0 0 0 .069-.068v-1.138c0-.172-.035-.31-.138-.414a.551.551 0 0 0-.38-.138c-.206.138-.344.173-.516.276Z"/></g><g clip-path="url(#f)"><path d="M24.457 33.062c.31-.138.552-.207.793-.207s.414.069.552.172c.137.104.206.31.206.517v1.104c0 .034.035.069.035.103.034.035.069.035.103.069h.173v.103c-.07.035-.138.035-.242.07-.103.034-.172.034-.206.034-.138 0-.242-.07-.31-.241-.207.137-.414.24-.587.24-.206 0-.379-.034-.517-.137-.137-.103-.206-.241-.206-.448 0-.242.103-.414.31-.517.207-.104.517-.173.965-.173v-.172c0-.172-.035-.31-.138-.38a.653.653 0 0 0-.414-.137c-.137 0-.31.034-.517.069v-.07Zm1.103.93c-.31 0-.517.035-.654.104-.104.069-.173.173-.173.345 0 .138.035.241.104.31.069.069.172.104.31.104s.276-.035.379-.07l.034-.792ZM27.8 31.786c.276-.034.518-.103.724-.172l.035.034v3.069c0 .034.034.069.034.103.035.035.07.035.104.035h.172v.103c-.069.034-.138.034-.241.069-.104.034-.173.034-.173.034-.137 0-.24-.069-.31-.24-.241.171-.448.275-.69.275-.275 0-.516-.104-.654-.31-.172-.207-.241-.449-.241-.724 0-.38.103-.655.345-.862.206-.207.517-.31.93-.31.103 0 .207 0 .31.034v-.965l-.31-.104-.034-.069Zm.345 1.345c-.103-.035-.207-.035-.344-.035-.242 0-.448.07-.586.207-.138.138-.207.38-.207.655 0 .242.069.448.172.62a.622.622 0 0 0 .517.242c.138 0 .276-.034.448-.103V33.13Z"/></g><path d="M33.728 33.027c.242-.034.483-.103.724-.172h.035v.276c.276-.173.517-.276.724-.276.206 0 .379.069.517.172.137.104.172.276.172.517v1.207c0 .035.034.069.069.069l.241.069v.103h-.999v-.103l.24-.069a.074.074 0 0 0 .07-.069v-1.138c0-.172-.035-.31-.138-.413-.104-.07-.207-.138-.38-.138a.942.942 0 0 0-.482.138v1.517c0 .034.035.069.07.069l.24.069v.103h-1.034v-.103l.276-.07c.035 0 .035-.034.07-.068V33.13l-.311-.07-.104-.034ZM40.07 32.648h-.103l-.173-.586a2.657 2.657 0 0 0-.517-.069c-.379 0-.654.138-.896.38-.206.24-.31.62-.31 1.068 0 .448.104.828.345 1.069.241.276.551.413.93.413.138 0 .276 0 .38-.034v-1a.074.074 0 0 0-.07-.069l-.275-.103v-.103h1.068v.103l-.241.069a.074.074 0 0 0-.069.069v1.103a3.91 3.91 0 0 1-.862.103c-.517 0-.965-.138-1.275-.413-.31-.276-.482-.655-.482-1.172 0-.518.172-.966.482-1.242.31-.31.758-.448 1.344-.448.242 0 .483.035.759.104v.034l-.035.724Z"/><g clip-path="url(#g)"><path d="M44.378 34.855a3.349 3.349 0 0 1-.379.172 1.776 1.776 0 0 1-.38.069c-.344 0-.585-.104-.792-.276-.207-.172-.31-.448-.31-.793 0-.345.103-.62.276-.827.172-.207.448-.31.758-.31.276 0 .482.068.62.24.138.173.207.38.207.656v.138h-1.413c0 .31.069.551.241.69.138.137.38.206.724.206.138 0 .31 0 .448-.034v.069Zm-.448-1.138v-.07c0-.206-.034-.378-.103-.447-.07-.104-.173-.138-.31-.138a.491.491 0 0 0-.414.207c-.103.138-.138.276-.172.482h1v-.034ZM44.86 33.062c.31-.138.552-.207.793-.207.242 0 .414.069.552.172.138.104.207.31.207.517v1.104c0 .034.034.069.034.103.035.035.069.035.103.07h.173v.102c-.07.035-.138.035-.242.07-.103.034-.172.034-.206.034-.138 0-.242-.069-.31-.241-.207.137-.414.24-.586.24-.207 0-.38-.034-.517-.137-.138-.103-.207-.241-.207-.448 0-.242.103-.414.31-.517.207-.104.517-.173.965-.173v-.172c0-.172-.034-.31-.138-.38a.653.653 0 0 0-.413-.137c-.138 0-.31.034-.517.069v-.07Zm1.07.93c-.311 0-.518.035-.656.104-.103.07-.172.173-.172.345 0 .138.034.241.103.31.07.07.173.104.31.104.138 0 .276-.035.38-.07l.034-.792Z"/></g><path d="M47.583 33.165v1.241c0 .173.035.276.07.31.034.07.137.104.275.104.103 0 .241 0 .414-.034v.103c-.276.138-.483.207-.69.207-.172 0-.275-.035-.379-.138a.653.653 0 0 1-.138-.414v-1.379l-.31-.069v-.103l.345-.035.172-.551c.104-.035.172-.035.241-.07h.035v.621h.69v.207h-.725Z"/><g clip-path="url(#h)"><path d="M49.686 31.855h1.24c.345 0 .586.07.759.173a.62.62 0 0 1 .24.517c0 .379-.206.62-.585.758a.937.937 0 0 1 .551.276c.138.138.173.31.173.517 0 .31-.104.552-.345.69-.207.172-.517.24-.896.24H49.72v-.103l.276-.069a.074.074 0 0 0 .069-.068V32.13a.074.074 0 0 0-.07-.069l-.275-.103-.034-.104Zm.792 1.414h.276c.207 0 .38-.07.517-.173a.682.682 0 0 0 .172-.482c0-.207-.069-.38-.172-.448-.103-.104-.276-.138-.517-.138h-.276v1.24Zm0 .172v1.379c.035 0 .104.035.173.035h.172c.241 0 .448-.07.551-.173.138-.138.207-.31.207-.551 0-.242-.069-.414-.207-.518-.137-.103-.344-.172-.62-.172h-.276ZM52.34 33.027c.24-.034.482-.103.723-.172h.035v.276c.275-.173.551-.276.827-.276-.035.241-.103.448-.138.69h-.103c-.035-.138-.07-.242-.138-.31a.19.19 0 0 0-.173-.104c-.069 0-.172.034-.31.103v1.483c0 .034.035.069.07.069l.31.069v.103h-1.104v-.103l.276-.07a.074.074 0 0 0 .07-.068V33.13l-.311-.07-.035-.034ZM54.132 33.027c.275-.034.517-.103.723-.172h.035V34.752c0 .034.034.068.069.068l.275.069v.103h-1.068v-.103l.276-.069c.034 0 .069-.034.069-.069v-1.62l-.31-.07-.07-.034Zm.758-.965c0 .07-.035.138-.069.207-.035.034-.103.069-.207.069a.263.263 0 0 1-.172-.069.263.263 0 0 1-.07-.172c0-.07.035-.138.07-.207.034-.035.103-.07.207-.07.069 0 .137.035.172.07a.264.264 0 0 1 .069.172ZM56.13 33.165v1.241c0 .173.035.276.07.31.034.07.137.104.275.104.104 0 .242 0 .414-.034v.103c-.276.138-.483.207-.69.207-.172 0-.275-.035-.379-.138a.654.654 0 0 1-.137-.414v-1.379l-.31-.069v-.103l.344-.035.172-.551c.104-.035.173-.035.242-.07h.034v.621h.69v.207h-.724ZM57.233 33.062c.31-.138.552-.207.793-.207s.414.069.552.172c.137.104.206.31.206.517v1.104c0 .034.035.069.035.103 0 .035.069.035.103.069h.173v.103c-.07.035-.138.035-.242.07-.103.034-.172.034-.206.034-.138 0-.242-.07-.31-.241-.207.137-.414.24-.587.24-.206 0-.379-.034-.517-.137-.137-.103-.206-.241-.206-.448 0-.242.103-.414.31-.517.207-.104.517-.173.965-.173v-.172c0-.172-.035-.31-.138-.38a.653.653 0 0 0-.413-.137c-.138 0-.31.034-.517.069v-.07Zm1.103.93c-.31 0-.517.035-.654.104-.104.069-.173.173-.173.345 0 .138.035.241.104.31.069.069.172.104.31.104s.276-.035.379-.07l.034-.792ZM59.301 33.027c.276-.034.517-.103.724-.172h.035V34.752c0 .034.034.068.069.068l.275.069v.103h-1.068v-.103l.276-.069c.034 0 .069-.034.069-.069v-1.62l-.31-.07-.07-.034Zm.759-.965a.49.49 0 0 1-.07.207c-.034.034-.103.069-.206.069a.263.263 0 0 1-.172-.069.263.263 0 0 1-.07-.172c0-.07.035-.138.07-.207.034-.035.103-.07.206-.07.07 0 .138.035.173.07a.263.263 0 0 1 .069.172ZM60.611 33.027a5.5 5.5 0 0 0 .724-.172h.034v.276c.276-.173.517-.276.724-.276.207 0 .38.069.517.172.138.104.172.276.172.517v1.207c0 .035.035.069.07.069l.24.069v.103h-.999v-.103l.241-.069a.074.074 0 0 0 .07-.069v-1.138c0-.172-.035-.31-.139-.413-.103-.07-.206-.138-.379-.138a.942.942 0 0 0-.482.138v1.517c0 .034.034.069.069.069l.24.069v.103H60.68v-.103l.276-.07c.034 0 .034-.034.069-.068V33.13l-.31-.07-.104-.034Z"/></g></g></g><g clip-path="url(#i)"><path d="M36.245 4.276h.654c.138.069.414.034.517.138-.138.241 0 .793-.241.827-.172.035-.172-.517-.276-.69-.482-.137-1.034.035-1 .587.035.551.794.62 1.242.93.172.104.31.276.379.449.517 1.275-1.138 1.896-2.31 1.379.104-.173 0-.966.242-.966.172 0 .172.724.276.793.654.242 1.31-.138 1.102-.758-.206-.552-1.102-.552-1.447-1.034-.552-.724.034-1.586.861-1.655ZM26.49 5.207c.242.861.449 1.827.69 2.723.07.276.104.586.276.827.103.07.276-.068.345.035 0 .103-.276.276-.483.345-.241.069-.448.034-.586-.138-.241.276-.517.482-.965.482-.724 0-1.172-.724-1.103-1.482.07-.758.758-1.103 1.517-1.172-.07-.345-.173-.655-.242-1-.103-.069-.413.035-.448-.069.07-.103.276-.138.448-.241.173-.138.345-.241.552-.31Zm-.378 3.792c.241 0 .379-.104.551-.207a32.927 32.927 0 0 0-.448-1.758c-1.275-.138-.93 1.93-.103 1.965ZM42.069 5.207c.034.172-.035.448-.035.655.207.069.483.034.724.069-.034.069-.034.172-.034.275A5.14 5.14 0 0 1 42 6.137c-.034.276-.138.897-.138 1.276-.034.552.207.586.724.586 0 .034.034.034.034.103-.413.242-1.378.276-1.481-.275-.035-.104 0-.242 0-.38.034-.448.103-.965.137-1.413-.069-.138-.344-.034-.344-.241.069-.104.275-.035.413-.035.138-.172.207-.379.31-.586.104.07.242.035.414.035ZM40.553 8.033c0 .104-.207.138-.345.138-.38.035-.655-.034-.724-.275-.448.413-1.447.275-1.516-.345-.104-.759.758-.896 1.55-.862.31-.724-.585-.93-1.102-.69-.07-.034-.07-.137-.07-.24.725-.311 1.862-.311 1.965.482.035.241-.034.551-.034.793-.035.241-.104.62-.035.793 0 .138.207.138.31.206Zm-1.793-.448c.07.207.448.276.69.138.034-.241.034-.551.069-.793-.517-.103-.965.207-.759.655ZM33.384 6.861c-.552.035-1.103.104-1.654.138-.07.931.999.966 1.723.793.069.207-.207.276-.345.345-1.034.414-2.309.034-2.171-1.276.138-1.31 2.481-1.62 2.447 0Zm-1.689-.103c.276-.035.586-.035.862-.069 0-.276-.07-.517-.207-.655-.517-.138-.655.31-.655.724ZM30.42 6.103c-.138.138-.345.172-.552.241 0 .138.173.207.207.345.31.862-.62 1.379-1.447 1.241-.07.069-.07.241-.035.345.759 0 2.31-.552 2.137.655-.103.827-1.93 1.517-2.55.724-.035-.38.138-.552.275-.724-.517-.104-.24-.828-.034-1.069-.31-.103-.552-.483-.483-.896.035-.414.483-.759 1.034-.793.483-.035 1.034-.069 1.413-.138.035 0 .035.069.035.069Zm-1.344 1.655c.62.069.379-1.38-.07-1.38-.62.035-.344 1.31.07 1.38Zm.034 1.965c.448.034 1.31-.242 1.172-.759-.034-.172-.207-.207-.483-.172-.31.034-.758.138-1.068.172-.172.414 0 .724.38.759ZM45.412 6.448c-.103.034-.172.793-.379.758-.172-.034-.069-.483-.138-.69-.827-.379-1.31.966-.862 1.552.242.345.586.31 1.069.38 0 .206-.276.24-.448.24-.862.07-1.586-.413-1.586-1.172-.034-1.24 1.345-1.689 2.344-1.068ZM22.976 6.344c.103 0 .206 0 .275.035.448.31-.172 1.034-.551.655-.241-.242-.104-.655.276-.69ZM53.856 7.206a225.463 225.463 0 0 1-1.31 3.413c.035.172.31.172.276.345-.069.103-.241-.035-.345-.07-.275-.103-.517-.171-.792-.275-.104-.034-.31-.069-.31-.207.068-.069.275 0 .379 0 .448-.93.792-2.034 1.206-3.034-.035-.172-.31-.172-.276-.344 0-.035 0-.035.035-.035.379.07.723.173 1.137.207ZM24.25 9.585c.139.034.414-.07.449.069-.207.138-.483.172-.759.241-.24.07-.516.207-.758.173-.034-.173.242-.173.31-.276-.137-.62-.344-1.207-.482-1.793-.138-.034-.38.069-.448-.069.31-.207.724-.31 1-.552.31.724.447 1.517.689 2.207ZM51.512 9.102a21.249 21.249 0 0 1-1.585-.448c-.345.93.551 1.241 1.31 1.379.034.172-.138.138-.242.172a1.993 1.993 0 0 1-1.585-.448c-.724-.69-.207-2.034.758-2.137.896-.138 1.689.448 1.344 1.482Zm-.654-1.034c-.138-.517-.931-.035-.897.38.31.068.552.137.828.24.034-.206.137-.413.069-.62ZM22.148 7.861c.035.138.07.345.104.552.034.172.138.379-.07.448-.137-.276-.482-.586-.792-.173.241.552.38 1.138.655 1.655.172.035.414-.138.482.035-.31.172-.758.345-1.171.482-.104.035-.276.138-.345.07-.034-.139.207-.173.276-.277-.173-.62-.414-1.172-.655-1.758-.138 0-.38.104-.448-.034a9.49 9.49 0 0 1 1-.586c.034.069.068.138.068.241.31-.276.517-.551.896-.655ZM17.461 8.171c.241.483.414 1 .655 1.483.276-.242.551-.655 1.137-.586.62.034 1.103.724 1.069 1.448-.07 1-1.138 1.31-2.068 1.448-.448-1.07-.896-2.103-1.31-3.138-.138-.034-.345.104-.448 0 .07-.172.276-.206.448-.31.172-.103.345-.241.517-.345Zm.758 1.724c.242.552.448 1.138.724 1.655 1.517 0 .241-2.896-.724-1.655ZM57.302 12.722c-.034.207-.344.138-.551.103-1.034-.103-1.965-.827-1.827-2.068.104-.896.759-1.655 1.62-1.758.69-.07 1.275.207 1.758.482.069.035.31.207.345.242 0 .069-.207.31-.276.413-.07.104-.207.38-.345.345-.172-.069.104-.586.07-.758-.035-.173-.483-.38-.69-.38-.965-.103-1.654 1.07-1.654 1.897 0 .69.448 1.103.965 1.275.172.07.379.07.585.207ZM17.427 12.343c.137 0 .344-.138.413-.035-.034.104-.172.138-.276.207-.31.172-.654.414-.965.517-.137-.138.138-.172.138-.31s-.24-.483-.379-.69c-.207-.344-.31-.62-.586-.758-.379-.034-.517.172-.689.38.31.482.551 1.034.896 1.482.172.034.31-.138.38.034-.345.276-.828.517-1.207.69-.103-.138.103-.207.138-.345-.172-.31-.448-.896-.69-1.241-.068-.07-.137-.207-.24-.241-.31-.104-.552.137-.69.344.276.517.586 1.034.896 1.552.103 0 .276-.104.345-.035 0 .138-.173.172-.276.241-.31.173-.69.414-.965.552-.138-.172.172-.241.207-.38-.276-.55-.62-1.068-.896-1.585-.104.035-.276.138-.38.069-.068-.069.07-.172.138-.207.207-.172.483-.38.69-.551.103.034.138.137.172.24.241-.413.69-.999 1.344-.723.207-.483.896-1.207 1.482-.759.414.31.62 1.207 1 1.552ZM59.026 11.722c.689-.069 1.378.414 1.585.931.345.896-.482 1.724-1.275 1.69-.724-.035-1.585-.656-1.448-1.586.07-.518.517-1 1.138-1.035Zm-.552 1.862c.07.482.655.448.93.172.242-.241.724-.827.656-1.344-.035-.276-.345-.414-.552-.38-.413.07-1.103 1.035-1.034 1.552ZM62.472 13.756c0 .07-.103.173-.172.242.655.069 1.137.275 1.172.965.654.069 1.344.345 1.275 1-.035.31-.31.586-.483.827-.206.276-.448.517-.586.758.035.173.31.276.173.414a5.34 5.34 0 0 1-.586-.448c-.207-.172-.414-.276-.552-.448.035-.173.207 0 .31.034.173-.103.345-.379.552-.62.207-.242.551-.517.483-.897-.035-.24-.345-.344-.62-.413-.311.482-.725.896-1.035 1.379 0 .138.242.241.138.344-.069.035-.207-.069-.276-.137-.172-.138-.379-.31-.586-.449-.069-.069-.206-.138-.172-.241.035-.138.172.035.276.035.172-.035.413-.414.586-.655.206-.276.517-.587.448-.862-.07-.242-.276-.31-.552-.38-.24.242-.551.69-.827 1.035-.069.103-.241.275-.241.344 0 .138.241.207.103.345-.103.035-.206-.103-.275-.172-.207-.138-.414-.31-.62-.448-.104-.07-.242-.173-.208-.242.07-.138.242.07.38.07.448-.414.758-.966 1.171-1.449-.034-.138-.24-.207-.206-.379.24.034.62.276.93.448ZM13.532 14.86c-.103.275-.448.758-.896.585-.138.449-.517 1-1.137.862-.31-.069-.517-.413-.483-.758.07-.483.552-.793.862-1.034-.207-.483-.724-.449-1.034-.138-.207.172-.276.517-.483.241.276-.448.655-1.103 1.276-1.138.517-.034.758.483 1.034.862.137.173.344.552.482.586.138.035.276-.172.38-.069Zm-1.585-.173c-.104.138-.345.241-.38.448-.103.62.793.69.897.173a4.111 4.111 0 0 0-.517-.621ZM9.259 14.997c-.104.035-.242-.069-.345-.138-.104-.069-.241-.172-.345-.24-.413.24-.758.55-.724 1.137.07.827 1.103 1.93 2.103 1.689.379-.104.69-.414.896-.69.069-.103.103-.206.207-.275.138.172 0 .448-.104.62-.31.552-1 1.172-1.895 1.069-.93-.069-1.792-1-1.723-2.034.068-.965.792-1.517 1.481-2h.035c.069.138.172.276.276.414.034.138.172.276.138.448ZM66.367 17.238c.034.104-.138.138-.173.242.586.137 1.034.482 1.034 1.068 0 .586-.551 1.241-1.171 1.31-.724.104-1.207-.345-1.483-.793-.24.242-.516.414-.689.69.035.172.241.31.173.448-.104.069-.207-.172-.31-.207a6.18 6.18 0 0 0-.655-.69c-.07-.068-.207-.103-.173-.24.138-.104.276.103.38.137.792-.69 1.516-1.448 2.274-2.172-.034-.138-.241-.275-.138-.379.31.069.62.38.93.586Zm-1.103 2.103c.586.104 1.413-.69 1.275-1.276-.035-.24-.276-.379-.483-.482-.413.38-.896.827-1.344 1.275.207.242.276.449.552.483ZM6.915 19.445c-.345.448-.69.861-1 1.31.655.724 1.517-.173 1.758-.69.241.104.07.38 0 .517-.207.483-.69 1.069-1.24 1.138-.793.103-1.448-.586-1.448-1.345 0-.965 1.103-1.758 1.93-.93Zm-1.482.275c-.276.242.034.724.241.897.173-.242.38-.448.517-.69-.172-.172-.517-.413-.758-.207ZM67.676 22.685c-.069.104-.24-.069-.344-.172-.173-.173-.38-.414-.207-.759-.414-.103-.827-.448-.827-.965 0-.345.31-.69.758-.655.483.069.758.586 1 .896.758-.207.31-1.103-.173-1.31.035-.069.069-.138.138-.172.517.276 1.413 1.138.862 1.793-.138.172-.448.344-.69.482-.206.138-.62.345-.654.517 0 .173.137.242.137.345Zm-.792-1.655c-.07.207.069.586.344.586.207 0 .448-.413.655-.413-.103-.448-.827-.655-1-.173ZM5.812 22.65c.172 0 .207-.344.38-.24.068.103-.07.206-.139.31-.103.24-.24.448-.344.689-.07.104-.104.241-.207.276-.104-.07 0-.241 0-.345-.31-.138-.862-.552-1.275-.69-.517-.172-.69.208-.759.656.483.31 1.034.551 1.551.861.173 0 .207-.31.345-.172.034.104-.069.207-.138.345-.138.241-.241.448-.379.69-.034.103-.103.31-.241.24-.07-.068.034-.24.034-.379-.896-.586-1.895-1.034-2.86-1.55-.138.034-.207.275-.345.24-.034-.172.069-.344.138-.551.069-.207.103-.414.172-.586.517.276 1 .551 1.517.793-.035-.724.24-1.345.792-1.38.345-.034.62.207.896.345.345.173.62.345.862.449ZM69.675 21.858c.242.31.483.586.69.93-.104.035-.173.104-.242.138.586.242 1.138 1.138.483 1.655-.38.31-1.069.483-1.448.793 0 .172.138.38 0 .448-.207-.276-.379-.655-.551-1-.07-.103-.172-.206-.103-.344.137-.035.172.172.275.207.276-.242 1.413-.517 1.517-.931.069-.31-.173-.552-.38-.69-.516.276-1.068.517-1.55.862-.035.138.103.31-.035.345-.103-.035-.138-.172-.207-.276a8.707 8.707 0 0 1-.482-1c.138-.137.241.173.345.242.585-.242 1.102-.552 1.654-.862 0-.138-.07-.241-.07-.38.07-.068.104-.068.104-.137ZM72.433 27.58c-.207.138-.207-.137-.38-.206-.172-.07-.585-.035-.896-.035-.655 0-1.24-.034-1.826.035-.276.034-.655.138-.793.069-.172-.07-.207-.276-.241-.414-.07-.138-.173-.345-.138-.448.103-.035.138.103.172.138.276.275.793.275 1.344.31-.034-.104.035-.172.07-.241.206-.276.516-.518.792-.759s.551-.517.793-.758c.034-.173-.104-.345.069-.38.172.276.275.69.413 1 .035.104.138.207.069.31-.172.138-.138-.206-.276-.24-.034 0-.207.206-.275.275-.207.207-.38.345-.552.517-.103.104-.207.172-.207.241h1.448c.034-.103-.069-.31.069-.344.103.344.207.69.345.93ZM.125 26.96c.414-.93.724-1.93 1.138-2.896.138.069.31.172.448.276.138.069.379.138.344.345-.172.069-.482-.07-.723-.07-.104.208-.173.483-.276.69.62.207 1.447.552 2.171.828.207.069.552.275.724.24.207-.034.172-.378.414-.344.034.138-.07.276-.138.414-.104.31-.207.586-.345.896-.034.104-.069.38-.241.276-.07 0 .034-.38 0-.483-.93-.379-1.93-.758-2.895-1.103-.104.207-.173.448-.276.655.069.104.207.207.31.276.104.069.276.172.241.345-.31 0-.62-.173-.93-.242v-.103h.034ZM46.24 5.172c.31 0 .792.035 1.171.07-.138.55-.276 1.068-.413 1.62.448-.104 1.068-.07 1.344.172.517.517-.173 1.482-.173 2.103.035.172.345.103.345.344-.207.035-.483-.069-.724-.137-.138-.035-.276-.07-.379-.07-.103-.034-.241-.034-.276-.137 0-.138.207-.07.345-.104.034-.379.414-1.103.38-1.551-.035-.345-.38-.483-.828-.414-.069.345-.241.862-.345 1.276-.034.138-.103.345-.069.448.035.138.276.069.276.276-.207.034-.482-.07-.724-.138-.138-.035-.24-.07-.379-.104-.103-.034-.275 0-.344-.138 0-.172.24-.068.379-.068.206-.483.31-1.035.448-1.552.138-.517.275-1.068.379-1.586-.104-.103-.207-.138-.345-.206-.034 0 0-.104-.069-.104Z"/></g><path d="M34.763 15.86c-.139.393-.694.37-1.201.35-.38-.016-.735-.03-.867.132.108.543.302 1.022.498 1.504.053.13.105.26.156.392 1.69-.345 3.757.138 5.136.655.242-.223.354-.575.468-.933.08-.253.162-.508.29-.722-.26-.074-.51-.048-.789-.02a3.644 3.644 0 0 1-.797.02c.759-.655 2.999-1.31 3.792-.241-.175.465-.74.415-1.286.368a9.51 9.51 0 0 0-.3-.023c-.325.413-.498.979-.67 1.545l-.088.282.414.245c1.765 1.043 3.505 2.07 3.377 4.788-.899-.118-1.765.007-2.543.12-.356.05-.693.1-1.007.121.552 1.38 1.413 2.379 2.792 2.551 3.515.448 5.514-4.447 2.55-6.515 3.171 1.172 2.378 6.998-1.068 7.584-2.62.448-4.377-1.172-4.722-3.482-.169-.063-.468-.023-.769.018-.19.025-.38.051-.54.051.161-.141.43-.2.701-.259.19-.042.383-.083.54-.155-.07-1.24.172-2.206.827-2.723-.414.655-.586 1.793-.414 2.551.474-.092.927-.224 1.396-.361.59-.172 1.203-.351 1.912-.466-.723-1.655-1.998-2.758-3.722-3.379-.286.498-.494 1.062-.7 1.622-.265.72-.528 1.436-.954 1.998.345-1.276.724-2.586 1.172-3.792-1.413-.62-3.516-.862-5.17-.517-.086.034-.103.138-.12.241-.018.103-.035.207-.121.241.54.695 1.145 1.304 1.749 1.91.474.477.947.953 1.387 1.469.277-.021.37-.03.498-.04l.33-.03c-1 .483-1.517 1.966-.242 2.552.111-.127.098-.37.085-.61-.015-.281-.03-.557.156-.631.544-.032.345.918.259 1.329l-.017.084c.379-.103.758-.207.896-.482.103.344-.414.724-.896.758.082.082.077.252.071.44a5.065 5.065 0 0 0-.003.146c.113.128.33.167.55.207.253.045.512.091.622.276-.21.028-.439.045-.67.061-.336.025-.678.05-.984.111-.029-.086-.022-.244-.013-.424.011-.252.025-.547-.056-.748-.93-.103-1.55-1.482-.896-2.413-.596-.757-1.3-1.407-2.008-2.062-.356-.33-.713-.66-1.06-1.006-.104.2-.204.404-.304.608-.727 1.478-1.448 2.943-3.659 2.943 2.31-.966 3.343-3.827 3.964-5.965a8.56 8.56 0 0 0-.195-.488c-.313-.742-.69-1.635-.047-2.166.128-.007.285-.027.457-.048.706-.09 1.658-.21 1.853.427Zm-2.654 2.137c.172 1-.345 1.344-1.172 1.413.03-.378.02-.637.012-.87a3.74 3.74 0 0 1 .057-.957c.333-.139.666.103.927.292.063.045.122.088.176.122Zm-5.687 5.86c-.138-2.103 1.344-3.585 3.619-3.964-6.41-.276-5.446 8.825-.07 8.342 1.965-.172 3.378-2 3.378-3.964-.723 4.378-6.72 3.55-6.927-.414Z"/></g></g><defs><clipPath id="a"><path fill="#fff" transform="translate(.09 4)" d="M0 0h72.727v32H0z"/></clipPath><clipPath id="b"><path fill="#fff" transform="translate(.09 4)" d="M0 0h72.727v32H0z"/></clipPath><clipPath id="c"><path fill="#fff" transform="translate(9.052 31.58)" d="M0 0h54.788v4.364H0z"/></clipPath><clipPath id="d"><path fill="#fff" transform="translate(9.052 31.58)" d="M0 0h54.788v4.364H0z"/></clipPath><clipPath id="e"><path fill="#fff" transform="translate(9.052 31.58)" d="M0 0h15.515v3.879H0z"/></clipPath><clipPath id="f"><path fill="#fff" transform="translate(24.216 31.58)" d="M0 0h4.848v3.879H0z"/></clipPath><clipPath id="g"><path fill="#fff" transform="translate(42.483 32.614)" d="M0 0h4.364v2.909H0z"/></clipPath><clipPath id="h"><path fill="#fff" transform="translate(49.376 31.58)" d="M0 0h14.061v3.879H0z"/></clipPath><clipPath id="i"><path fill="#fff" transform="translate(.09 4)" d="M0 0h72.727v23.758H0z"/></clipPath></defs></svg>