<svg width="77" height="40" fill="none" xmlns="http://www.w3.org/2000/svg"><path fill-rule="evenodd" clip-rule="evenodd" d="M12 32c6.627 0 12-5.373 12-12S18.627 8 12 8 0 13.373 0 20s5.373 12 12 12Zm2.147-9.527c1.683-.56 2.901-2.196 2.901-4.129 0-2.394-1.87-4.335-4.177-4.335H7.37l2.33 2.91h3.171c.759 0 1.373.638 1.373 1.425s-.614 1.425-1.373 1.425h-.889l2.165 2.704Zm-7.083-2.7h3.735l5.217 6.236H12.28l-5.217-6.236Z" fill="#fff"/><path d="M39.169 27.34h3.066l-3.486-5.417c1.722-.735 2.751-2.29 2.751-4.431 0-3.045-2.1-5.061-5.271-5.061H31v14.91h2.877v-4.935h2.226l3.066 4.935Zm-5.292-7.433v-4.83h2.058c1.575 0 2.646.693 2.646 2.415 0 1.743-1.071 2.415-2.646 2.415h-2.058ZM48.226 27.55c2.835 0 5.754-1.973 5.754-5.67 0-3.695-2.919-5.67-5.754-5.67-2.856 0-5.754 1.975-5.754 5.67 0 3.697 2.898 5.67 5.754 5.67Zm-2.982-5.67c0-1.952 1.407-3.128 2.982-3.128 1.575 0 2.961 1.176 2.961 3.129s-1.386 3.129-2.96 3.129c-1.576 0-2.983-1.176-2.983-3.13ZM55.686 27.34H58.5V12.43h-2.814v14.91ZM60.686 27.34H63.5V12.43h-2.814v14.91ZM70.637 27.55c1.953 0 3.213-1.07 3.486-1.68h.063v1.47H77V16.42h-2.814v1.47h-.063c-.273-.608-1.533-1.68-3.486-1.68-2.541 0-5.25 1.89-5.25 5.67 0 3.78 2.709 5.67 5.25 5.67Zm-2.478-5.67c0-2.036 1.47-3.15 3.045-3.15s3.045 1.093 3.045 3.15c0 2.059-1.47 3.15-3.045 3.15s-3.045-1.112-3.045-3.15Z" fill="#fff"/></svg>