<svg width="65" height="40" viewBox="0 0 65 40" fill="none" xmlns="http://www.w3.org/2000/svg">
<g clip-path="url(#clip0_273_20116)">
<path fill-rule="evenodd" clip-rule="evenodd" d="M11.8915 31.9045C15.4332 31.9045 18.6151 30.3641 20.8037 27.9167C19.7856 27.0318 18.2513 26.9781 17.1674 27.8527L16.9603 28.0198C14.9758 29.6211 12.0841 29.3846 10.3861 27.4821C9.45997 26.4445 7.87394 26.3386 6.81807 27.2438L4.43065 29.2905C6.47545 30.9264 9.06923 31.9045 11.8915 31.9045ZM15.7668 26.1169C17.657 24.5916 20.3139 24.6463 22.1319 26.1194C23.2186 24.3189 23.8438 22.2086 23.8438 19.9522C23.8438 17.4451 23.0718 15.1182 21.7526 13.1964C20.9022 13.0153 19.9804 13.2268 19.2806 13.8469L19.0815 14.0233C17.173 15.7146 14.2734 15.6118 12.4894 13.7897C11.5164 12.7959 9.92719 12.7633 8.91422 13.7163L6.13597 16.33L4.60763 14.7055L7.38588 12.0918C9.28341 10.3066 12.2605 10.3677 14.0832 12.2293C15.0355 13.202 16.5834 13.2569 17.6022 12.354L17.8013 12.1775C18.4198 11.6295 19.1354 11.26 19.8845 11.0657C17.767 9.15986 14.9647 8 11.8915 8C5.82406 8 0.812578 12.521 0.0419743 18.3781C1.88489 17.4937 4.15812 17.834 5.66077 19.3728C6.60939 20.3442 8.13683 20.4467 9.20677 19.6108L10.7602 18.3973C12.7123 16.8721 15.4721 16.9459 17.3399 18.5733L20.3642 21.2082L18.899 22.8898L15.8748 20.255C14.8126 19.3297 13.2434 19.2877 12.1333 20.1549L10.5799 21.3685C8.61414 22.9042 5.80783 22.7158 4.06498 20.9311C3.05151 19.8932 1.39397 19.857 0.336147 20.8496L0 21.165C0.251563 23.6614 1.27132 25.9311 2.81928 27.7341L5.36632 25.5505C7.34425 23.8547 10.3153 24.0532 12.0502 25.9969C12.9566 27.0126 14.5003 27.1388 15.5597 26.2839L15.7668 26.1169Z" fill="white"/>
<path d="M32.4528 23.7856C32.4528 26.2865 34.416 27.9269 37.5085 27.9269C40.628 27.9269 42.7792 26.3403 42.7792 23.8393C42.7792 21.8762 41.6768 20.8543 39.4447 20.3165L37.1321 19.7518C35.8412 19.4291 35.1958 18.8374 35.1958 17.95C35.1958 16.7399 36.0833 16.0407 37.6699 16.0407C39.2027 16.0407 40.0902 16.8743 40.1439 18.192H42.5644C42.5106 15.6911 40.628 14.0776 37.7506 14.0776C34.8462 14.0776 32.8025 15.6104 32.8025 18.0307C32.8025 19.9669 33.905 21.1233 36.2446 21.688L38.5573 22.2258C39.9288 22.5754 40.3591 23.1132 40.3591 24.0007C40.3591 25.2108 39.3372 25.9369 37.5623 25.9369C35.895 25.9369 34.8731 25.1302 34.8731 23.7856H32.4528Z" fill="white"/>
<path d="M51.7945 27.9269C55.0485 27.9269 57.2537 26.3403 57.8992 23.5167H55.5327C55.1023 25.0226 53.8117 25.8293 51.8483 25.8293C49.3473 25.8293 47.8953 24.2965 47.707 21.5266L57.8723 21.4997V20.5585C57.8723 16.6592 55.4251 14.0776 51.6873 14.0776C47.8684 14.0776 45.2599 16.9281 45.2599 21.0426C45.2599 25.1302 47.9222 27.9269 51.7945 27.9269ZM51.6873 16.202C53.9193 16.202 55.3444 17.6542 55.3444 19.8324H47.7608C48.0836 17.5198 49.4818 16.202 51.6873 16.202Z" fill="white"/>
<path d="M62.4708 11.3346C63.3848 11.3346 64.1379 10.5816 64.1379 9.6673C64.1379 8.72608 63.3848 8 62.4708 8C61.5563 8 60.8032 8.72608 60.8032 9.6673C60.8032 10.5816 61.5563 11.3346 62.4708 11.3346ZM61.2335 27.6042H63.7614V14.4541H61.2335V27.6042Z" fill="white"/>
</g>
<defs>
<clipPath id="clip0_273_20116">
<rect width="64.1379" height="24" fill="white" transform="translate(0 8)"/>
</clipPath>
</defs>
</svg>
