<svg width="122" height="32" viewBox="0 0 122 32" fill="none" xmlns="http://www.w3.org/2000/svg">
<g clip-path="url(#clip0_79_25)">
<path d="M13.3709 0.0115356H0V31.9884L13.3709 0.0115356Z" fill="white"/>
<path d="M22.7783 0.0115356H36.1318V31.9884L22.7783 0.0115356Z" fill="white"/>
<path d="M18.0746 11.7971L26.5849 31.9884H21.0014L18.4579 25.56H12.2297L18.0746 11.7971Z" fill="white"/>
<path d="M57.9454 20.3468L59.522 24.8676C59.5743 24.9809 59.6527 25.0331 59.7921 25.0331H62.8234C62.9889 25.0331 63.015 24.9547 62.9889 24.7892L56.7259 7.39402C56.6998 7.25465 56.6736 7.22852 56.5343 7.22852H52.7713C52.6667 7.22852 52.6058 7.30691 52.6058 7.42015C52.5535 8.33477 52.4751 8.61351 52.3619 8.88354L46.7783 24.7631C46.7522 24.9548 46.8132 25.0331 46.97 25.0331H49.679C49.8445 25.0331 49.9229 24.9809 49.9838 24.8154L51.4734 20.3468H57.9454ZM52.3357 17.3939C53.1545 14.92 54.2347 11.7494 54.6702 9.93754H54.6963C55.2364 11.8365 56.5081 15.5995 57.0831 17.3939H52.3357Z" fill="white"/>
<path d="M71.0404 25.3032C72.6693 25.3032 74.4027 25.007 76.1623 24.2492C76.3016 24.1969 76.3278 24.1359 76.3278 24.0053C76.2755 23.5175 76.2145 22.8119 76.2145 22.2719V5.89578C76.2145 5.79125 76.2145 5.73898 76.0839 5.73898H73.131C73.0177 5.73898 72.9655 5.79125 72.9655 5.93062V11.4793C72.5038 11.4271 72.1815 11.4009 71.7982 11.4009C67.0335 11.4009 64.1067 14.5455 64.1067 18.474C64.1067 23.0297 67.1119 25.3032 71.0404 25.3032ZM72.9655 22.2719C72.4777 22.4286 71.9376 22.4896 71.3888 22.4896C69.2286 22.4896 67.4603 21.2701 67.4603 18.3085C67.4603 15.6866 69.2808 14.1361 71.6937 14.1361C72.1815 14.1361 72.6083 14.1883 72.9655 14.3277V22.2719Z" fill="white"/>
<path d="M85.7481 11.4009C81.6802 11.4009 79.1628 14.5194 79.1628 18.3695C79.1628 21.8102 81.1663 25.3032 85.6871 25.3032C89.5111 25.3032 92.194 22.4896 92.194 18.2824C92.194 14.5716 89.9205 11.4009 85.7481 11.4009ZM85.5826 14.1361C87.8822 14.1361 88.8578 16.1134 88.8578 18.3695C88.8578 21.1569 87.4206 22.5419 85.7481 22.5419C83.6837 22.5419 82.4642 20.8085 82.4642 18.3085C82.4642 15.7389 83.7621 14.1361 85.5826 14.1361Z" fill="white"/>
<path d="M95.2471 5.73898C95.1338 5.73898 95.0554 5.79125 95.0554 5.93062V24.4669C95.0554 24.5454 95.1338 24.6847 95.2471 24.7108C96.5449 25.1115 97.9038 25.3032 99.3062 25.3032C103.322 25.3032 107.224 22.8119 107.224 17.7946C107.224 14.1622 104.733 11.4009 100.831 11.4009C99.9334 11.4009 99.0972 11.5403 98.3655 11.7842L98.3306 5.95675C98.3306 5.76512 98.2784 5.73898 98.0867 5.73898H95.2471ZM103.888 18.1256C103.888 21.1308 101.832 22.5419 99.6111 22.5419C99.1494 22.5419 98.74 22.5157 98.3655 22.4025V14.4932C98.7923 14.3277 99.3062 14.1883 100.256 14.1883C102.399 14.1883 103.888 15.5472 103.888 18.1256Z" fill="white"/>
<path d="M118.244 19.1012C119.569 19.1012 120.657 19.075 121.032 18.9879C121.171 18.9618 121.224 18.9095 121.25 18.7963C121.328 18.5001 121.363 17.8817 121.363 17.1239C121.363 14.5455 119.812 11.4009 115.805 11.4009C111.711 11.4009 109.438 14.7371 109.438 18.5001C109.438 21.8363 111.198 25.3032 116.128 25.3032C117.974 25.3032 119.168 25.007 120.196 24.5192C120.3 24.467 120.352 24.3799 120.352 24.2231V21.967C120.352 21.8363 120.274 21.8102 120.196 21.8625C119.168 22.298 118.053 22.5158 116.833 22.5158C114.072 22.5158 112.818 20.9914 112.739 19.1012H118.244ZM112.739 16.7667C112.957 15.4427 113.793 14.0054 115.666 14.0054C117.731 14.0054 118.271 15.7389 118.271 16.5228C118.271 16.549 118.271 16.6622 118.271 16.7406C118.157 16.7667 117.809 16.7667 116.781 16.7667H112.739Z" fill="white"/>
</g>
<defs>
<clipPath id="clip0_79_25">
<rect width="121.363" height="32" fill="white"/>
</clipPath>
</defs>
</svg>
