<svg width="99" height="96" viewBox="0 0 99 96" fill="none" xmlns="http://www.w3.org/2000/svg">
<path d="M49.287 48C49.287 39.1751 56.441 32.0209 65.2661 32.0209C74.091 32.0209 81.2453 39.1751 81.2453 48C81.2453 56.8251 74.091 63.9792 65.2661 63.9792C56.441 63.9792 49.287 56.8251 49.287 48Z" fill="#1ABCFE"/>
<path d="M17.3287 79.9583C17.3287 71.1334 24.4828 63.9791 33.3079 63.9791H49.287V79.9583C49.287 88.7834 42.133 95.9374 33.3079 95.9374C24.4828 95.9374 17.3287 88.7834 17.3287 79.9583Z" fill="#0ACF83"/>
<path d="M49.287 0.0626221V32.0208H65.2661C74.0912 32.0208 81.2453 24.8668 81.2453 16.0418C81.2453 7.21673 74.0912 0.0626221 65.2661 0.0626221H49.287Z" fill="#FF7262"/>
<path d="M17.3287 16.0418C17.3287 24.8668 24.4828 32.0208 33.3079 32.0208H49.287V0.0626221H33.3079C24.4828 0.0626221 17.3287 7.21672 17.3287 16.0418Z" fill="#F24E1E"/>
<path d="M17.3287 48C17.3287 56.8251 24.4828 63.9792 33.3079 63.9792H49.287V32.0209H33.3079C24.4828 32.0209 17.3287 39.1751 17.3287 48Z" fill="#A259FF"/>
</svg>
