<svg width="94" height="34" viewBox="0 0 94 34" fill="none" xmlns="http://www.w3.org/2000/svg">
<g clip-path="url(#clip0_25_916)">
<path d="M0 0.00164108V26.2647L3.3793 26.2751V13.7683H11.527V10.4625H3.3793V3.30583H13.9905V0L0 0.00164108Z" fill="black"/>
<path d="M20.073 5.33289C21.2902 5.33289 22.2769 4.34617 22.2769 3.129C22.2769 1.91182 21.2902 0.92511 20.073 0.92511C18.8559 0.92511 17.8691 1.91182 17.8691 3.129C17.8691 4.34617 18.8559 5.33289 20.073 5.33289Z" fill="black"/>
<path d="M18.354 8.63873V26.2699H21.7333V8.63873H18.354Z" fill="black"/>
<path fill-rule="evenodd" clip-rule="evenodd" d="M34.2671 8.12451C29.7796 8.12451 26.6479 11.9198 26.6479 16.4258C26.6479 20.9319 29.7796 24.7271 34.2671 24.7271C36.3215 24.7271 38.0146 23.9317 39.2468 22.637V24.9843C39.2468 27.9054 36.9523 30.347 33.9576 30.347C32.8812 30.347 31.8117 29.9298 30.9596 29.3425L29.2663 32.2751C30.6187 33.1469 32.229 33.6528 33.9576 33.6528C38.7452 33.6528 42.6261 29.7718 42.6261 24.9843V8.63875H39.2468V10.2147C38.0146 8.91988 36.3215 8.12451 34.2671 8.12451ZM30.0272 16.4258C30.0272 13.6288 32.1668 11.4303 34.6344 11.4303C37.1022 11.4303 39.2416 13.6288 39.2416 16.4258C39.2416 19.2228 37.1022 21.4213 34.6344 21.4213C32.1668 21.4213 30.0272 19.2228 30.0272 16.4258Z" fill="black"/>
<path d="M54.8027 11.4303C52.8045 11.4303 51.1846 13.1236 51.1846 15.1218V26.2699H47.8053V8.63875H51.1846V10.2539C52.1748 8.97389 53.6335 8.12451 55.5372 8.12451C57.9051 8.12451 59.7225 9.30061 60.7751 11.1005C61.9455 9.36197 63.8547 8.12451 66.1527 8.12451C69.9988 8.12451 72.3928 11.2276 72.4154 15.0667C72.4154 15.0783 72.4154 15.0899 72.4154 15.1016V15.1023V15.1028V15.1034C72.4154 15.1096 72.4154 15.1157 72.4154 15.1218V26.2699H69.0361V15.1218C69.0361 13.1236 67.4163 11.4303 65.4181 11.4303C63.4198 11.4303 61.8 13.1236 61.8 15.1218V26.2699H58.4207V15.1218C58.4207 13.1236 56.8008 11.4303 54.8027 11.4303Z" fill="black"/>
<path fill-rule="evenodd" clip-rule="evenodd" d="M90.4138 10.6374C88.9104 9.08504 86.8515 8.12451 84.4633 8.12451C79.4359 8.12451 75.8682 12.381 75.8682 17.4543C75.8682 22.5275 79.4359 26.7841 84.4633 26.7841C86.8515 26.7841 88.9104 25.8236 90.4138 24.2712V26.2699H93.7931V8.63875H90.4138V10.6374ZM79.2474 17.4543C79.2474 14.0885 81.8245 11.4303 84.8306 11.4303C87.8366 11.4303 90.4138 14.0885 90.4138 17.4543C90.4138 20.8201 87.8366 23.4782 84.8306 23.4782C81.8245 23.4782 79.2474 20.8201 79.2474 17.4543Z" fill="black"/>
</g>
<defs>
<clipPath id="clip0_25_916">
<rect width="93.7931" height="34" fill="white"/>
</clipPath>
</defs>
</svg>
