<svg width="150" height="34" viewBox="0 0 150 34" fill="none" xmlns="http://www.w3.org/2000/svg">
<g clip-path="url(#clip0_31_994)">
<path d="M42.6316 27.6022V4.93549H56.417V9.32258H47.8543V15.4158H56.417V19.7419H47.8543V27.6022H42.6316Z" fill="black"/>
<path d="M59.8785 27.6021V12.0036H64.7976V15.233C65.0405 14.1362 65.587 13.2222 66.3765 12.6129C67.166 12.0036 68.0769 11.6989 69.0486 11.6989C69.5344 11.6989 70.0202 11.7598 70.3239 11.8208V16.4516C69.7166 16.3907 69.2308 16.3297 68.8664 16.3297C66.1336 16.3297 64.7976 18.0968 64.7976 21.5089V27.5412H59.8785V27.6021Z" fill="black"/>
<path d="M78.8259 27.9678C76.5789 27.9678 74.7571 27.1756 73.4818 25.6523C72.1457 24.129 71.5385 22.1183 71.5385 19.742C71.5385 17.3656 72.2065 15.4158 73.5425 13.8316C74.8785 12.3083 76.7004 11.5161 78.8866 11.5161C79.9797 11.5161 80.9514 11.7599 81.8016 12.2473C82.6518 12.7348 83.3198 13.3441 83.7449 14.1971V11.9427H88.664V27.5412H83.7449V25.3477C83.3198 26.1398 82.6518 26.7491 81.7409 27.2366C80.8907 27.785 79.919 27.9678 78.8259 27.9678ZM80.2227 23.8853C81.3765 23.8853 82.3482 23.5197 82.9555 22.7276C83.5627 21.9355 83.9271 20.9606 83.9271 19.8029C83.9271 18.6452 83.6235 17.6703 82.9555 16.8782C82.2874 16.086 81.3765 15.7204 80.2227 15.7204C79.1295 15.7204 78.2186 16.086 77.5506 16.8782C76.8826 17.6093 76.5182 18.6452 76.5182 19.8029C76.5182 21.0215 76.8826 21.9964 77.5506 22.7885C78.2186 23.5197 79.1295 23.8853 80.2227 23.8853Z" fill="black"/>
<path d="M92.7328 27.6021V12.0036H97.6518V14.2581C98.0162 13.4659 98.5628 12.7957 99.3522 12.3082C100.142 11.8208 101.053 11.5771 102.085 11.5771C104.514 11.5771 106.154 12.552 106.943 14.4409C107.368 13.5878 108.036 12.8566 108.887 12.3692C109.798 11.8208 110.769 11.5771 111.862 11.5771C115.567 11.5771 117.389 13.7097 117.389 17.914V27.6021H112.409V18.828C112.409 16.7563 111.619 15.7814 110.101 15.7814C108.34 15.7814 107.49 17.0609 107.49 19.6201V27.6631H102.632V18.767C102.632 16.7563 101.842 15.7204 100.324 15.7204C99.4737 15.7204 98.8057 16.0251 98.3806 16.5735C97.9555 17.1219 97.7125 18.1577 97.7125 19.5591V27.6021H92.7328Z" fill="black"/>
<path d="M136.7 18.9498C136.7 19.6201 136.64 20.2903 136.579 21.1434H125.101C125.162 22.1792 125.466 22.9713 126.134 23.5197C126.802 24.0681 127.652 24.3728 128.745 24.3728C130.263 24.3728 131.235 23.8853 131.66 22.9104H136.518C136.275 24.4337 135.425 25.7133 134.028 26.6272C132.571 27.6021 130.87 28.0896 128.806 28.0896C126.134 28.0896 124.069 27.3584 122.551 25.8961C121.032 24.4337 120.243 22.4229 120.243 19.8029C120.243 17.2437 121.032 15.233 122.551 13.7706C124.069 12.3082 126.134 11.5771 128.623 11.5771C131.053 11.5771 132.996 12.2473 134.514 13.6487C135.911 14.9892 136.7 16.7563 136.7 18.9498ZM125.04 18.0358H131.781C131.781 17 131.478 16.2079 130.931 15.6595C130.385 15.1111 129.595 14.8064 128.502 14.8064C127.47 14.8064 126.619 15.1111 126.012 15.7204C125.405 16.3297 125.101 17.1219 125.04 18.0358Z" fill="black"/>
<path d="M139.494 27.6021V12.0036H144.413V15.233C144.656 14.1362 145.202 13.2222 145.992 12.6129C146.781 12.0036 147.692 11.6989 148.664 11.6989C149.15 11.6989 149.636 11.7598 149.939 11.8208V16.4516C149.332 16.3907 148.846 16.3297 148.482 16.3297C145.749 16.3297 144.413 18.0968 144.413 21.5089V27.5412H139.494V27.6021Z" fill="black"/>
<path d="M22.5911 0V11.3333H11.2955L0 0H22.5911ZM0 11.3333H11.2955L22.5911 22.6667H11.2955V34L0 22.6667V11.3333Z" fill="black"/>
</g>
<defs>
<clipPath id="clip0_31_994">
<rect width="150" height="34" fill="white"/>
</clipPath>
</defs>
</svg>
