<svg width="45" height="38" viewBox="0 0 45 38" fill="none" xmlns="http://www.w3.org/2000/svg">
<path d="M1 37C2.27547 37 4.18866 34.3215 6.42073 33.9389C7.69619 33.9389 8.65279 36.6174 11.8415 37C14.0735 37 15.0301 34.3215 17.2622 34.3215C19.4942 34.3215 20.4508 37 22.6829 37C24.915 37 25.8716 34.3215 28.1036 34.3215C30.3357 34.3215 31.2923 37 33.5244 37C35.7564 37 36.713 34.3215 38.9451 34.3215C41.1771 34.3215 42.1337 37 44.3658 37M5.36209 34.3343L3.90168 31.541L41.5279 29.1176C38.5688 31.8089 34.7679 33.9899 30.9224 35.7756M18.882 5.52152C25.2849 7.47936 34.2386 16.9369 37.287 27.1024C35.6161 26.4455 34.3662 25.7759 32.0193 26.3754C29.749 18.1167 25.6866 10.228 18.882 5.52152ZM6.97555 1C15.1768 4.50753 26.4264 14.2712 28.4926 27.2746C19.0351 23.4609 11.8351 25.4953 6.8225 28.5883C14.4689 18.8693 11.0379 7.81736 6.97555 1Z" stroke="white" stroke-width="0.870717" stroke-linecap="round" stroke-linejoin="round"/>
</svg>
