<svg width="120" height="25" viewBox="0 0 120 25" fill="none" xmlns="http://www.w3.org/2000/svg">
<g clip-path="url(#clip0_25_924)">
<path d="M79.4757 0.238403H100.064V4.03848H91.8969V24.0302H87.813V4.03848H79.4757V0.238403Z" fill="black"/>
<path d="M45.6157 0.238403V4.03848H29.1127V10.1516H42.3844V13.9517H29.1127V20.2301H45.6157V24.0302H25.0291V4.03848H25.0273V0.238403H45.6157Z" fill="black"/>
<path d="M55.8961 0.248291H50.5519L69.6937 24.0401H75.0535L65.4814 12.1524L75.0382 0.266443L69.6937 0.274702L62.8057 8.82936L55.8961 0.248291Z" fill="black"/>
<path d="M61.38 17.2429L58.7037 13.9153L50.5365 24.0582H55.896L61.38 17.2429Z" fill="black"/>
<path fill-rule="evenodd" clip-rule="evenodd" d="M25.1721 24.0302L6.00455 0.228455H0.900024V24.0202H4.98365V5.31393L20.042 24.0302H25.1721Z" fill="black"/>
<path d="M100.982 23.8848C100.683 23.8848 100.429 23.7812 100.216 23.574C100.003 23.3668 99.8974 23.116 99.9001 22.8188C99.8974 22.5298 100.003 22.2816 100.216 22.0744C100.429 21.8672 100.683 21.7636 100.982 21.7636C101.27 21.7636 101.522 21.8672 101.735 22.0744C101.951 22.2816 102.058 22.5298 102.061 22.8188C102.058 23.0151 102.008 23.195 101.909 23.3559C101.807 23.5195 101.677 23.6476 101.513 23.7403C101.353 23.8358 101.176 23.8848 100.982 23.8848Z" fill="black"/>
<path d="M107.952 13.862H109.762V20.8338C109.759 21.4746 109.62 22.0226 109.349 22.4834C109.076 22.9442 108.696 23.2959 108.209 23.544C107.725 23.7894 107.158 23.9148 106.513 23.9148C105.924 23.9148 105.395 23.8085 104.925 23.6013C104.455 23.394 104.081 23.0832 103.807 22.6742C103.53 22.2652 103.395 21.7554 103.395 21.1446H105.207C105.21 21.4119 105.271 21.6436 105.387 21.8372C105.503 22.0308 105.664 22.178 105.869 22.2816C106.076 22.3852 106.314 22.437 106.582 22.437C106.873 22.437 107.122 22.377 107.324 22.2543C107.526 22.1343 107.681 21.9544 107.789 21.7145C107.894 21.4773 107.949 21.1828 107.952 20.8338V13.862Z" fill="black"/>
<path d="M117.207 16.5886C117.163 16.166 116.969 15.8361 116.632 15.6016C116.291 15.3644 115.852 15.2471 115.312 15.2471C114.933 15.2471 114.607 15.3044 114.335 15.4162C114.064 15.5307 113.854 15.6834 113.71 15.877C113.566 16.0706 113.494 16.2914 113.489 16.5395C113.489 16.7468 113.538 16.9267 113.635 17.0767C113.732 17.2293 113.862 17.3575 114.031 17.4611C114.197 17.5674 114.382 17.6547 114.584 17.7256C114.789 17.7965 114.994 17.8565 115.199 17.9055L116.142 18.1373C116.521 18.2245 116.889 18.3418 117.241 18.4917C117.592 18.639 117.91 18.8271 118.19 19.0534C118.469 19.2797 118.691 19.5524 118.854 19.8714C119.017 20.1904 119.1 20.5639 119.1 20.9947C119.1 21.5754 118.951 22.0853 118.649 22.527C118.347 22.966 117.913 23.3095 117.343 23.5577C116.776 23.8031 116.09 23.9285 115.282 23.9285C114.501 23.9285 113.821 23.8085 113.248 23.5686C112.673 23.3314 112.224 22.9823 111.9 22.5243C111.577 22.0662 111.402 21.5073 111.377 20.8502H113.171C113.195 21.1937 113.306 21.48 113.494 21.7118C113.685 21.9408 113.934 22.1099 114.239 22.2244C114.546 22.3361 114.889 22.3934 115.268 22.3934C115.664 22.3934 116.012 22.3334 116.314 22.2162C116.612 22.0989 116.848 21.9354 117.017 21.7227C117.188 21.5127 117.274 21.2646 117.277 20.9811C117.274 20.7221 117.196 20.5066 117.047 20.3376C116.895 20.1686 116.684 20.0268 116.416 19.9123C116.145 19.7978 115.829 19.6941 115.47 19.6042L114.324 19.3151C113.497 19.1052 112.841 18.7862 112.362 18.3581C111.881 17.9301 111.643 17.363 111.643 16.6513C111.643 16.0679 111.803 15.5553 112.127 15.1163C112.448 14.6773 112.888 14.3365 113.444 14.0938C114.003 13.8485 114.634 13.7285 115.337 13.7285C116.051 13.7285 116.676 13.8485 117.216 14.0938C117.755 14.3365 118.179 14.6746 118.486 15.1054C118.793 15.5362 118.953 16.0297 118.962 16.5886H117.207Z" fill="black"/>
</g>
<defs>
<clipPath id="clip0_25_924">
<rect width="118.2" height="24" fill="white" transform="translate(0.900024 0.228455)"/>
</clipPath>
</defs>
</svg>
