<svg width="130" height="32" viewBox="0 0 130 32" fill="none" xmlns="http://www.w3.org/2000/svg">
<g clip-path="url(#clip0_79_62)">
<path d="M92.5176 12.4445C90.6254 12.4445 89.2457 13.1161 88.5756 14.3407L88.2208 15.0124V12.7605H85.1067V26.3901H88.3785V18.2914C88.3785 16.3556 89.4428 15.2494 91.2561 15.2494C92.9906 15.2494 94.0155 16.3161 94.0155 18.2124V26.3901H97.2873V17.6198C97.2873 14.3803 95.5135 12.4445 92.5176 12.4445ZM76.6709 12.4445C72.8078 12.4445 70.4426 14.8543 70.4426 18.7259V20.6222C70.4426 24.3753 72.8472 26.6667 76.7498 26.6667C79.3514 26.6667 81.1647 25.7185 82.3079 23.7432L80.2975 22.558C79.4303 23.7037 78.09 24.3753 76.7498 24.3753C74.7788 24.3753 73.5962 23.1506 73.5962 21.0963V20.5432H82.7021V18.2914C82.7021 14.7753 80.3369 12.4445 76.6709 12.4445ZM79.7456 18.4494H73.5962V18.1333C73.5962 15.8815 74.6999 14.6568 76.6709 14.6568C78.6025 14.6568 79.7456 15.8815 79.7456 17.9358V18.4494ZM129.73 10.5482V7.94075H118.416V10.5482H122.398V23.7827H118.416V26.3901H129.73V23.7827H125.748V10.5482H129.73ZM43.9921 7.54568C38.9464 7.54568 35.7928 10.7062 35.7928 15.763V18.5284C35.7928 23.6247 38.9464 26.7457 43.9921 26.7457C49.0378 26.7457 52.1914 23.5852 52.1914 18.5284V15.763C52.1914 10.7062 49.0378 7.54568 43.9921 7.54568ZM48.8013 18.7259C48.8013 22.084 47.0668 24.0198 43.9921 24.0198C40.9174 24.0198 39.1829 22.1235 39.1829 18.7259V15.6049C39.1829 12.2469 40.9568 10.3111 43.9921 10.3111C47.0274 10.3111 48.8013 12.2469 48.8013 15.6049V18.7259ZM62.4799 12.4445C60.7454 12.4445 59.2869 13.1556 58.4985 14.3407L58.1437 14.8938V12.7605H55.0296V31.0519H58.3014V24.4543L58.6562 24.9679C59.4052 26.0741 60.8243 26.7062 62.5193 26.7062C65.3575 26.7062 68.1957 24.8494 68.1957 20.7407V18.4099C68.1563 15.4469 66.3824 12.4445 62.4799 12.4445ZM64.8845 20.5827C64.8845 22.7951 63.623 24.1383 61.5338 24.1383C59.6023 24.1383 58.262 22.7161 58.262 20.6222V18.5679C58.262 16.4741 59.6023 15.0124 61.5338 15.0124C63.5836 15.0124 64.8451 16.3556 64.8451 18.5679L64.8845 20.5827ZM106.314 7.94075L99.7314 26.3901H103.043L104.304 22.4395H111.873V22.479L113.134 26.3901H116.445L109.823 7.94075H106.314ZM105.132 19.8321L108.128 10.5086L111.084 19.8321H105.132Z" fill="white"/>
<path d="M29.4069 13.0765C30.1165 10.9037 29.88 8.49383 28.7368 6.51852C27.0023 3.47654 23.494 1.9358 20.0645 2.64691C18.5665 0.948148 16.3591 0 14.0727 0C10.5644 0 7.48966 2.25185 6.38591 5.57037C4.13899 6.04444 2.20744 7.42716 1.06427 9.44198C-0.670192 12.484 -0.275996 16.2765 2.04976 18.884C1.34021 21.0963 1.61614 23.4667 2.75931 25.442C4.49377 28.484 8.00211 30.0642 11.4316 29.3136C12.969 31.0123 15.137 32 17.4234 32C20.9317 32 24.0064 29.7481 25.1102 26.4296C27.3571 25.9556 29.2887 24.5728 30.4318 22.558C32.1663 19.516 31.7721 15.684 29.4069 13.0765ZM17.4234 29.9062C16.0043 29.9062 14.664 29.4321 13.5997 28.5235C13.6391 28.4839 13.7574 28.4444 13.7968 28.4049L20.1433 24.7309C20.4587 24.5333 20.6558 24.2173 20.6558 23.8222V14.8543L23.3363 16.3951C23.3757 16.3951 23.3757 16.4346 23.3757 16.4741V23.9012C23.4152 27.2198 20.7346 29.9062 17.4234 29.9062ZM4.57261 24.4148C3.86306 23.1901 3.62654 21.7679 3.86306 20.3852C3.90248 20.4247 3.98131 20.4642 4.06015 20.5037L10.4067 24.1778C10.7221 24.3753 11.1163 24.3753 11.4316 24.1778L19.1973 19.6741V22.7951C19.1973 22.8346 19.1973 22.8741 19.1578 22.8741L12.7325 26.5877C9.89425 28.2469 6.22823 27.2593 4.57261 24.4148ZM2.91699 10.5086C3.62654 9.28395 4.73029 8.37531 6.03113 7.86173V15.4469C6.03113 15.8025 6.22823 16.158 6.54359 16.3556L14.3092 20.8593L11.6287 22.4C11.5893 22.4 11.5499 22.4395 11.5499 22.4L5.12448 18.6864C2.20744 17.0272 1.26137 13.3531 2.91699 10.5086ZM24.9919 15.6444L17.2263 11.1407L19.9068 9.6C19.9462 9.6 19.9857 9.56049 19.9857 9.6L26.411 13.3136C29.2887 14.9728 30.2347 18.6469 28.5791 21.4914C27.8696 22.7161 26.7658 23.6247 25.465 24.0988V16.5531C25.5044 16.1975 25.3073 15.842 24.9919 15.6444ZM27.633 11.6148C27.5936 11.5753 27.5148 11.5358 27.4359 11.4963L21.0894 7.82222C20.774 7.62469 20.3798 7.62469 20.0645 7.82222L12.2988 12.3259V9.20494C12.2988 9.16543 12.2988 9.12593 12.3383 9.12593L18.7636 5.41235C21.6413 3.75309 25.2679 4.74074 26.9235 7.62469C27.633 8.80988 27.8696 10.2321 27.633 11.6148ZM10.8403 17.1457L8.15979 15.6049C8.12037 15.6049 8.12037 15.5654 8.12037 15.5259V8.09877C8.12037 4.78025 10.8009 2.09383 14.1121 2.09383C15.5312 2.09383 16.8715 2.5679 17.9358 3.47654C17.8964 3.51605 17.8176 3.55556 17.7387 3.59506L11.3922 7.26914C11.0768 7.46667 10.8797 7.78272 10.8797 8.17778V17.1457H10.8403ZM12.2988 13.9852L15.7678 11.9704L19.2367 13.9852V17.9753L15.7678 19.9901L12.2988 17.9753V13.9852Z" fill="white"/>
</g>
<defs>
<clipPath id="clip0_79_62">
<rect width="129.73" height="32" fill="white"/>
</clipPath>
</defs>
</svg>
