<svg width="107" height="96" viewBox="0 0 107 96" fill="none" xmlns="http://www.w3.org/2000/svg">
<path d="M93.1204 48.4359C93.1204 43.1804 86.5432 38.1998 76.4591 35.1112C78.7862 24.8266 77.752 16.6442 73.1948 14.0246C72.1443 13.4101 70.9161 13.119 69.5748 13.119V16.7251C70.3182 16.7251 70.9162 16.8706 71.4171 17.1455C73.6149 18.4068 74.5684 23.2096 73.825 29.3868C73.6473 30.9068 73.3564 32.5077 73.0008 34.141C69.8334 33.3648 66.3751 32.7665 62.739 32.3784C60.5574 29.3868 58.2949 26.6701 56.0163 24.293C61.2846 19.3933 66.2297 16.7089 69.591 16.7089V13.1028C65.1469 13.1028 59.3292 16.2723 53.4468 21.7704C47.5645 16.3047 41.7468 13.1675 37.3027 13.1675V16.7736C40.6479 16.7736 45.6091 19.4418 50.8774 24.3092C48.6149 26.6863 46.3525 29.3868 44.2031 32.3784C40.5509 32.7665 37.0926 33.3648 33.9252 34.1572C33.5535 32.5401 33.2788 30.9715 33.0848 29.4676C32.3253 23.2904 33.2626 18.4877 35.4442 17.2102C35.9291 16.9191 36.5593 16.7898 37.3027 16.7898V13.1837C35.9452 13.1837 34.717 13.4748 33.6504 14.0893C29.1094 16.7089 28.0913 24.8751 30.4345 35.1274C20.3828 38.2322 13.8379 43.1966 13.8379 48.4359C13.8379 53.6914 20.4151 58.672 30.4992 61.7606C28.1721 72.0452 29.2064 80.2276 33.7636 82.8473C34.814 83.4618 36.0422 83.7528 37.3996 83.7528C41.8437 83.7528 47.6614 80.5834 53.5438 75.0853C59.4262 80.551 65.2439 83.6882 69.688 83.6882C71.0454 83.6882 72.2736 83.3971 73.3402 82.7826C77.8813 80.1629 78.8994 71.9967 76.5561 61.7445C86.5755 58.6558 93.1204 53.6753 93.1204 48.4359ZM72.0797 37.65C71.4818 39.7361 70.7384 41.8868 69.898 44.0375C69.2355 42.7438 68.5406 41.4502 67.7811 40.1565C67.0377 38.8628 66.2458 37.6015 65.454 36.3725C67.7487 36.7121 69.9627 37.1326 72.0797 37.65ZM64.6783 54.8719C63.4178 57.0549 62.1249 59.1248 60.7836 61.0491C58.3757 61.2593 55.9355 61.3725 53.4792 61.3725C51.039 61.3725 48.5987 61.2593 46.207 61.0653C44.8657 59.141 43.5567 57.0873 42.2962 54.9204C41.068 52.802 39.953 50.6513 38.9349 48.4844C39.9368 46.3176 41.068 44.1507 42.2801 42.0323C43.5406 39.8493 44.8334 37.7794 46.1747 35.8551C48.5826 35.6449 51.0228 35.5317 53.4792 35.5317C55.9194 35.5317 58.3596 35.6449 60.7513 35.8389C62.0926 37.7632 63.4016 39.8169 64.6621 41.9838C65.8903 44.1022 67.0054 46.2529 68.0235 48.4198C67.0054 50.5866 65.8903 52.7535 64.6783 54.8719ZM69.898 52.7697C70.7707 54.9366 71.5141 57.1034 72.1282 59.2056C70.0112 59.7231 67.7811 60.1597 65.4701 60.4993C66.262 59.2542 67.0538 57.9767 67.7972 56.6668C68.5406 55.3732 69.2355 54.0633 69.898 52.7697ZM53.5115 70.0239C52.0086 68.4715 50.5057 66.7412 49.0189 64.8492C50.4733 64.9139 51.9601 64.9624 53.463 64.9624C54.9821 64.9624 56.485 64.9301 57.9556 64.8492C56.5011 66.7412 54.9982 68.4715 53.5115 70.0239ZM41.4882 60.4993C39.1934 60.1597 36.9795 59.7393 34.8625 59.2218C35.4604 57.1358 36.2038 54.9851 37.0441 52.8344C37.7067 54.128 38.4016 55.4217 39.1611 56.7154C39.9207 58.009 40.6963 59.2703 41.4882 60.4993ZM53.4307 26.848C54.9336 28.4004 56.4365 30.1306 57.9233 32.0226C56.4688 31.9579 54.9821 31.9094 53.4792 31.9094C51.9601 31.9094 50.4572 31.9418 48.9866 32.0226C50.441 30.1306 51.9439 28.4004 53.4307 26.848ZM41.472 36.3725C40.6802 37.6177 39.8883 38.8952 39.145 40.205C38.4016 41.4987 37.7067 42.7923 37.0441 44.086C36.1715 41.9191 35.4281 39.7522 34.814 37.65C36.931 37.1487 39.1611 36.7121 41.472 36.3725ZM26.847 56.6183C21.1262 54.1765 17.4255 50.9747 17.4255 48.4359C17.4255 45.8971 21.1262 42.6791 26.847 40.2535C28.2367 39.6552 29.7558 39.1216 31.3234 38.6203C32.2445 41.7898 33.4565 45.0886 34.9594 48.4683C33.4727 51.8318 32.2768 55.1144 31.3718 58.2677C29.772 57.7664 28.2529 57.2166 26.847 56.6183ZM35.5412 79.7263C33.3434 78.465 32.3899 73.6623 33.1333 67.4851C33.3111 65.965 33.602 64.3641 33.9575 62.7309C37.1249 63.5071 40.5832 64.1054 44.2193 64.4935C46.4009 67.4851 48.6634 70.2018 50.942 72.5789C45.6737 77.4786 40.7287 80.1629 37.3673 80.1629C36.6401 80.1468 36.026 80.0012 35.5412 79.7263ZM73.8735 67.4042C74.633 73.5814 73.6957 78.3842 71.5141 79.6616C71.0293 79.9527 70.399 80.0821 69.6556 80.0821C66.3105 80.0821 61.3492 77.4139 56.081 72.5465C58.3434 70.1694 60.6059 67.4689 62.7552 64.4773C66.4074 64.0892 69.8657 63.4909 73.0332 62.6985C73.4048 64.3318 73.6957 65.9003 73.8735 67.4042ZM80.0952 56.6183C78.7054 57.2166 77.1864 57.7503 75.6188 58.2516C74.6977 55.0821 73.4856 51.7833 71.9827 48.4036C73.4695 45.0401 74.6654 41.7574 75.5703 38.6041C77.1702 39.1054 78.6893 39.6552 80.1114 40.2535C85.8321 42.6953 89.5328 45.8971 89.5328 48.4359C89.5167 50.9747 85.816 54.1927 80.0952 56.6183Z" fill="#61DAFB"/>
<path d="M53.4629 55.826C57.5417 55.826 60.8482 52.5173 60.8482 48.4359C60.8482 44.3545 57.5417 41.0459 53.4629 41.0459C49.3841 41.0459 46.0776 44.3545 46.0776 48.4359C46.0776 52.5173 49.3841 55.826 53.4629 55.826Z" fill="#61DAFB"/>
</svg>
