<svg width="195" height="24" viewBox="0 0 195 24" fill="none" xmlns="http://www.w3.org/2000/svg">
<g clip-path="url(#clip0_79_4)">
<path fill-rule="evenodd" clip-rule="evenodd" d="M20.0911 0C14.7394 0 11.4055 2.66341 10.0602 7.99024C12.0781 5.32683 14.4177 4.33171 17.1082 4.97561C18.6289 5.3561 19.7402 6.46829 20.9392 7.66829C22.8986 9.6878 25.1797 12 30.1513 12C35.5031 12 38.8663 9.33659 40.2115 4.00976C38.1936 6.67317 35.8541 7.66829 33.1928 6.99512C31.6721 6.61463 30.5608 5.50244 29.3617 4.30244C27.3731 2.31219 25.092 0 20.0911 0ZM10.0602 12C4.67916 12 1.34526 14.6634 0 19.9902C2.01789 17.3268 4.35747 16.3317 7.04799 16.9756C8.56871 17.3561 9.68001 18.4683 10.879 19.6683C12.8384 21.6878 15.1195 24 20.0911 24C25.4429 24 28.8061 21.3366 30.1513 16.0098C28.1335 18.6732 25.7939 19.6683 23.1034 18.9951C21.5826 18.6146 20.4713 17.5024 19.2723 16.3024C17.3129 14.3122 15.0318 12 10.0602 12Z" fill="white"/>
<path fill-rule="evenodd" clip-rule="evenodd" d="M60.3027 10.0976H56.7934V16.8585C56.7934 18.6732 57.9924 18.6439 60.3027 18.5268V21.2488C55.5943 21.8049 53.7227 20.5171 53.7227 16.8585V10.0976H51.1199V7.17075H53.7227V3.39514L56.7934 2.48782V7.17075H60.3027V10.0976ZM73.6968 7.20001H76.7383V21.2781H73.6968V19.2586C72.6148 20.7512 70.9478 21.6585 68.7545 21.6585C64.8942 21.6585 61.7065 18.4098 61.7065 14.2537C61.7065 10.0683 64.8942 6.84879 68.7545 6.84879C70.9478 6.84879 72.644 7.75611 73.6968 9.21953V7.20001ZM69.2224 18.7317C71.7667 18.7317 73.6968 16.8293 73.6968 14.2244C73.6968 11.5903 71.7667 9.71709 69.2224 9.71709C66.6781 9.71709 64.7479 11.6195 64.7479 14.2244C64.7479 16.8293 66.6781 18.7317 69.2224 18.7317ZM81.8269 5.06343C80.7448 5.06343 79.8675 4.15611 79.8675 3.13172C79.8675 2.04879 80.7448 1.20001 81.8269 1.20001C82.9089 1.20001 83.7863 2.07806 83.7863 3.13172C83.7863 4.18538 82.9089 5.06343 81.8269 5.06343ZM80.3061 21.2488V7.20001H83.3476V21.2781H80.3061V21.2488ZM86.8862 21.2488V0.702454H89.9277V21.2488H86.8862ZM109.785 7.20001H113.002L108.557 21.2781H105.574L102.62 11.7951L99.6369 21.2781H96.6247L92.1795 7.20001H95.3964L98.1454 16.9171L101.128 7.20001H104.053L107.007 16.9171L109.785 7.20001ZM116.804 5.06343C115.722 5.06343 114.844 4.15611 114.844 3.13172C114.844 2.04879 115.722 1.20001 116.804 1.20001C117.886 1.20001 118.763 2.07806 118.763 3.13172C118.763 4.18538 117.886 5.06343 116.804 5.06343ZM115.283 21.2488V7.20001H118.324V21.2781H115.283V21.2488ZM129.32 6.81953C132.479 6.81953 134.76 8.95611 134.76 12.6146V21.2488H131.718V12.9366C131.718 10.8 130.49 9.65855 128.56 9.65855C126.542 9.65855 124.963 10.8293 124.963 13.7268V21.2781H121.892V7.20001H124.963V8.98538C125.84 7.52197 127.39 6.81953 129.32 6.81953ZM149.236 1.55123H152.307V21.2488H149.236V19.2293C148.154 20.722 146.487 21.6293 144.294 21.6293C140.463 21.6293 137.246 18.3805 137.246 14.2244C137.246 10.039 140.433 6.81953 144.294 6.81953C146.487 6.81953 148.183 7.72684 149.236 9.19026V1.55123ZM144.762 18.7317C147.306 18.7317 149.236 16.8293 149.236 14.2244C149.236 11.5903 147.306 9.71709 144.762 9.71709C142.217 9.71709 140.287 11.6195 140.287 14.2244C140.287 16.8293 142.217 18.7317 144.762 18.7317ZM162.513 21.6293C158.243 21.6293 155.026 18.3805 155.026 14.2244C155.026 10.039 158.214 6.81953 162.513 6.81953C165.291 6.81953 167.689 8.25367 168.83 10.4488L166.198 11.9707C165.584 10.6537 164.18 9.80489 162.484 9.80489C159.998 9.80489 158.097 11.6781 158.097 14.2244C158.097 16.7707 159.998 18.6439 162.484 18.6439C164.18 18.6439 165.555 17.7659 166.256 16.4781L168.888 17.9707C167.689 20.1951 165.291 21.6293 162.513 21.6293ZM173.919 11.0634C173.919 13.639 181.522 12.0878 181.522 17.2976C181.522 20.1073 179.066 21.6293 175.995 21.6293C173.158 21.6293 171.14 20.3707 170.234 18.322L172.866 16.8C173.304 18.0586 174.445 18.8195 175.995 18.8195C177.34 18.8195 178.393 18.3805 178.393 17.239C178.393 14.722 170.789 16.1561 170.789 11.0927C170.789 8.45855 173.071 6.79026 175.966 6.79026C178.276 6.79026 180.206 7.87319 181.201 9.71709L178.627 11.1512C178.13 10.039 177.136 9.54148 175.966 9.54148C174.884 9.57075 173.919 10.0683 173.919 11.0634ZM186.962 11.0634C186.962 13.639 194.565 12.0878 194.565 17.2976C194.565 20.1073 192.109 21.6293 189.038 21.6293C186.201 21.6293 184.184 20.3707 183.277 18.322L185.909 16.8C186.348 18.0586 187.488 18.8195 189.038 18.8195C190.383 18.8195 191.436 18.3805 191.436 17.239C191.436 14.722 183.833 16.1561 183.833 11.0927C183.833 8.45855 186.114 6.79026 189.009 6.79026C191.319 6.79026 193.249 7.87319 194.244 9.71709L191.67 11.1512C191.173 10.039 190.179 9.54148 189.009 9.54148C187.927 9.57075 186.962 10.0683 186.962 11.0634Z" fill="white"/>
</g>
<defs>
<clipPath id="clip0_79_4">
<rect width="194.595" height="24" fill="white"/>
</clipPath>
</defs>
</svg>
