<svg width="150" height="34" viewBox="0 0 150 34" fill="none" xmlns="http://www.w3.org/2000/svg">
<g clip-path="url(#clip0_79_36)">
<path d="M75.169 8.5C69.3556 8.5 65.1645 12.308 65.1645 18.088C65.1645 23.868 69.8964 27.676 75.7098 27.676C79.2249 27.676 82.3344 26.248 84.2271 23.936L80.1713 21.556C79.0897 22.712 77.4673 23.392 75.6422 23.392C73.1411 23.392 70.9779 22.032 70.1667 19.924H84.9707C85.1059 19.312 85.1735 18.7 85.1735 18.088C85.1735 12.308 80.9824 8.5 75.169 8.5ZM70.1667 16.184C70.8427 14.076 72.6003 12.716 75.169 12.716C77.6701 12.716 79.4953 14.076 80.1713 16.184H70.1667ZM68.95 2.652L54.3488 28.152L39.68 2.652H45.1555L54.2812 18.564L63.4745 2.652H68.95ZM19.5358 0L39.0717 34H0L19.5358 0ZM106.399 18.088C106.399 21.284 108.495 23.392 111.672 23.392C113.835 23.392 115.457 22.372 116.336 20.808L120.392 23.188C118.702 25.976 115.593 27.676 111.672 27.676C105.858 27.676 101.667 23.868 101.667 18.088C101.667 12.308 105.858 8.5 111.672 8.5C115.525 8.5 118.702 10.2 120.392 12.988L116.336 15.368C115.525 13.736 113.835 12.784 111.672 12.784C108.495 12.784 106.399 14.892 106.399 18.088ZM150 2.652V27.064H145.268V2.652H150ZM132.019 8.5C126.206 8.5 122.014 12.308 122.014 18.088C122.014 23.868 126.746 27.676 132.56 27.676C136.075 27.676 139.184 26.248 141.077 23.936L137.021 21.556C135.94 22.712 134.317 23.392 132.492 23.392C129.991 23.392 127.828 22.032 127.017 19.924H141.821C141.956 19.312 142.023 18.7 142.023 18.088C142.091 12.308 137.832 8.5 132.019 8.5ZM127.017 16.184C127.693 14.076 129.45 12.716 132.019 12.716C134.588 12.716 136.345 14.076 137.021 16.184H127.017ZM100.113 9.044V14.212C99.5719 14.076 99.0311 13.94 98.4227 13.94C95.3808 13.94 93.1501 16.048 93.1501 19.244V27.132H88.4182V9.044H93.1501V13.94C93.1501 11.22 96.2596 9.044 100.113 9.044Z" fill="white"/>
</g>
<defs>
<clipPath id="clip0_79_36">
<rect width="150" height="34" fill="white"/>
</clipPath>
</defs>
</svg>
