<svg width="144" height="24" viewBox="0 0 144 24" fill="none" xmlns="http://www.w3.org/2000/svg">
<g clip-path="url(#clip0_31_1006)">
<path fill-rule="evenodd" clip-rule="evenodd" d="M38.4968 0L26.198 24H14.6697L19.7967 14.0444H19.5596C15.3513 19.5556 9.00926 23.1704 0 24V14.1926C0 14.1926 5.77897 13.8667 9.15744 10.2815H0V0H10.2836V8.47407H10.5207L14.729 0H22.5232V8.41481H22.7602L27.0871 0H38.4968Z" fill="black"/>
<path d="M105.444 21.3629H108.763V2.34073H105.444V21.3629Z" fill="black"/>
<path fill-rule="evenodd" clip-rule="evenodd" d="M87.1883 21.1555C87.8996 21.4518 88.6405 21.6 89.3814 21.6C90.6261 21.6 91.7226 21.3037 92.6709 20.7111C93.6489 20.1185 94.3898 19.2889 94.9233 18.2222C95.4567 17.1555 95.7234 15.9704 95.7234 14.6074C95.7234 13.2444 95.4567 12.0592 94.8936 10.9926C94.3305 9.92591 93.5896 9.12591 92.6117 8.53332C91.6337 7.94073 90.5075 7.64443 89.2628 7.67406C88.4627 7.67406 87.7218 7.82221 86.9809 8.14814C86.24 8.44443 85.6473 8.88888 85.1731 9.45184C85.1435 9.48147 85.1138 9.54073 85.0546 9.57036V2.34073H81.7354V21.3333H85.0249V19.5555C85.1138 19.6741 85.2027 19.7629 85.2916 19.8518C85.8251 20.4148 86.4474 20.8592 87.1883 21.1555ZM90.5668 18.0741C90.0334 18.4 89.411 18.5778 88.6997 18.5778C88.0181 18.5778 87.3661 18.4 86.8031 18.0741C86.24 17.7185 85.7658 17.2444 85.4398 16.6518C85.1138 16.0592 84.936 15.3778 84.936 14.6074C84.936 13.837 85.0842 13.1555 85.4102 12.563C85.7362 11.9704 86.2103 11.4963 86.7734 11.1407C87.3365 10.8148 87.9885 10.637 88.6701 10.637C89.3517 10.637 89.9741 10.7852 90.5372 11.1111C91.1002 11.437 91.5151 11.9111 91.8115 12.5037C92.1079 13.0963 92.256 13.7778 92.256 14.5778C92.256 15.3481 92.1079 16.0296 91.8115 16.6518C91.5448 17.2741 91.1299 17.7481 90.5668 18.0741Z" fill="black"/>
<path d="M43.2979 3.49631H47.0912L50.4697 15.8519L54.0853 3.49631H57.2266L61.1386 15.6148L64.3985 3.49631H67.8659L62.7389 21.363H59.479L55.5078 9.51112L51.8626 21.363H48.573L43.2979 3.49631Z" fill="black"/>
<path fill-rule="evenodd" clip-rule="evenodd" d="M73.4373 21.6593C72.1037 21.6593 70.9183 21.363 69.881 20.8C68.8142 20.2074 68.014 19.3778 67.3916 18.3111C66.7989 17.2444 66.5026 16.0296 66.5026 14.6963C66.5026 13.363 66.7989 12.1778 67.4213 11.1111C68.0436 10.0444 68.8734 9.21482 69.9107 8.62223C70.9776 8.02963 72.1334 7.73334 73.4373 7.73334C74.8895 7.73334 76.1638 8.05926 77.2603 8.71111C78.3569 9.36297 79.1867 10.2815 79.7201 11.4667C80.2832 12.6519 80.461 14.0148 80.3128 15.5259H69.9107C69.9403 16.1482 70.0885 16.6815 70.3552 17.1852C70.6516 17.7482 71.0961 18.163 71.6295 18.4593C72.1926 18.7556 72.7853 18.9333 73.467 18.9333C73.9708 18.9333 74.4746 18.8444 74.9191 18.6667C75.3636 18.4889 75.7489 18.2519 76.0453 17.9556C76.3713 17.6593 76.5787 17.3037 76.7269 16.9482H80.1943C79.9868 17.8667 79.5719 18.6963 78.9199 19.437C78.2976 20.1482 77.4974 20.7111 76.5491 21.1259C75.6304 21.4815 74.5931 21.6889 73.4373 21.6593ZM70.3848 12.1482C70.1774 12.4741 70.0589 12.8593 69.9699 13.2444H76.8751C76.8158 12.7407 76.6676 12.2963 76.4305 11.9111C76.1342 11.437 75.7489 11.0519 75.2451 10.8148C74.7413 10.5482 74.1782 10.4 73.5559 10.4C72.8742 10.4 72.2815 10.5482 71.7185 10.8741C71.1554 11.1704 70.7108 11.5852 70.3848 12.1482Z" fill="black"/>
<path d="M98.1832 7.97036C98.1832 6.87406 98.4203 5.92592 98.9241 5.09629C99.4279 4.23703 100.11 3.58518 100.999 3.1111C101.888 2.63703 102.955 2.39999 104.14 2.37036V5.33332C103.577 5.33332 103.103 5.45184 102.717 5.68888C102.332 5.89629 102.036 6.22221 101.828 6.63703C101.621 7.02221 101.532 7.46666 101.502 7.97036H104.081V10.7852H101.502V21.363H98.1832V10.7852H96.0494V7.97036H98.1832Z" fill="black"/>
<path fill-rule="evenodd" clip-rule="evenodd" d="M117.18 21.6296C115.816 21.6296 114.631 21.3333 113.564 20.7407C112.497 20.1481 111.667 19.3185 111.075 18.2518C110.482 17.1852 110.186 16 110.186 14.637C110.186 13.2741 110.482 12.0889 111.075 11.0222C111.667 9.95555 112.527 9.12592 113.564 8.53333C114.631 7.94074 115.846 7.64444 117.18 7.64444C118.543 7.64444 119.758 7.94074 120.825 8.53333C121.892 9.12592 122.751 9.95555 123.344 11.0222C123.937 12.0889 124.233 13.3037 124.263 14.637C124.263 15.9704 123.937 17.1852 123.344 18.2518C122.751 19.3185 121.921 20.1185 120.855 20.7407C119.758 21.3333 118.543 21.6296 117.18 21.6296ZM117.18 18.6074C117.891 18.6074 118.513 18.4593 119.076 18.1333C119.639 17.8074 120.054 17.3333 120.351 16.7407C120.647 16.1481 120.795 15.4667 120.795 14.6963C120.795 13.9259 120.647 13.2444 120.351 12.6222C120.054 12.0296 119.639 11.5556 119.076 11.2296C118.513 10.9037 117.891 10.7259 117.18 10.7259C116.468 10.7259 115.846 10.9037 115.313 11.2296C114.779 11.5556 114.364 12 114.038 12.6222C113.742 13.2148 113.594 13.8963 113.594 14.6963C113.594 15.4667 113.742 16.1481 114.038 16.7407C114.335 17.3333 114.779 17.8074 115.313 18.1333C115.846 18.4296 116.468 18.6074 117.18 18.6074Z" fill="black"/>
<path d="M127.819 7.97037H124.114L128.115 21.3333H131.346L133.983 12.8L136.828 21.3333H139.999L144 7.97037H140.651L138.399 16.2963L135.88 7.97037H132.649L130.16 16.4741L127.819 7.97037Z" fill="black"/>
</g>
<defs>
<clipPath id="clip0_31_1006">
<rect width="144" height="24" fill="white"/>
</clipPath>
</defs>
</svg>
