<svg width="52" height="40" viewBox="0 0 52 40" fill="none" xmlns="http://www.w3.org/2000/svg">
<g clip-path="url(#clip0_24_123)">
<path d="M48.1755 12.5104L45.0784 12.5093C44.7405 12.5093 44.4667 12.784 44.4665 13.1228L44.4663 13.5562H44.6812C46.0796 13.5562 46.5998 13.7875 46.5998 15.0652V16.8816L48.1739 16.8821C48.5117 16.8823 48.7855 16.6078 48.7857 16.269L48.7868 13.1241C48.7868 12.7852 48.5132 12.5106 48.1755 12.5104V12.5104ZM31.2723 17.393C31.1294 17.213 30.8592 17.1881 30.5882 17.1881H30.3851C29.7099 17.1881 29.4451 17.397 29.2957 18.0467L27.4197 25.8679C27.1856 26.8291 26.8566 27.0047 26.2937 27.0047C25.6043 27.0047 25.3284 26.8397 25.0536 25.8641L22.9288 18.0429C22.753 17.3879 22.4936 17.1881 21.8183 17.1881H21.6374C21.3648 17.1881 21.0933 17.2134 20.954 17.3957C20.8145 17.5782 20.8616 17.8507 20.9335 18.1185L23.0808 26.0075C23.4835 27.5173 23.9623 28.767 25.7512 28.767C26.0851 28.767 26.394 28.7205 26.6509 28.6335C26.1083 30.3451 25.5563 31.1 23.9287 31.2677C23.5984 31.2953 23.3837 31.3427 23.2642 31.5036C23.1399 31.6704 23.1681 31.9093 23.2126 32.1227L23.2573 32.325C23.3544 32.7928 23.52 33.0828 24.0436 33.0828C24.0986 33.0828 24.1577 33.0799 24.2212 33.0745C26.6517 32.9149 27.9539 31.6024 28.7159 28.5444L31.316 18.1129C31.3777 17.8453 31.4149 17.5728 31.2723 17.393V17.393ZM18.1938 23.402V24.9808C18.1938 26.2679 17.718 27.013 15.2861 27.013C13.6795 27.013 12.8985 26.4298 12.8985 25.2302C12.8985 23.9147 13.682 23.402 15.693 23.402H18.1938ZM15.2861 16.8561C13.9603 16.8561 13.1295 17.0229 12.8144 17.0862C12.2565 17.2078 12.0231 17.3614 12.0231 17.9978V18.1793C12.0231 18.4287 12.0599 18.6014 12.1389 18.723C12.2307 18.8645 12.3789 18.9363 12.5792 18.9363C12.6768 18.9363 12.7901 18.9199 12.9251 18.886C13.2439 18.8061 14.2624 18.6409 15.3766 18.6409C17.3777 18.6409 18.1938 19.1969 18.1938 20.5597V21.7759H15.6704C12.4265 21.7759 10.9155 22.8734 10.9155 25.2302C10.9155 27.5162 12.4758 28.7751 15.3088 28.7751C18.6755 28.7751 20.1767 27.626 20.1767 25.0488V20.5597C20.1767 18.0676 18.5771 16.8561 15.2861 16.8561V16.8561ZM8.92684 18.3681C8.92684 20.2448 8.44913 21.2619 5.92878 21.2619H2.04919V16.4183C2.04919 15.7467 2.2982 15.4969 2.96775 15.4969H5.92878C7.82758 15.4969 8.92684 15.9669 8.92684 18.3681V18.3681ZM5.92878 13.5535H2.58335C0.795662 13.5535 -0.00154114 14.3531 -0.00154114 16.1463V27.6635C-0.00154114 28.3562 0.220141 28.5785 0.91091 28.5785H1.13691C1.8275 28.5785 2.04919 28.3562 2.04919 27.6635V23.1827H5.92878C9.37327 23.1827 10.9776 21.6527 10.9776 18.3681C10.9776 15.0832 9.37327 13.5535 5.92878 13.5535V13.5535ZM48.477 9.2647L46.9148 9.26416C46.7443 9.26398 46.6063 9.12548 46.6063 8.95452L46.6068 7.3681C46.607 7.19715 46.7452 7.05882 46.9155 7.05882L48.4777 7.05937C48.6482 7.05937 48.7863 7.19805 48.7863 7.36883L48.7857 8.95524C48.7855 9.1262 48.6475 9.2647 48.477 9.2647V9.2647ZM51.5421 12.5124L49.2419 12.5115C48.991 12.5115 48.7877 12.3073 48.7879 12.0558L48.7886 9.72005C48.7888 9.4683 48.9923 9.26434 49.2431 9.26434L51.5432 9.26524C51.7942 9.26524 51.9976 9.46938 51.9976 9.72095L51.9967 12.0568C51.9967 12.3084 51.7931 12.5124 51.5421 12.5124V12.5124ZM45.0768 16.8812C44.7389 16.8812 44.4653 16.6065 44.4655 16.2677L44.4663 13.5562H44.2409C42.8424 13.5562 42.3223 13.7877 42.3223 15.0654V18.0552C42.3221 18.0615 42.3214 18.0678 42.3214 18.0741V18.7295C42.3211 18.7522 42.3196 18.7733 42.3196 18.7967V22.9742C42.3196 23.4844 42.2216 23.8907 42.0194 24.2063C41.638 24.7956 40.8831 25.0634 39.6752 25.065C38.4679 25.0634 37.7131 24.7958 37.3318 24.207C37.129 23.8912 37.0308 23.4848 37.0308 22.9742V18.7967C37.0308 18.7733 37.0295 18.7522 37.0292 18.7295V18.0741C37.0292 18.0678 37.0285 18.0615 37.0283 18.0552V15.0654C37.0283 13.7877 36.5081 13.5562 35.1097 13.5562H34.6694C33.2708 13.5562 32.7508 13.7877 32.7508 15.0654V22.9742C32.7508 24.2465 33.0368 25.3236 33.5895 26.192C34.657 27.8745 36.7248 28.7706 39.6644 28.7706C39.668 28.7706 39.6716 28.7704 39.6752 28.7704C39.679 28.7704 39.6824 28.7706 39.6862 28.7706C42.6258 28.7706 44.6936 27.8745 45.761 26.192C46.3137 25.3236 46.5998 24.2465 46.5998 22.9742V16.8817L45.0768 16.8812" fill="black"/>
</g>
<defs>
<clipPath id="clip0_24_123">
<rect width="52" height="40" fill="white"/>
</clipPath>
</defs>
</svg>
