<svg width="74" height="40" viewBox="0 0 74 40" fill="none" xmlns="http://www.w3.org/2000/svg">
<path d="M12.0824 25.1588C8.64181 25.1588 5.85349 22.3682 5.85349 18.926C5.85349 15.4835 8.64181 12.6956 12.0824 12.6956C13.295 12.6956 14.4272 13.0415 15.3837 13.6412L12.0824 18.926L18.2974 15.3362C17.6222 14.26 16.6537 13.3327 15.4827 12.6291C13.9925 11.7366 11.9196 11.1843 9.6274 11.1843C6.35771 11.1843 3.48919 12.3728 1.8895 14.1527C0.705128 15.4685 0 17.1244 0 18.9259C0 20.7286 0.705128 22.3858 1.8895 23.7024C3.49336 25.4845 6.31914 26.6661 9.5349 26.6661C12.7502 26.6661 15.5752 25.4836 17.18 23.7024C17.2679 23.6044 17.353 23.5054 17.4335 23.4027L17.1911 22.494C16.0636 24.104 14.196 25.1588 12.0824 25.1588Z" fill="black"/>
<path d="M32.6877 26.2913L30.0792 16.5574C29.6601 14.9844 28.2282 13.8283 26.5235 13.8283C26.0813 13.8283 25.6577 13.9073 25.2645 14.0503L19.6489 16.093H25.4245L26.4115 19.78C25.4542 18.9558 24.2073 18.4543 22.842 18.4543C20.1308 18.4543 17.9357 20.2716 17.9357 22.5134C17.9357 24.7554 20.1308 26.5754 22.842 26.5754C24.7937 26.5754 26.5197 25.6196 27.5844 24.1512L28.157 26.2913H32.6877ZM24.7308 24.7794C23.4802 24.7794 22.4664 23.7663 22.4664 22.5134C22.4664 21.2624 23.4802 20.2483 24.7308 20.2483C25.9814 20.2483 26.9961 21.2624 26.9961 22.5134C26.9961 23.7663 25.9814 24.7794 24.7308 24.7794Z" fill="black"/>
<path d="M43.3233 13.83C42.9811 13.83 42.6573 13.9057 42.3687 14.0412L38.7631 15.7221C38.5845 14.6484 37.6521 13.83 36.5273 13.83C36.1869 13.83 35.8623 13.9057 35.57 14.0412L31.1679 16.093H34.2629V26.2915H38.7936V17.2276C38.7936 16.6022 39.2996 16.0931 39.9267 16.0931C40.5502 16.0931 41.0598 16.6022 41.0598 17.2276V26.2915H45.5886V16.093C45.5886 14.8423 44.5739 13.83 43.3233 13.83Z" fill="black"/>
<path d="M71.7356 13.83C71.3924 13.83 71.0668 13.9057 70.7736 14.0412L67.1716 15.7221C66.994 14.6484 66.0616 13.83 64.9368 13.83C64.5964 13.83 64.2718 13.9057 63.9785 14.0412L59.5783 16.093H62.6724V26.2915H67.2022V17.2276C67.2022 16.6022 67.7091 16.0931 68.3362 16.0931C68.9615 16.0931 69.4675 16.6022 69.4675 17.2276V26.2915H74V16.093C74 14.8423 72.9843 13.83 71.7356 13.83Z" fill="black"/>
<path d="M60.3109 20.2483C60.3109 23.7931 57.4388 26.6661 53.896 26.6661C50.3505 26.6661 47.4765 23.7931 47.4765 20.2483C47.4765 16.7044 50.3505 13.83 53.896 13.83C57.4388 13.83 60.3109 16.7044 60.3109 20.2483ZM54.1615 15.7779C53.9599 15.0227 53.1838 14.5744 52.429 14.7774C51.6751 14.9795 51.2246 15.7563 51.4272 16.5114L53.6278 24.7184C53.8313 25.4744 54.6055 25.9222 55.3603 25.7223C56.1151 25.5178 56.5637 24.7415 56.3612 23.9865L54.1615 15.7779Z" fill="black"/>
</svg>
