<svg width="79" height="40" viewBox="0 0 79 40" fill="none" xmlns="http://www.w3.org/2000/svg">
<g clip-path="url(#clip0_24_209)">
<path d="M52.8977 15.2219C52.8192 15.5652 52.7184 15.8159 52.5974 15.9745C52.4758 16.1324 52.3236 16.2422 52.1392 16.3027C51.8901 16.3898 51.6435 16.3489 51.4011 16.3489H48.0362L50.745 12.6172L50.3593 12.1044L48.0468 8.90165H51.2628C51.9881 8.90165 52.1081 8.87002 52.2493 8.9669C52.3849 9.05983 52.44 9.19225 52.479 9.33163C52.5179 9.47085 52.5314 9.63059 52.5532 9.81874H52.7397L52.6125 8.16254H46.4682V8.34425L49.6879 12.7173L46.4682 17.1208V17.3024H52.7792L53.0847 15.2623L52.8977 15.2219Z" fill="black"/>
<path d="M10.2515 15.8465C10.5397 16.1773 10.8759 16.4236 11.2615 16.5845C11.6469 16.7454 12.0728 16.8262 12.5399 16.8262C12.9994 16.8262 13.4252 16.7454 13.8185 16.5845C14.211 16.4236 14.5535 16.1753 14.8454 15.8402C15.1375 15.5055 15.3657 15.0814 15.5283 14.5683C15.692 14.0556 15.7737 13.447 15.7737 12.7434C15.7737 12.1328 15.7137 11.5983 15.593 11.1405C15.4723 10.6828 15.2987 10.2843 15.0736 9.94479L10.2515 15.8465ZM14.8635 9.66525C14.5753 9.3091 14.2327 9.05273 13.8356 8.89575C13.4384 8.73876 13.0071 8.66016 12.5399 8.66016C12.0883 8.66016 11.6663 8.74079 11.2731 8.90214C10.8799 9.06302 10.5372 9.31097 10.2453 9.64609C9.95329 9.9812 9.72602 10.4048 9.56249 10.9179C9.39885 11.4311 9.31719 12.0394 9.31719 12.7434C9.31719 13.3623 9.38187 13.907 9.51028 14.3774C9.63875 14.8483 9.81548 15.2448 10.0412 15.567L14.8635 9.66525ZM8.17329 12.7434C8.17329 12.0226 8.28005 11.3805 8.49413 10.8163C8.70836 10.2522 9.00805 9.77549 9.39355 9.38536C9.77885 8.99512 10.2399 8.69845 10.7771 8.49476C11.3137 8.29154 11.9014 8.18967 12.5399 8.18967C13.6759 8.18967 14.6104 8.4865 15.3423 9.07985C15.4116 9.00354 15.4996 8.90214 15.6047 8.77476C15.7099 8.6477 15.815 8.51845 15.92 8.38697C16.0251 8.25554 16.1186 8.13066 16.2005 8.0117C16.2821 7.89299 16.3344 7.80796 16.3576 7.7572C16.4511 7.87622 16.5602 7.97757 16.6848 8.06229C16.638 8.09668 16.5679 8.16416 16.4745 8.26598C16.381 8.36785 16.2821 8.48042 16.1771 8.60297C16.072 8.72603 15.9668 8.85092 15.8617 8.97845C15.7565 9.10536 15.6686 9.21159 15.5985 9.29632C16.0189 9.6864 16.3436 10.1676 16.5733 10.74C16.8031 11.3121 16.9183 11.9802 16.9183 12.7434C16.9183 13.4642 16.8108 14.1062 16.5967 14.6701C16.3825 15.234 16.0835 15.7112 15.6982 16.101C15.3127 16.4911 14.8516 16.7814 14.3145 16.9723C13.7772 17.1632 13.1853 17.2587 12.5399 17.2587C11.4421 17.2587 10.5202 16.9831 9.77262 16.4316C9.69475 16.525 9.60379 16.6333 9.49859 16.7563C9.39355 16.8793 9.28997 16.9999 9.18872 17.1186C9.08748 17.2375 8.99636 17.3541 8.9147 17.4683C8.83283 17.5829 8.7721 17.6784 8.73402 17.7546C8.64763 17.6356 8.53937 17.5342 8.40696 17.4495C8.44587 17.4152 8.50976 17.3497 8.59916 17.2523C8.68877 17.1543 8.78607 17.0486 8.89132 16.9343C8.99636 16.8199 9.10311 16.6948 9.21194 16.559C9.32114 16.4236 9.41844 16.3047 9.50405 16.2028C9.08353 15.8215 8.7574 15.3422 8.52374 14.7656C8.29023 14.1889 8.17329 13.5149 8.17329 12.7434Z" fill="black"/>
<path d="M0.856515 6.46793C0.824629 5.63884 0.789865 4.79307 0.75145 3.93109C1.32459 3.95726 1.89424 3.97999 2.46085 3.99962C3.0273 4.01924 3.59726 4.02905 4.17024 4.02905C4.74308 4.02905 5.32245 4.01924 5.90816 3.99962C6.49377 3.97999 7.13055 3.95726 7.81814 3.93109C7.77975 4.12685 7.76073 4.32291 7.76073 4.51882C7.76073 4.71458 7.77975 4.91049 7.81814 5.10656C7.47408 5.06715 7.06052 5.03149 6.57652 4.99863C6.09252 4.96624 5.59954 4.93992 5.09637 4.9203C4.59338 4.90083 4.10967 4.88448 3.64508 4.8714C3.18019 4.85847 2.79516 4.85178 2.48954 4.85178C2.47679 5.30902 2.46707 5.74663 2.46085 6.16414C2.45432 6.58243 2.45113 7.0004 2.45113 7.41791C2.45113 7.87531 2.45432 8.29671 2.46085 8.6817C2.46707 9.0671 2.47057 9.46876 2.47057 9.88643C3.31076 9.88643 4.14155 9.87349 4.96262 9.84715C5.78416 9.82134 6.5958 9.76902 7.39803 9.69053C7.34702 9.88643 7.32136 10.0825 7.32136 10.2782C7.32136 10.4742 7.34702 10.6701 7.39803 10.8661C7.07954 10.8267 6.72001 10.7974 6.31871 10.7776C5.91788 10.7581 5.50037 10.742 5.06798 10.7289C4.63498 10.716 4.1956 10.7093 3.75015 10.7093H2.47057V12.3744C2.47057 13.2365 2.4862 14.0854 2.51808 14.9209C2.54967 15.7572 2.58489 16.5799 2.6233 17.3894C2.33028 17.3633 2.01843 17.3503 1.6873 17.3503C1.35617 17.3503 1.04432 17.3633 0.75145 17.3894C0.789865 16.5799 0.824629 15.7572 0.856515 14.9209C0.888395 14.0854 0.904187 13.2365 0.904187 12.3744V9.00497C0.904187 8.143 0.888395 7.29739 0.856515 6.46793Z" fill="black"/>
<path d="M18.4966 14.4307C18.4966 13.7388 18.506 13.1478 18.5251 12.6577C18.5443 12.168 18.5538 11.6818 18.5538 11.1985C18.5538 10.7414 18.5505 10.2452 18.5443 9.70952C18.5378 9.17425 18.5283 8.63201 18.5157 8.08365C18.834 8.1489 19.101 8.18131 19.3178 8.18131C19.5213 8.18131 19.7826 8.1489 20.1008 8.08365C20.0372 8.86713 19.9894 9.72599 19.9578 10.6598C19.9256 11.5937 19.9099 12.55 19.9099 13.5297C19.9099 14.2089 19.967 14.7281 20.0818 15.0871C20.1964 15.4462 20.3364 15.7173 20.5021 15.9C20.6802 16.109 20.9061 16.2821 21.1801 16.4193C21.4536 16.5562 21.775 16.6247 22.1444 16.6247C22.6792 16.6247 23.1248 16.5042 23.4813 16.2625C23.8375 16.0208 24.0987 15.7239 24.2643 15.371C24.3534 15.1492 24.4234 14.9597 24.4745 14.803C24.5251 14.6464 24.5667 14.4374 24.5986 14.1762C24.6302 13.9149 24.6493 13.5625 24.6558 13.1181C24.6621 12.6743 24.6654 12.067 24.6654 11.2963V9.65082C24.6654 9.36365 24.6621 9.08936 24.6558 8.82775C24.6493 8.56692 24.6399 8.31851 24.6273 8.08365C24.7673 8.10983 24.9007 8.13258 25.0283 8.15217C25.1555 8.17165 25.2891 8.18131 25.4294 8.18131C25.5694 8.18131 25.7031 8.17165 25.8307 8.15217C25.9576 8.13258 26.085 8.10983 26.2124 8.08365C26.1487 9.10214 26.1103 10.0851 26.0977 11.0318C26.085 11.9788 26.0788 12.9811 26.0788 14.039C26.0788 14.6267 26.085 15.2014 26.0977 15.7629C26.1103 16.3245 26.1296 16.8666 26.1553 17.3888C25.9004 17.3626 25.652 17.3497 25.4104 17.3497C25.1683 17.3497 24.9202 17.3626 24.6654 17.3888C24.678 17.2712 24.6877 17.1474 24.6942 17.0167C24.7005 16.8862 24.7036 16.7491 24.7036 16.6053V15.7629H24.6654C24.3343 16.3898 23.9078 16.8501 23.386 17.144C22.8635 17.4378 22.2971 17.585 21.686 17.585C20.6929 17.585 19.9128 17.3137 19.3467 16.7718C18.7797 16.2298 18.4966 15.4495 18.4966 14.4307Z" fill="black"/>
<path d="M33.6437 9.65879C33.2742 9.15625 32.7651 8.90461 32.1158 8.90461C31.2244 8.90461 30.5717 9.1857 30.158 9.74695C29.7443 10.3087 29.5375 11.0988 29.5375 12.1176V13.7826C29.5375 14.3703 29.5469 14.9873 29.5659 15.6341C29.5853 16.2805 29.6263 16.865 29.6902 17.3871C29.3972 17.361 29.1107 17.348 28.8308 17.348C28.5505 17.348 28.264 17.361 27.9714 17.3871C28.0349 16.865 28.0765 16.2805 28.0955 15.6341C28.1146 14.9873 28.1243 14.3703 28.1243 13.7826V11.7453C28.1243 11.1574 28.1146 10.5404 28.0955 9.89396C28.0765 9.24752 28.0349 8.64341 27.9714 8.08201C28.3277 8.14726 28.6142 8.17967 28.8308 8.17967C28.9326 8.17967 29.0439 8.17001 29.165 8.15053C29.2859 8.13089 29.4291 8.10819 29.5947 8.08201C29.5565 8.60435 29.5375 9.12695 29.5375 9.64913H29.5756C29.932 9.08773 30.3587 8.65339 30.8552 8.34627C31.352 8.03967 31.9439 7.8858 32.6314 7.8858C32.9877 7.8858 33.3475 7.93843 33.7106 8.04263C34.0734 8.14726 34.4012 8.32684 34.6942 8.58128C34.987 8.83609 35.2256 9.18211 35.4104 9.61973C35.5947 10.0575 35.6872 10.6158 35.6872 11.2946C35.6872 11.8563 35.6744 12.4342 35.649 13.0283C35.6234 13.6229 35.611 14.2527 35.611 14.9186V16.1923C35.611 16.4013 35.6138 16.6071 35.6204 16.8093C35.6266 17.0118 35.6363 17.2045 35.649 17.3871C35.3941 17.361 35.1266 17.348 34.847 17.348C34.5794 17.348 34.3183 17.361 34.0637 17.3871C34.0894 16.7083 34.1178 16.0094 34.1499 15.2912C34.1815 14.5729 34.1975 13.8351 34.1975 13.0774V11.8823C34.1975 10.9029 34.0127 10.162 33.6437 9.65879Z" fill="black"/>
<path d="M38.4715 12.9401C38.4715 13.7237 38.5507 14.3702 38.7102 14.8794C38.8691 15.3886 39.0732 15.7973 39.3212 16.1041C39.5697 16.411 39.8528 16.623 40.1712 16.7405C40.4894 16.8581 40.8017 16.9168 41.1072 16.9168C41.6038 16.9168 42.0303 16.7896 42.3867 16.5348C42.7429 16.2804 43.0391 15.9473 43.2747 15.5358C43.5102 15.1244 43.6821 14.6577 43.7905 14.135C43.8985 13.6128 43.9528 13.0905 43.9528 12.5677C43.9528 11.3139 43.7172 10.3576 43.2462 9.69809C42.7748 9.03855 42.0811 8.70868 41.1644 8.70868C40.706 8.70868 40.3081 8.81632 39.9707 9.03185C39.6331 9.24739 39.3528 9.54811 39.1302 9.93305C38.9077 10.3185 38.7417 10.7689 38.6339 11.2848C38.5254 11.8007 38.4715 12.3524 38.4715 12.9401ZM43.8956 15.5258C43.7934 15.7351 43.6569 15.9603 43.4849 16.2019C43.3132 16.4437 43.0964 16.669 42.8354 16.8778C42.5745 17.0868 42.2656 17.2568 41.9094 17.387C41.5525 17.5175 41.1387 17.5832 40.6679 17.5832C40.1838 17.5832 39.7094 17.4979 39.245 17.3283C38.7802 17.1587 38.3664 16.8812 38.0036 16.4957C37.6406 16.1108 37.3475 15.614 37.1251 15.007C36.9021 14.3996 36.7908 13.6719 36.7908 12.8225C36.7908 11.987 36.9116 11.2621 37.1538 10.648C37.3954 10.0343 37.7105 9.52146 38.0989 9.11035C38.4873 8.69876 38.9266 8.39211 39.4169 8.18952C39.9069 7.98718 40.4006 7.88567 40.897 7.88567C42.3102 7.88567 43.2907 8.53913 43.8382 9.84479H43.8765V7.92505C43.8765 7.42889 43.8731 6.92931 43.8669 6.42645C43.8604 5.92391 43.854 5.4438 43.8477 4.98657C43.8412 4.5295 43.835 4.09844 43.8288 3.69369C43.8222 3.28894 43.8125 2.92967 43.7999 2.61618C43.9528 2.64235 44.099 2.66523 44.2393 2.68471C44.3793 2.70433 44.5193 2.71398 44.6596 2.71398C44.7995 2.71398 44.9364 2.70433 45.0701 2.68471C45.2038 2.66523 45.3532 2.64235 45.5191 2.61618C45.4806 3.03432 45.4488 3.63825 45.4235 4.42827C45.3979 5.21845 45.3757 6.09024 45.3566 7.04349C45.3376 7.99684 45.3213 8.97658 45.3088 9.98198C45.296 10.9877 45.2898 11.9085 45.2898 12.7443C45.2898 13.6453 45.296 14.4553 45.3088 15.1734C45.3213 15.8918 45.3341 16.63 45.3469 17.387C45.0923 17.3608 44.8439 17.3479 44.6023 17.3479C44.3731 17.3479 44.1309 17.3608 43.8765 17.387L43.9337 15.5258H43.8956Z" fill="black"/>
<path d="M58.4696 9.47287C58.2852 9.40747 58.0971 9.37474 57.906 9.37474C57.6005 9.37474 57.3268 9.44684 57.0852 9.59027C56.8431 9.73401 56.6395 9.92663 56.4743 10.1683C56.3086 10.4101 56.1808 10.6972 56.0919 11.0302C56.0026 11.3631 55.9579 11.7193 55.9579 12.0977V14.2527C55.9579 15.1279 55.9616 15.7974 55.9678 16.2609C55.974 16.7247 55.9964 17.1002 56.0348 17.3871C55.7797 17.361 55.5252 17.348 55.2706 17.348C54.9906 17.348 54.7231 17.361 54.4686 17.3871C54.507 16.9436 54.5288 16.3392 54.5351 15.5751C54.5413 14.811 54.5449 13.8741 54.5449 12.7639V12.1371C54.5449 11.6276 54.5413 11.0401 54.5351 10.3738C54.5288 9.70783 54.507 8.94383 54.4686 8.08201C54.6083 8.10819 54.7418 8.13089 54.8696 8.15053C54.9969 8.17001 55.1304 8.17967 55.2706 8.17967C55.3855 8.17967 55.506 8.17001 55.6338 8.15053C55.7605 8.13089 55.8945 8.10819 56.0348 8.08201C55.9834 8.55214 55.9548 8.92419 55.9486 9.19843C55.9423 9.47287 55.9392 9.73401 55.9392 9.98211L55.9771 10.0017C56.7283 8.59126 57.5688 7.8858 58.4982 7.8858C58.613 7.8858 58.7117 7.89282 58.7943 7.9057C58.8769 7.91879 58.9818 7.95152 59.1096 8.00352C59.0457 8.16019 59.0073 8.39863 58.9948 8.71848C58.9818 9.03869 58.9756 9.32928 58.9756 9.59027L58.8421 9.68825C58.7782 9.61006 58.654 9.53827 58.4696 9.47287Z" fill="black"/>
<path d="M13.3291 22.9939C13.2972 22.1647 13.2624 21.3189 13.224 20.4568C13.3894 20.4832 13.5488 20.5059 13.7016 20.5255C13.8543 20.545 14.0072 20.5549 14.1599 20.5549C14.3126 20.5549 14.4655 20.545 14.6182 20.5255C14.771 20.5059 14.9301 20.4832 15.0959 20.4568C15.0575 21.3189 15.0223 22.1647 14.9907 22.9939C14.9588 23.8233 14.9432 24.6687 14.9432 25.5308C14.9432 27.1763 14.9494 28.6034 14.9621 29.8112C14.9747 31.0193 14.9875 32.1002 15.0004 33.0534C15.9044 33.0534 16.7699 33.0435 17.5978 33.024C18.4252 33.0044 19.3166 32.9293 20.2717 32.7987C20.2077 33.0339 20.1761 33.2298 20.1761 33.3864C20.1761 33.5303 20.2077 33.7066 20.2717 33.9153C19.6857 33.889 19.1001 33.8762 18.5145 33.8762H14.9907C14.4242 33.8762 13.8352 33.889 13.224 33.9153C13.2624 33.1058 13.2972 32.2829 13.3291 31.4469C13.3608 30.6113 13.3768 29.7622 13.3768 28.9002V25.5308C13.3768 24.6687 13.3608 23.8233 13.3291 22.9939Z" fill="black"/>
<path d="M21.4725 28.2756C21.4725 27.6879 21.4629 27.0711 21.4438 26.4246C21.4247 25.778 21.3832 25.1739 21.3197 24.6124C21.6759 24.6778 21.9624 24.7102 22.179 24.7102C22.3956 24.7102 22.6821 24.6778 23.0385 24.6124C22.9748 25.1739 22.9335 25.778 22.9145 26.4246C22.8954 27.0711 22.8858 27.6879 22.8858 28.2756V30.313C22.8858 30.9008 22.8954 31.5178 22.9145 32.1646C22.9335 32.8109 22.9748 33.3954 23.0385 33.9176C22.7456 33.8913 22.4591 33.8786 22.179 33.8786C21.899 33.8786 21.6125 33.8913 21.3197 33.9176C21.3832 33.3954 21.4247 32.8109 21.4438 32.1646C21.4629 31.5178 21.4725 30.9008 21.4725 30.313V28.2756ZM21.205 21.2037C21.205 20.9295 21.3006 20.6945 21.4916 20.4982C21.6824 20.3025 21.9119 20.2047 22.179 20.2047C22.4464 20.2047 22.6757 20.3025 22.8667 20.4982C23.0576 20.6945 23.1532 20.9295 23.1532 21.2037C23.1532 21.478 23.0576 21.7129 22.8667 21.9089C22.6757 22.1049 22.4464 22.2028 22.179 22.2028C21.9119 22.2028 21.6824 22.1049 21.4916 21.9089C21.3006 21.7129 21.205 21.478 21.205 21.2037Z" fill="black"/>
<path d="M30.6037 27.5117C30.6037 26.689 30.4128 26.0622 30.0307 25.6312C29.6489 25.2001 29.1456 24.9847 28.5219 24.9847C27.8345 24.9847 27.2997 25.2231 26.9178 25.6997C26.5357 26.1765 26.3447 26.8135 26.3447 27.6099C26.3447 28.4326 26.5197 29.0825 26.87 29.5592C27.2199 30.036 27.7643 30.2741 28.5029 30.2741C28.8721 30.2741 29.1872 30.1991 29.4483 30.0488C29.7093 29.8988 29.9258 29.6962 30.0975 29.4415C30.2695 29.1867 30.3966 28.8931 30.4796 28.5598C30.5622 28.2267 30.6037 27.8777 30.6037 27.5117ZM31.6352 35.9944C31.6352 35.211 31.4121 34.6623 30.9665 34.3488C30.5206 34.0354 29.7826 33.8787 28.7513 33.8787C27.7965 33.8787 27.0577 34.0383 26.5357 34.3587C26.0136 34.6787 25.7526 35.2565 25.7526 36.0923C25.7526 36.5363 25.8258 36.915 25.9723 37.2285C26.1185 37.542 26.316 37.7967 26.5644 37.9925C26.8128 38.1886 27.1087 38.332 27.4524 38.4235C27.7965 38.5148 28.1654 38.5608 28.5603 38.5608C28.9421 38.5608 29.3174 38.5084 29.687 38.4039C30.056 38.2993 30.3841 38.1424 30.6706 37.9338C30.9571 37.7249 31.1893 37.4602 31.3677 37.1403C31.5458 36.8202 31.6352 36.4381 31.6352 35.9944ZM24.855 27.6099C24.855 27.0612 24.9505 26.5881 25.1415 26.1895C25.3325 25.7914 25.5967 25.4616 25.9342 25.2001C26.2714 24.9392 26.66 24.7433 27.099 24.6125C27.5383 24.4822 28.0063 24.4166 28.5029 24.4166C28.7447 24.4166 28.977 24.4234 29.1999 24.4364C29.4228 24.4495 29.7061 24.4691 30.0498 24.4951C30.3425 24.5212 30.6037 24.5407 30.8328 24.5537C31.062 24.5667 31.2465 24.5733 31.3868 24.5733C32.0998 24.5733 32.6154 24.5407 32.9338 24.4755C32.921 24.5407 32.9116 24.6094 32.9053 24.6812C32.8985 24.753 32.8956 24.8215 32.8956 24.8868C32.8956 24.9523 32.8985 25.0208 32.9053 25.0923C32.9116 25.1644 32.921 25.2331 32.9338 25.2982C32.5644 25.2722 32.2048 25.2428 31.8548 25.21C31.5043 25.1777 31.1577 25.1546 30.8138 25.1414L30.7755 25.1805C31.1703 25.403 31.4885 25.7458 31.7305 26.2091C31.9723 26.6727 32.0936 27.1528 32.0936 27.6489C32.0936 28.6285 31.7717 29.396 31.129 29.9507C30.4859 30.5062 29.6231 30.7834 28.541 30.7834C28.3626 30.7834 28.1878 30.777 28.016 30.7637C27.8439 30.751 27.6689 30.7443 27.4908 30.7443C27.2614 30.7443 27.0481 30.8295 26.8509 30.9991C26.6532 31.1689 26.5546 31.3842 26.5546 31.6455C26.5546 31.9851 26.6341 32.2331 26.7935 32.3897C26.9525 32.5464 27.2487 32.6316 27.6817 32.6445C28.0379 32.6576 28.3883 32.6676 28.7321 32.674C29.0759 32.6806 29.4258 32.6903 29.7826 32.7032C30.3679 32.7165 30.8678 32.7883 31.2817 32.9188C31.6955 33.0496 32.033 33.2259 32.2941 33.4476C32.5548 33.67 32.7456 33.9242 32.867 34.2116C32.9878 34.4988 33.0484 34.8123 33.0484 35.152C33.0484 35.609 32.9624 36.0728 32.7906 36.543C32.6187 37.0131 32.3513 37.4375 31.9885 37.8162C31.6254 38.1951 31.1577 38.5084 30.5847 38.7565C30.0116 39.0046 29.3243 39.1289 28.5219 39.1289C27.2867 39.1289 26.3128 38.8772 25.5998 38.3745C24.8865 37.8718 24.5302 37.1827 24.5302 36.308C24.5302 35.968 24.5906 35.6545 24.7118 35.3676C24.8328 35.0802 24.9886 34.8254 25.1796 34.6036C25.3709 34.3812 25.5871 34.2049 25.8292 34.0744C26.0708 33.9438 26.3192 33.8463 26.5741 33.7806V33.7415C26.1792 33.6239 25.8798 33.428 25.6764 33.1538C25.4723 32.8797 25.3709 32.5534 25.3709 32.1743C25.3709 31.9525 25.4119 31.75 25.4947 31.567C25.5773 31.3842 25.6826 31.2211 25.8101 31.0772C25.937 30.9337 26.0835 30.8161 26.2492 30.7247C26.4145 30.6334 26.5741 30.5747 26.7269 30.5484V30.5091C26.1409 30.2481 25.6826 29.8792 25.3517 29.4023C25.0203 28.9258 24.855 28.3284 24.855 27.6099Z" fill="black"/>
<path d="M34.322 23.3393C34.3154 22.8169 34.3057 22.301 34.2931 21.7916C34.2804 21.282 34.2647 20.7959 34.2455 20.3323C34.2263 19.8686 34.2042 19.4736 34.1788 19.147C34.5351 19.2124 34.8216 19.2448 35.0381 19.2448C35.2546 19.2448 35.5408 19.2124 35.8976 19.147C35.8719 19.4736 35.8498 19.8652 35.8308 20.3223C35.8117 20.7795 35.7954 21.2596 35.783 21.7622C35.7701 22.2651 35.7605 22.7712 35.7541 23.2804C35.7476 23.7896 35.7449 24.2598 35.7449 24.6909V26.1798H35.783C36.1392 25.6182 36.5659 25.1841 37.0625 24.8771C37.5592 24.5704 38.1513 24.4166 38.8388 24.4166C39.195 24.4166 39.5549 24.4691 39.9179 24.5733C40.2806 24.6779 40.6086 24.8575 40.9015 25.112C41.1943 25.3667 41.433 25.7129 41.6178 26.1504C41.8021 26.5881 41.8945 27.1465 41.8945 27.8253C41.8945 28.387 41.8818 28.9649 41.8564 29.5592C41.8308 30.1535 41.8182 30.7834 41.8182 31.4495V32.723C41.8182 32.9319 41.821 33.1377 41.8276 33.3399C41.834 33.5425 41.8435 33.7351 41.8564 33.9178C41.6015 33.8915 41.334 33.8787 41.0543 33.8787C40.7868 33.8787 40.5257 33.8915 40.2711 33.9178C40.2966 33.239 40.3251 32.5401 40.3571 31.8218C40.3889 31.1036 40.4048 30.3657 40.4048 29.6081V28.413C40.4048 27.4336 40.2201 26.6926 39.8511 26.1895C39.4815 25.6869 38.9725 25.4354 38.3232 25.4354C37.4318 25.4354 36.7791 25.7164 36.3654 26.2776C35.9516 26.8393 35.7449 27.6294 35.7449 28.6482C35.7449 29.014 35.7476 29.4385 35.7541 29.9216C35.7605 30.4048 35.7701 30.891 35.783 31.3811C35.7954 31.8707 35.8117 32.3441 35.8308 32.8012C35.8498 33.2585 35.8719 33.6309 35.8976 33.9178C35.6046 33.8915 35.3181 33.8787 35.0381 33.8787C34.7579 33.8787 34.4714 33.8915 34.1788 33.9178C34.2042 33.6176 34.2263 33.239 34.2455 32.7816C34.2647 32.3247 34.2804 31.8413 34.2931 31.332C34.3057 30.8225 34.3154 30.3069 34.322 29.7844C34.3282 29.2622 34.3315 28.7787 34.3315 28.3348V24.789C34.3315 24.345 34.3282 23.8617 34.322 23.3393Z" fill="black"/>
<path d="M53.9912 26.1895C53.6213 25.6869 53.1122 25.4354 52.4629 25.4354C51.5716 25.4354 50.919 25.7163 50.5052 26.2776C50.0915 26.8393 49.8847 27.6294 49.8847 28.6482V30.3132C49.8847 30.9009 49.8941 31.518 49.9132 32.1647C49.9325 32.811 49.9735 33.3956 50.0374 33.9178C49.7444 33.8914 49.4579 33.8787 49.178 33.8787C48.8977 33.8787 48.6112 33.8914 48.3188 33.9178C48.3822 33.3956 48.4237 32.811 48.4428 32.1647C48.4618 31.518 48.4715 30.9009 48.4715 30.3132V28.2758C48.4715 27.6881 48.4618 27.0712 48.4428 26.4248C48.4237 25.7782 48.3822 25.1741 48.3188 24.6125C48.675 24.6779 48.9615 24.7103 49.178 24.7103C49.2798 24.7103 49.3911 24.7008 49.5123 24.6812C49.6331 24.6616 49.7763 24.6388 49.942 24.6125C49.9038 25.135 49.8847 25.6576 49.8847 26.1798H49.9228C50.2792 25.6182 50.7059 25.1841 51.2024 24.8771C51.6992 24.5703 52.2914 24.4166 52.9787 24.4166C53.3351 24.4166 53.6945 24.4691 54.0577 24.5733C54.4208 24.6779 54.7486 24.8575 55.0416 25.112C55.334 25.3667 55.573 25.7129 55.7574 26.1503C55.9418 26.5881 56.0343 27.1464 56.0343 27.8252C56.0343 28.387 56.0218 28.9649 55.9964 29.5592C55.9709 30.1535 55.9579 30.7834 55.9579 31.4495V32.723C55.9579 32.9318 55.961 33.1377 55.9678 33.3398C55.974 33.5424 55.9834 33.7351 55.9964 33.9178C55.7413 33.8914 55.4738 33.8787 55.1943 33.8787C54.9267 33.8787 54.6654 33.8914 54.4109 33.9178C54.4364 33.239 54.4649 32.54 54.4971 31.8218C54.5288 31.1035 54.5444 30.3657 54.5444 29.6081V28.413C54.5444 27.4336 54.36 26.6926 53.9912 26.1895Z" fill="black"/>
<path d="M57.8977 28.2756C57.8977 27.6879 57.8878 27.0711 57.8686 26.4246C57.8499 25.778 57.8083 25.1739 57.7449 24.6124C58.1008 24.6778 58.3875 24.7102 58.6042 24.7102C58.8208 24.7102 59.107 24.6778 59.4634 24.6124C59.4 25.1739 59.3584 25.778 59.3397 26.4246C59.3205 27.0711 59.3106 27.6879 59.3106 28.2756V30.313C59.3106 30.9008 59.3205 31.5178 59.3397 32.1646C59.3584 32.8109 59.4 33.3954 59.4634 33.9176C59.1704 33.8913 58.8842 33.8786 58.6042 33.8786C58.3242 33.8786 58.0374 33.8913 57.7449 33.9176C57.8083 33.3954 57.8499 32.8109 57.8686 32.1646C57.8878 31.5178 57.8977 30.9008 57.8977 30.313V28.2756ZM57.6301 21.2037C57.6301 20.9295 57.7257 20.6945 57.9164 20.4982C58.1075 20.3025 58.3366 20.2047 58.6042 20.2047C58.8717 20.2047 59.1008 20.3025 59.2919 20.4982C59.4826 20.6945 59.5782 20.9295 59.5782 21.2037C59.5782 21.478 59.4826 21.7129 59.2919 21.9089C59.1008 22.1049 58.8717 22.2028 58.6042 22.2028C58.3366 22.2028 58.1075 22.1049 57.9164 21.9089C57.7257 21.7129 57.6301 21.478 57.6301 21.2037Z" fill="black"/>
<path d="M66.8592 26.1895C66.4893 25.6869 65.9803 25.4354 65.3309 25.4354C64.4395 25.4354 63.787 25.7163 63.3735 26.2776C62.9595 26.8393 62.7527 27.6294 62.7527 28.6482V30.3132C62.7527 30.9009 62.7621 31.518 62.7813 32.1647C62.8005 32.811 62.8416 33.3956 62.9055 33.9178C62.6125 33.8914 62.3262 33.8787 62.0457 33.8787C61.7657 33.8787 61.4795 33.8914 61.1865 33.9178C61.2504 33.3956 61.292 32.811 61.3107 32.1647C61.3299 31.518 61.3392 30.9009 61.3392 30.3132V28.2758C61.3392 27.6881 61.3299 27.0712 61.3107 26.4248C61.292 25.7782 61.2504 25.1741 61.1865 24.6125C61.5429 24.6779 61.8296 24.7103 62.0457 24.7103C62.1475 24.7103 62.2592 24.7008 62.3803 24.6812C62.5013 24.6616 62.6442 24.6388 62.8099 24.6125C62.7719 25.135 62.7527 25.6576 62.7527 26.1798H62.7907C63.147 25.6182 63.574 25.1841 64.0701 24.8771C64.5673 24.5703 65.159 24.4166 65.8468 24.4166C66.2031 24.4166 66.5626 24.4691 66.9257 24.5733C67.2883 24.6779 67.6161 24.8575 67.9096 25.112C68.2021 25.3667 68.441 25.7129 68.6255 26.1503C68.8099 26.5881 68.9023 27.1464 68.9023 27.8252C68.9023 28.387 68.8899 28.9649 68.8644 29.5592C68.839 30.1535 68.8265 30.7834 68.8265 31.4495V32.723C68.8265 32.9318 68.8291 33.1377 68.8353 33.3398C68.8421 33.5424 68.8514 33.7351 68.8644 33.9178C68.6093 33.8914 68.3418 33.8787 68.0623 33.8787C67.7948 33.8787 67.5335 33.8914 67.279 33.9178C67.3044 33.239 67.333 32.54 67.3652 31.8218C67.3969 31.1035 67.413 30.3657 67.413 29.6081V28.413C67.413 27.4336 67.2281 26.6926 66.8592 26.1895Z" fill="black"/>
<path d="M75.7039 27.5117C75.7039 26.689 75.5127 26.0622 75.1304 25.6312C74.7486 25.2001 74.2457 24.9847 73.6218 24.9847C72.9345 24.9847 72.3995 25.2231 72.0177 25.6997C71.6358 26.1765 71.4447 26.8135 71.4447 27.6099C71.4447 28.4326 71.6197 29.0825 71.9699 29.5592C72.32 30.036 72.8644 30.2741 73.6026 30.2741C73.9719 30.2741 74.2873 30.1991 74.5486 30.0488C74.8093 29.8988 75.0255 29.6962 75.1974 29.4415C75.3694 29.1867 75.4966 28.8931 75.5797 28.5598C75.6623 28.2267 75.7039 27.8777 75.7039 27.5117ZM76.7351 35.9944C76.7351 35.211 76.5122 34.6623 76.0665 34.3488C75.6208 34.0354 74.8826 33.8787 73.8514 33.8787C72.8961 33.8787 72.1579 34.0383 71.6358 34.3587C71.1132 34.6787 70.8525 35.2565 70.8525 36.0923C70.8525 36.5363 70.9257 36.915 71.0722 37.2285C71.2187 37.542 71.4161 37.7967 71.6644 37.9925C71.9127 38.1886 72.2088 38.332 72.5522 38.4235C72.8961 38.5148 73.2655 38.5608 73.6603 38.5608C74.0421 38.5608 74.4171 38.5084 74.787 38.4039C75.1558 38.2993 75.4842 38.1424 75.7704 37.9338C76.0571 37.7249 76.2893 37.4602 76.4675 37.1403C76.6457 36.8202 76.7351 36.4381 76.7351 35.9944ZM69.9548 27.6099C69.9548 27.0612 70.0504 26.5881 70.2416 26.1895C70.4322 25.7914 70.6966 25.4616 71.0343 25.2001C71.3714 24.9392 71.76 24.7433 72.199 24.6125C72.6384 24.4822 73.1065 24.4166 73.6026 24.4166C73.8447 24.4166 74.0769 24.4234 74.2997 24.4364C74.5226 24.4495 74.8062 24.4691 75.1496 24.4951C75.4426 24.5212 75.7039 24.5407 75.9325 24.5537C76.1621 24.5667 76.3465 24.5733 76.4868 24.5733C77.1995 24.5733 77.7153 24.5407 78.0332 24.4755C78.0208 24.5407 78.0114 24.6094 78.0052 24.6812C77.9984 24.753 77.9953 24.8215 77.9953 24.8868C77.9953 24.9523 77.9984 25.0208 78.0052 25.0923C78.0114 25.1644 78.0208 25.2331 78.0332 25.2982C77.6644 25.2722 77.3049 25.2428 76.9548 25.21C76.6042 25.1777 76.2577 25.1546 75.9138 25.1414L75.8758 25.1805C76.2701 25.403 76.5886 25.7458 76.8307 26.2091C77.0722 26.6727 77.1932 27.1528 77.1932 27.6489C77.1932 28.6285 76.8717 29.396 76.2291 29.9507C75.586 30.5062 74.7231 30.7834 73.641 30.7834C73.4623 30.7834 73.2878 30.777 73.1158 30.7637C72.9439 30.751 72.7688 30.7443 72.5906 30.7443C72.3616 30.7443 72.1481 30.8295 71.9507 30.9991C71.7532 31.1689 71.6545 31.3842 71.6545 31.6455C71.6545 31.9851 71.734 32.2331 71.8935 32.3897C72.0525 32.5464 72.3486 32.6316 72.7818 32.6445C73.1377 32.6576 73.4883 32.6676 73.8322 32.674C74.1756 32.6806 74.5257 32.6903 74.8826 32.7032C75.4681 32.7165 75.9678 32.7883 76.3818 32.9188C76.7953 33.0496 77.133 33.2259 77.3938 33.4476C77.6545 33.67 77.8457 33.9242 77.9668 34.2116C78.0878 34.4988 78.1481 34.8123 78.1481 35.152C78.1481 35.609 78.0623 36.0728 77.8904 36.543C77.7184 37.0131 77.4514 37.4375 77.0883 37.8162C76.7252 38.1951 76.2577 38.5084 75.6847 38.7565C75.1117 39.0046 74.4244 39.1289 73.6218 39.1289C72.3865 39.1289 71.413 38.8772 70.6997 38.3745C69.9865 37.8718 69.6301 37.1827 69.6301 36.308C69.6301 35.968 69.6904 35.6545 69.8119 35.3676C69.933 35.0802 70.0888 34.8254 70.2795 34.6036C70.4706 34.3812 70.6868 34.2049 70.9294 34.0744C71.1709 33.9438 71.4192 33.8463 71.6738 33.7806V33.7415C71.279 33.6239 70.9797 33.428 70.7761 33.1538C70.5725 32.8797 70.4707 32.5534 70.4707 32.1743C70.4707 31.9525 70.5117 31.75 70.5948 31.567C70.6774 31.3842 70.7829 31.2211 70.9101 31.0772C71.0369 30.9337 71.1834 30.8161 71.3491 30.7247C71.5143 30.6334 71.6738 30.5747 71.8265 30.5484V30.5091C71.241 30.2481 70.7829 29.8792 70.4514 29.4023C70.12 28.9258 69.9548 28.3284 69.9548 27.6099Z" fill="black"/>
<path d="M9.04899 26.7053V27.5321H0.75145L0.761621 26.7053H9.04899Z" fill="black"/>
<path d="M4.50107 22.8643H5.30728V31.3753L4.50107 31.3648V22.8643Z" fill="black"/>
<path d="M16.1829 7.59918L16.8955 8.21482L8.90515 17.9446L8.20239 17.3172L16.1829 7.59918Z" fill="black"/>
<path d="M47.0194 25.4746L47.4768 26.207L43.0167 29.1383L42.5646 28.4022L47.0194 25.4746Z" fill="black"/>
<path d="M43.5344 28.6262C43.3139 28.773 43.1598 28.8749 43.071 28.9313C43.0274 28.8409 42.9831 28.7559 42.9394 28.6768C42.895 28.5976 42.8343 28.5187 42.7574 28.4392C42.9776 28.3033 43.2174 28.1568 43.4767 27.9983C43.7352 27.8402 43.9921 27.676 44.2452 27.5063V25.8267C44.2452 25.4425 44.243 25.0241 44.2375 24.5716C44.232 24.1196 44.2234 23.6723 44.2126 23.2315C44.2017 22.7901 44.1877 22.3693 44.1713 21.9676C44.1549 21.5662 44.1354 21.2239 44.1136 20.9413C44.4219 20.998 44.6696 21.0263 44.8572 21.0263C45.0449 21.0263 45.2932 20.998 45.6016 20.9413C45.5797 21.2239 45.5603 21.5662 45.5441 21.9676C45.5277 22.3693 45.5136 22.7901 45.5028 23.2315C45.491 23.6723 45.4832 24.1196 45.4779 24.5716C45.4723 25.0241 45.4692 25.4425 45.4692 25.8267V26.6921C45.7122 26.5339 45.9294 26.3899 46.1225 26.2597C46.3156 26.1295 46.4947 26.0024 46.6598 25.8778C46.6598 25.9685 46.6901 26.0616 46.751 26.1576C46.8117 26.2541 46.8809 26.336 46.958 26.4037C46.8256 26.4945 46.6357 26.6102 46.3873 26.7516C46.1389 26.893 45.8336 27.0823 45.4692 27.3199V28.8971C45.4692 29.2818 45.4723 29.7002 45.4779 30.1527C45.4832 30.6052 45.491 31.0517 45.5028 31.4929C45.5136 31.9338 45.5277 32.3522 45.5441 32.7481C45.5603 33.1441 45.5797 33.472 45.6016 33.732C45.3478 33.7092 45.1002 33.698 44.8572 33.698C44.6151 33.698 44.3667 33.7092 44.1136 33.732C44.1354 33.472 44.1549 33.1441 44.1713 32.7481C44.1877 32.3522 44.2017 31.9338 44.2126 31.4929C44.2234 31.0517 44.232 30.6052 44.2375 30.1527C44.243 29.7002 44.2452 29.2818 44.2452 28.8971V28.1509C43.9921 28.3206 43.7547 28.4792 43.5344 28.6262Z" fill="black"/>
</g>
<defs>
<clipPath id="clip0_24_209">
<rect width="78.961" height="40" fill="white"/>
</clipPath>
</defs>
</svg>
