<svg width="176" height="40" viewBox="0 0 176 40" fill="none" xmlns="http://www.w3.org/2000/svg">
<g clip-path="url(#clip0_24_168)">
<path d="M14.4583 6C6.74069 6 0.458328 12.2824 0.458328 20C0.458328 27.7176 6.74069 34 14.4583 34C22.176 34 28.4583 27.7176 28.4583 20C28.4583 12.2824 22.176 6 14.4583 6ZM15.2611 11.4553C16.8545 10.689 19.0378 10.987 20.2298 12.1242C20.8623 12.7324 21.2698 13.5778 21.4462 14.6542C21.5435 15.2685 21.5495 15.901 21.4583 16.5334C21.2333 18.0599 20.4731 19.3736 19.3662 20.1399C18.6486 20.6386 17.9553 20.8697 17.1768 20.8697H16.7754C16.8667 20.7845 16.9457 20.669 16.9457 20.2676C16.9457 20.1581 16.9396 19.9149 16.9275 19.5804C16.8849 18.1025 16.7876 14.636 17.0613 13.4014C17.1099 13.1825 17.2012 12.7689 17.0065 12.6169C16.9092 12.5439 16.7937 12.5256 16.6842 12.5135C16.1794 12.4709 15.7111 12.6229 15.3949 12.9149C15.2124 13.0851 15.2185 13.2798 15.2246 13.4683C15.2246 13.4987 15.2246 13.5291 15.2246 13.5595V20.6629C15.2246 20.7541 15.1942 20.8758 14.9388 20.8758H12.3845C12.4757 20.7906 12.5548 20.6751 12.5548 20.2737C12.5548 20.1034 12.5548 18.1877 12.5548 18.1755C12.5548 18.139 12.5548 18.1451 12.5548 18.1573C12.6521 16.0712 12.9501 12.556 15.2429 11.4492L15.2611 11.4553ZM17.3349 32.0904C16.8971 32.2302 16.7998 32.0295 16.7937 31.8288C16.6477 29.3658 16.6964 24.8167 16.7633 22.7246C16.7633 22.5847 16.8849 22.4752 17.0248 22.4752H17.2437C18.4905 22.4752 19.7372 22.1772 20.7893 21.5022C23.5018 19.775 24.3958 16.3997 23.1308 13.6142C22.9483 13.2129 22.7233 12.8297 22.4618 12.4831C21.4948 11.1877 20.0109 10.2937 18.3932 10.0321C17.7546 9.92876 17.1099 9.92876 16.4835 10.0321C14.3853 10.3606 12.5 11.8323 11.679 13.7845C10.9674 15.4752 10.8336 17.7194 11.2837 20.6325C11.2959 20.7055 11.308 20.7906 11.2837 20.821C11.2715 20.8332 11.235 20.8575 11.1134 20.8454C10.3532 20.7785 9.52001 20.8089 8.63209 20.9427C7.65902 21.0886 6.86232 21.4778 6.26024 22.1043C5.71897 22.6638 5.3784 23.351 5.27501 24.093C5.10472 25.2971 5.49395 26.4709 6.34538 27.3223C7.06302 28.04 8.01176 28.4353 9.02131 28.4353C9.20984 28.4353 9.39229 28.4231 9.58083 28.3927C11.0952 28.1738 12.8953 27.1642 12.8953 23.5699C12.8953 23.5213 12.8771 23.4787 12.8406 23.4483C12.8041 23.4179 12.7555 23.4057 12.7068 23.4118L11.4601 23.6612C11.3445 23.6855 11.2594 23.7889 11.2594 23.9044C11.2594 24.0017 11.2594 24.099 11.2594 24.1964C11.2654 25.066 11.2776 26.0573 10.7546 26.7446C10.0978 27.6021 8.7598 27.8697 7.70159 27.3527C6.92922 26.9757 6.37579 26.2155 6.24807 25.364C6.08387 24.2328 6.69204 23.0895 7.6651 22.7003C8.25502 22.4692 8.89968 22.4692 9.53217 22.4752H15.1516C15.0604 22.5543 14.9753 22.6759 14.9753 23.0712C14.9753 23.126 15.1699 31.5308 15.1699 31.9018C15.1699 32.4309 14.7016 32.4309 14.4705 32.4309C7.39143 32.4309 1.67466 26.4831 2.05781 19.3249C2.38013 13.0547 7.51306 7.92181 13.7833 7.58732C20.9414 7.20417 26.8892 12.9209 26.8892 20C26.8892 25.9175 22.7598 30.3936 17.3349 32.0904Z" fill="black"/>
</g>
<path d="M175.105 17.1276V17.501C174.869 17.5383 174.651 17.6627 174.452 17.8743C174.253 18.0734 174.06 18.4218 173.873 18.9196L170.961 26.7223L170.513 27.1703L166.873 18.565C166.637 18.0796 166.407 17.7872 166.183 17.6876C165.971 17.5756 165.791 17.5196 165.641 17.5196V17.1276C165.952 17.165 166.282 17.1961 166.631 17.221C166.979 17.2334 167.34 17.2396 167.713 17.2396C168.136 17.2396 168.559 17.2272 168.983 17.2023C169.418 17.1774 169.823 17.1525 170.196 17.1276V17.5196C169.897 17.5196 169.63 17.5445 169.393 17.5943C169.169 17.6316 169.02 17.7498 168.945 17.949C168.883 18.1356 168.945 18.4592 169.132 18.9196L171.447 24.613L171.316 24.669L173.201 19.6663C173.388 19.1685 173.463 18.7703 173.425 18.4716C173.388 18.1605 173.257 17.9303 173.033 17.781C172.809 17.6192 172.479 17.5258 172.044 17.501V17.1276C172.255 17.1401 172.448 17.1525 172.623 17.165C172.809 17.165 172.99 17.1712 173.164 17.1836C173.338 17.1836 173.512 17.1836 173.687 17.1836C173.96 17.1836 174.215 17.1774 174.452 17.165C174.701 17.1525 174.919 17.1401 175.105 17.1276ZM170.961 26.7223L170.289 28.477C170.165 28.7881 170.034 29.0494 169.897 29.261C169.773 29.4725 169.636 29.6467 169.487 29.7836C169.3 29.9578 169.07 30.0823 168.796 30.157C168.522 30.2316 168.248 30.269 167.975 30.269C167.713 30.269 167.464 30.2192 167.228 30.1196C167.004 30.0325 166.817 29.8956 166.668 29.709C166.519 29.5223 166.444 29.2921 166.444 29.0183C166.444 28.6947 166.55 28.4334 166.761 28.2343C166.973 28.0352 167.253 27.9356 167.601 27.9356C167.912 27.9356 168.174 28.0165 168.385 28.1783C168.597 28.3525 168.703 28.6014 168.703 28.925C168.703 29.149 168.64 29.3418 168.516 29.5036C168.404 29.6654 168.255 29.7898 168.068 29.877C168.105 29.8894 168.143 29.8956 168.18 29.8956C168.217 29.8956 168.248 29.8956 168.273 29.8956C168.622 29.8956 168.933 29.7774 169.207 29.541C169.48 29.317 169.711 28.9498 169.897 28.4396L170.569 26.6476L170.961 26.7223Z" fill="black"/>
<path d="M159.332 12.1437V18.9383C159.644 18.1668 160.079 17.6317 160.639 17.333C161.212 17.0219 161.815 16.8663 162.45 16.8663C162.948 16.8663 163.352 16.9348 163.663 17.0717C163.987 17.1961 164.254 17.3703 164.466 17.5943C164.69 17.8308 164.852 18.1357 164.951 18.509C165.051 18.8823 165.1 19.3863 165.1 20.021V25.0237C165.1 25.5463 165.2 25.901 165.399 26.0877C165.611 26.2743 165.959 26.3677 166.444 26.3677V26.7597C166.22 26.7472 165.884 26.7348 165.436 26.7223C164.988 26.6974 164.553 26.685 164.13 26.685C163.694 26.685 163.265 26.6974 162.842 26.7223C162.431 26.7348 162.126 26.7472 161.927 26.7597V26.3677C162.35 26.3677 162.649 26.2743 162.823 26.0877C162.997 25.901 163.084 25.5463 163.084 25.0237V19.4983C163.084 19.1374 163.053 18.8139 162.991 18.5277C162.929 18.229 162.792 17.9925 162.58 17.8183C162.381 17.6317 162.083 17.5383 161.684 17.5383C161.236 17.5383 160.832 17.669 160.471 17.9303C160.123 18.1792 159.843 18.5277 159.631 18.9757C159.432 19.4237 159.332 19.9339 159.332 20.5063V25.0237C159.332 25.5463 159.42 25.901 159.594 26.0877C159.768 26.2743 160.067 26.3677 160.49 26.3677V26.7597C160.278 26.7472 159.967 26.7348 159.556 26.7223C159.158 26.6974 158.748 26.685 158.324 26.685C157.889 26.685 157.441 26.6974 156.98 26.7223C156.532 26.7348 156.196 26.7472 155.972 26.7597V26.3677C156.458 26.3677 156.8 26.2743 156.999 26.0877C157.211 25.901 157.316 25.5463 157.316 25.0237V14.3837C157.316 13.8237 157.217 13.413 157.018 13.1517C156.831 12.8779 156.483 12.741 155.972 12.741V12.349C156.371 12.3863 156.756 12.405 157.13 12.405C157.54 12.405 157.932 12.3863 158.306 12.349C158.679 12.2992 159.021 12.2308 159.332 12.1437Z" fill="black"/>
<path d="M149.142 16.9223V28.3649C149.142 28.9125 149.297 29.2796 149.608 29.4663C149.92 29.6529 150.349 29.7463 150.896 29.7463V30.1383C150.61 30.1258 150.212 30.1072 149.702 30.0823C149.192 30.0698 148.644 30.0636 148.059 30.0636C147.648 30.0636 147.244 30.0698 146.846 30.0823C146.448 30.1072 146.143 30.1258 145.931 30.1383V29.7463C146.367 29.7463 146.672 29.6592 146.846 29.4849C147.032 29.3232 147.126 29.0121 147.126 28.5516V19.1623C147.126 18.6023 147.032 18.1916 146.846 17.9303C146.659 17.6565 146.304 17.5196 145.782 17.5196V17.1276C146.18 17.165 146.566 17.1836 146.939 17.1836C147.35 17.1836 147.742 17.165 148.115 17.1276C148.488 17.0778 148.831 17.0094 149.142 16.9223ZM152.11 16.8663C152.757 16.8663 153.336 17.0467 153.846 17.4076C154.368 17.7561 154.779 18.2725 155.078 18.957C155.376 19.6414 155.526 20.4938 155.526 21.5143C155.526 22.261 155.439 22.9703 155.264 23.6423C155.09 24.3018 154.823 24.8867 154.462 25.397C154.113 25.8947 153.672 26.293 153.136 26.5916C152.601 26.8778 151.967 27.0209 151.232 27.0209C150.685 27.0209 150.2 26.9027 149.776 26.6663C149.366 26.4298 149.073 26.1312 148.899 25.7703L149.086 25.509C149.248 25.8201 149.472 26.0752 149.758 26.2743C150.056 26.4734 150.424 26.573 150.859 26.573C151.506 26.573 152.01 26.3676 152.371 25.957C152.744 25.5338 153.006 24.9676 153.155 24.2583C153.304 23.5365 153.379 22.7214 153.379 21.813C153.379 20.7925 153.304 19.9712 153.155 19.349C153.006 18.7143 152.782 18.2538 152.483 17.9676C152.184 17.669 151.824 17.5196 151.4 17.5196C150.84 17.5196 150.33 17.7436 149.87 18.1916C149.422 18.6396 149.148 19.3116 149.048 20.2076L148.862 19.8156C149.024 18.8823 149.397 18.1605 149.982 17.6503C150.579 17.1276 151.288 16.8663 152.11 16.8663Z" fill="black"/>
<path fill-rule="evenodd" clip-rule="evenodd" d="M142.948 17.389C142.301 17.0405 141.561 16.8663 140.727 16.8663C139.906 16.8663 139.165 17.0405 138.506 17.389C137.846 17.7374 137.324 18.285 136.938 19.0316C136.564 19.7783 136.378 20.7552 136.378 21.9623C136.378 23.1694 136.564 24.1463 136.938 24.893C137.324 25.6272 137.846 26.1685 138.506 26.5169C139.165 26.8529 139.906 27.0209 140.727 27.0209C141.561 27.0209 142.301 26.8529 142.948 26.5169C143.596 26.1685 144.112 25.6272 144.498 24.893C144.884 24.1463 145.076 23.1694 145.076 21.9623C145.076 20.7552 144.884 19.7783 144.498 19.0316C144.112 18.285 143.596 17.7374 142.948 17.389ZM139.214 17.4896C138.601 17.6978 138.22 18.2215 138.072 19.0606C137.919 19.8879 138.111 21.091 138.647 22.6699C139.184 24.2488 139.765 25.3197 140.39 25.8828C141.011 26.4341 141.628 26.6056 142.24 26.3974C142.841 26.1932 143.22 25.6834 143.377 24.8678C143.541 24.0365 143.355 22.8314 142.819 21.2525C142.282 19.6736 141.695 18.6047 141.059 18.0456C140.429 17.4708 139.814 17.2854 139.214 17.4896Z" fill="black"/>
<path d="M132.084 16.8663C132.581 16.8663 133.011 16.9472 133.372 17.109C133.745 17.2583 134.012 17.3952 134.174 17.5196C134.585 17.8432 134.84 17.6316 134.94 16.885H135.35C135.325 17.2334 135.307 17.6565 135.294 18.1543C135.282 18.6396 135.276 19.2867 135.276 20.0956H134.865C134.79 19.6352 134.66 19.1872 134.473 18.7516C134.299 18.3161 134.037 17.9552 133.689 17.669C133.353 17.3827 132.911 17.2396 132.364 17.2396C131.953 17.2396 131.611 17.3578 131.337 17.5943C131.063 17.8183 130.926 18.1543 130.926 18.6023C130.926 18.9756 131.038 19.2992 131.262 19.573C131.486 19.8467 131.772 20.1018 132.121 20.3383C132.482 20.5747 132.868 20.8298 133.278 21.1036C133.739 21.4147 134.149 21.7258 134.51 22.037C134.884 22.3356 135.176 22.6716 135.388 23.045C135.612 23.4183 135.724 23.8538 135.724 24.3516C135.724 24.9241 135.568 25.4094 135.257 25.8076C134.958 26.2058 134.56 26.5107 134.062 26.7223C133.564 26.9214 133.017 27.0209 132.42 27.0209C132.121 27.0209 131.841 26.9898 131.58 26.9276C131.318 26.8778 131.076 26.8094 130.852 26.7223C130.715 26.6476 130.578 26.5729 130.441 26.4983C130.316 26.4112 130.192 26.3303 130.068 26.2556C129.943 26.1685 129.831 26.1809 129.732 26.2929C129.632 26.4049 129.557 26.6041 129.508 26.8903H129.097C129.122 26.4921 129.14 26.0067 129.153 25.4343C129.165 24.8618 129.172 24.1027 129.172 23.157H129.582C129.669 23.8414 129.8 24.4449 129.974 24.9676C130.148 25.4903 130.404 25.901 130.74 26.1996C131.088 26.4858 131.561 26.6289 132.158 26.6289C132.395 26.6289 132.631 26.5792 132.868 26.4796C133.104 26.3676 133.297 26.1934 133.446 25.9569C133.608 25.7205 133.689 25.4032 133.689 25.005C133.689 24.4574 133.496 24.0094 133.11 23.661C132.737 23.3001 132.252 22.9205 131.654 22.5223C131.231 22.2236 130.827 21.9312 130.441 21.645C130.068 21.3463 129.763 21.0165 129.526 20.6556C129.29 20.2823 129.172 19.8405 129.172 19.3303C129.172 18.7703 129.302 18.3098 129.564 17.949C129.837 17.5881 130.198 17.3205 130.646 17.1463C131.094 16.9596 131.573 16.8663 132.084 16.8663Z" fill="black"/>
<path fill-rule="evenodd" clip-rule="evenodd" d="M126.032 17.389C125.385 17.0405 124.644 16.8663 123.81 16.8663C122.989 16.8663 122.249 17.0405 121.589 17.389C120.93 17.7374 120.407 18.285 120.021 19.0316C119.648 19.7783 119.461 20.7552 119.461 21.9623C119.461 23.1694 119.648 24.1463 120.021 24.893C120.407 25.6272 120.93 26.1685 121.589 26.5169C122.249 26.8529 122.989 27.0209 123.81 27.0209C124.644 27.0209 125.385 26.8529 126.032 26.5169C126.679 26.1685 127.195 25.6272 127.581 24.893C127.967 24.1463 128.16 23.1694 128.16 21.9623C128.16 20.7552 127.967 19.7783 127.581 19.0316C127.195 18.285 126.679 17.7374 126.032 17.389ZM122.297 17.4896C121.684 17.6978 121.304 18.2215 121.155 19.0606C121.002 19.8879 121.194 21.091 121.731 22.6699C122.267 24.2488 122.848 25.3197 123.473 25.8828C124.094 26.4341 124.711 26.6056 125.324 26.3974C125.925 26.1932 126.303 25.6834 126.46 24.8678C126.624 24.0365 126.438 22.8314 125.902 21.2525C125.365 19.6736 124.779 18.6047 124.142 18.0456C123.513 17.4708 122.898 17.2854 122.297 17.4896Z" fill="black"/>
<path d="M117.712 12.125V25.0237C117.712 25.5463 117.811 25.901 118.01 26.0877C118.222 26.2743 118.57 26.3677 119.056 26.3677V26.7597C118.844 26.7472 118.514 26.7348 118.066 26.7223C117.618 26.6974 117.17 26.685 116.722 26.685C116.274 26.685 115.82 26.6974 115.36 26.7223C114.912 26.7348 114.576 26.7472 114.352 26.7597V26.3677C114.837 26.3677 115.179 26.2743 115.378 26.0877C115.59 25.901 115.696 25.5463 115.696 25.0237V14.365C115.696 13.805 115.602 13.3943 115.416 13.133C115.229 12.8592 114.874 12.7223 114.352 12.7223V12.3303C114.75 12.3677 115.136 12.3863 115.509 12.3863C115.92 12.3863 116.312 12.3677 116.685 12.3303C117.058 12.2806 117.401 12.2121 117.712 12.125Z" fill="black"/>
<path d="M111.855 12.4236C112.24 12.4236 112.564 12.5481 112.825 12.797C113.087 13.0334 113.217 13.3321 113.217 13.693C113.217 14.0539 113.087 14.3588 112.825 14.6076C112.564 14.8441 112.24 14.9623 111.855 14.9623C111.469 14.9623 111.145 14.8441 110.884 14.6076C110.623 14.3588 110.492 14.0539 110.492 13.693C110.492 13.3321 110.623 13.0334 110.884 12.797C111.145 12.5481 111.469 12.4236 111.855 12.4236ZM112.975 16.9223V25.0236C112.975 25.5463 113.074 25.901 113.273 26.0876C113.485 26.2743 113.833 26.3676 114.319 26.3676V26.7596C114.107 26.7472 113.777 26.7348 113.329 26.7223C112.894 26.6974 112.446 26.685 111.985 26.685C111.55 26.685 111.102 26.6974 110.641 26.7223C110.181 26.7348 109.839 26.7472 109.615 26.7596V26.3676C110.1 26.3676 110.442 26.2743 110.641 26.0876C110.853 25.901 110.959 25.5463 110.959 25.0236V19.1623C110.959 18.6023 110.865 18.1916 110.679 17.9303C110.492 17.6565 110.137 17.5196 109.615 17.5196V17.1276C110.013 17.165 110.399 17.1836 110.772 17.1836C111.195 17.1836 111.587 17.165 111.948 17.1276C112.321 17.0779 112.663 17.0094 112.975 16.9223Z" fill="black"/>
<path d="M102.489 12.1437V18.9383C102.8 18.1668 103.235 17.6317 103.795 17.333C104.368 17.0219 104.971 16.8663 105.606 16.8663C106.104 16.8663 106.508 16.9348 106.819 17.0717C107.143 17.1961 107.411 17.3703 107.622 17.5943C107.846 17.8308 108.008 18.1357 108.107 18.509C108.207 18.8823 108.257 19.3863 108.257 20.021V25.0237C108.257 25.5463 108.356 25.901 108.555 26.0877C108.767 26.2743 109.115 26.3677 109.601 26.3677V26.7597C109.377 26.7472 109.041 26.7348 108.593 26.7223C108.145 26.6974 107.709 26.685 107.286 26.685C106.851 26.685 106.421 26.6974 105.998 26.7223C105.587 26.7348 105.283 26.7472 105.083 26.7597V26.3677C105.507 26.3677 105.805 26.2743 105.979 26.0877C106.154 25.901 106.241 25.5463 106.241 25.0237V19.4983C106.241 19.1374 106.21 18.8139 106.147 18.5277C106.085 18.229 105.948 17.9925 105.737 17.8183C105.538 17.6317 105.239 17.5383 104.841 17.5383C104.393 17.5383 103.988 17.669 103.627 17.9303C103.279 18.1792 102.999 18.5277 102.787 18.9757C102.588 19.4237 102.489 19.9339 102.489 20.5063V25.0237C102.489 25.5463 102.576 25.901 102.75 26.0877C102.924 26.2743 103.223 26.3677 103.646 26.3677V26.7597C103.435 26.7472 103.123 26.7348 102.713 26.7223C102.315 26.6974 101.904 26.685 101.481 26.685C101.045 26.685 100.597 26.6974 100.137 26.7223C99.6888 26.7348 99.3528 26.7472 99.1288 26.7597V26.3677C99.6141 26.3677 99.9563 26.2743 100.155 26.0877C100.367 25.901 100.473 25.5463 100.473 25.0237V14.3837C100.473 13.8237 100.373 13.413 100.174 13.1517C99.9874 12.8779 99.639 12.741 99.1288 12.741V12.349C99.527 12.3863 99.9128 12.405 100.286 12.405C100.697 12.405 101.089 12.3863 101.462 12.349C101.835 12.2992 102.178 12.2308 102.489 12.1437Z" fill="black"/>
<path d="M89.1284 13.5436C89.4146 13.556 89.7817 13.5685 90.2297 13.5809C90.6901 13.5934 91.1444 13.5996 91.5924 13.5996C92.1897 13.5996 92.7559 13.5934 93.291 13.5809C93.8386 13.5685 94.2244 13.5623 94.4484 13.5623C96.0288 13.5623 97.211 13.9045 97.995 14.5889C98.779 15.2734 99.171 16.1569 99.171 17.2396C99.171 17.6876 99.0901 18.1605 98.9284 18.6583C98.779 19.1436 98.5115 19.5978 98.1257 20.0209C97.7399 20.4316 97.2173 20.7676 96.5577 21.0289C95.8981 21.2903 95.0581 21.4209 94.0377 21.4209H92.2084V21.0476H93.851C94.6848 21.0476 95.3195 20.8796 95.755 20.5436C96.203 20.2076 96.5017 19.7658 96.651 19.2183C96.8128 18.6707 96.8937 18.0796 96.8937 17.4449C96.8937 16.2627 96.6821 15.3791 96.259 14.7943C95.8359 14.2094 95.1017 13.9169 94.0564 13.9169C93.5213 13.9169 93.1666 14.0227 92.9924 14.2343C92.8306 14.4458 92.7497 14.8751 92.7497 15.5223V24.7436C92.7497 25.204 92.7995 25.5525 92.899 25.7889C92.9986 26.0129 93.1853 26.1623 93.459 26.2369C93.7328 26.3116 94.1373 26.3551 94.6724 26.3676V26.7596C94.3364 26.7347 93.9008 26.7223 93.3657 26.7223C92.8306 26.7098 92.2768 26.7036 91.7044 26.7036C91.2066 26.7036 90.7275 26.7098 90.267 26.7223C89.819 26.7223 89.4395 26.7347 89.1284 26.7596V26.3863C89.5515 26.3614 89.8688 26.3116 90.0804 26.2369C90.2919 26.1623 90.4288 26.0129 90.491 25.7889C90.5657 25.5649 90.603 25.2289 90.603 24.7809V15.5223C90.603 15.0618 90.5657 14.7258 90.491 14.5143C90.4288 14.2903 90.2857 14.1409 90.0617 14.0663C89.8501 13.9791 89.539 13.9294 89.1284 13.9169V13.5436Z" fill="black"/>
<path d="M81.0455 16.8663C82.1407 16.8663 82.9993 17.1961 83.6215 17.8556C84.2438 18.5152 84.5549 19.5605 84.5549 20.9916H78.1149L78.0775 20.637H82.5762C82.5887 20.0272 82.5389 19.4672 82.4269 18.957C82.3149 18.4343 82.1407 18.0174 81.9042 17.7063C81.6678 17.3952 81.3566 17.2396 80.9709 17.2396C80.4358 17.2396 79.9691 17.5258 79.5709 18.0983C79.1851 18.6583 78.9487 19.5605 78.8615 20.805L78.9175 20.8983C78.9051 21.0725 78.8926 21.2654 78.8802 21.477C78.8678 21.6761 78.8615 21.8752 78.8615 22.0743C78.8615 22.933 78.9922 23.6547 79.2535 24.2396C79.5149 24.8245 79.8571 25.2663 80.2802 25.5649C80.7033 25.8512 81.1326 25.9943 81.5682 25.9943C81.9042 25.9943 82.2278 25.9445 82.5389 25.8449C82.8624 25.7329 83.1673 25.5525 83.4535 25.3036C83.7398 25.0423 83.9949 24.6876 84.2189 24.2396L84.5922 24.389C84.4429 24.8121 84.2126 25.2289 83.9015 25.6396C83.5904 26.0503 83.1922 26.3863 82.7069 26.6476C82.2215 26.8965 81.6553 27.0209 81.0082 27.0209C80.1371 27.0209 79.378 26.8281 78.7309 26.4423C78.0838 26.0441 77.586 25.4778 77.2375 24.7436C76.8891 24.0094 76.7149 23.1383 76.7149 22.1303C76.7149 21.0227 76.8953 20.077 77.2562 19.293C77.6171 18.509 78.1211 17.9116 78.7682 17.501C79.4278 17.0778 80.1869 16.8663 81.0455 16.8663Z" fill="black"/>
<path d="M66.8483 16.8663C67.3212 16.8663 67.7194 16.9347 68.043 17.0716C68.3665 17.1961 68.6278 17.3703 68.827 17.5943C69.051 17.8307 69.2065 18.1481 69.2936 18.5463C69.3807 18.9321 69.4243 19.4236 69.4243 20.021V25.0236C69.4243 25.5463 69.5238 25.9009 69.723 26.0876C69.9221 26.2743 70.2581 26.3676 70.731 26.3676V26.7596C70.5194 26.7472 70.1896 26.7347 69.7416 26.7223C69.3061 26.6974 68.8767 26.6849 68.4536 26.6849C68.0305 26.6849 67.6136 26.6974 67.203 26.7223C66.8047 26.7347 66.4998 26.7472 66.2883 26.7596V26.3676C66.699 26.3676 66.9852 26.2743 67.147 26.0876C67.3212 25.9009 67.4083 25.5463 67.4083 25.0236V19.4983C67.4083 19.1374 67.3834 18.8138 67.3336 18.5276C67.2838 18.229 67.1656 17.9925 66.979 17.8183C66.8047 17.6316 66.5247 17.5383 66.139 17.5383C65.7034 17.5383 65.3114 17.669 64.963 17.9303C64.627 18.1916 64.3532 18.5525 64.1416 19.013C63.9425 19.461 63.843 19.965 63.843 20.525V25.0236C63.843 25.5463 63.9301 25.9009 64.1043 26.0876C64.2785 26.2743 64.5647 26.3676 64.963 26.3676V26.7596C64.7638 26.7472 64.4652 26.7347 64.067 26.7223C63.6687 26.6974 63.2581 26.6849 62.835 26.6849C62.4118 26.6849 61.9701 26.6974 61.5096 26.7223C61.0492 26.7347 60.707 26.7472 60.483 26.7596V26.3676C60.9683 26.3676 61.3105 26.2743 61.5096 26.0876C61.7212 25.9009 61.827 25.5463 61.827 25.0236V19.1623C61.827 18.6023 61.7336 18.1916 61.547 17.9303C61.3603 17.6565 61.0056 17.5196 60.483 17.5196V17.1276C60.8812 17.165 61.267 17.1836 61.6403 17.1836C62.0634 17.1836 62.4554 17.165 62.8163 17.1276C63.1896 17.0778 63.5318 17.0094 63.843 16.9223V18.957C64.1665 18.2103 64.5958 17.6752 65.131 17.3516C65.6785 17.0281 66.251 16.8663 66.8483 16.8663ZM72.467 16.8663C72.9398 16.8663 73.3381 16.9347 73.6616 17.0716C73.9852 17.1961 74.2465 17.3703 74.4456 17.5943C74.6696 17.8307 74.8252 18.1481 74.9123 18.5463C74.9994 18.9321 75.0429 19.4236 75.0429 20.021V25.0236C75.0429 25.5463 75.1425 25.9009 75.3416 26.0876C75.5532 26.2743 75.9016 26.3676 76.3869 26.3676V26.7596C76.1754 26.7472 75.8456 26.7347 75.3976 26.7223C74.9496 26.6974 74.5078 26.6849 74.0723 26.6849C73.6492 26.6849 73.2323 26.6974 72.8216 26.7223C72.4234 26.7347 72.1185 26.7472 71.907 26.7596V26.3676C72.3176 26.3676 72.6038 26.2743 72.7656 26.0876C72.9398 25.9009 73.027 25.5463 73.027 25.0236V19.4983C73.027 19.1374 73.0021 18.8138 72.9523 18.5276C72.9025 18.229 72.7843 17.9925 72.5976 17.8183C72.4109 17.6316 72.1185 17.5383 71.7203 17.5383C71.2847 17.5383 70.8927 17.6752 70.5443 17.949C70.2083 18.2103 69.9345 18.5712 69.723 19.0316C69.5238 19.4796 69.4243 19.9836 69.4243 20.5436L69.3496 18.9943C69.6856 18.173 70.1336 17.613 70.6936 17.3143C71.2661 17.0156 71.8572 16.8663 72.467 16.8663Z" fill="black"/>
<path fill-rule="evenodd" clip-rule="evenodd" d="M57.7818 17.389C57.1347 17.0405 56.3943 16.8663 55.5605 16.8663C54.7391 16.8663 53.9987 17.0405 53.3391 17.389C52.6796 17.7374 52.1569 18.285 51.7712 19.0316C51.3978 19.7783 51.2112 20.7552 51.2112 21.9623C51.2112 23.1694 51.3978 24.1463 51.7712 24.893C52.1569 25.6272 52.6796 26.1685 53.3391 26.5169C53.9987 26.8529 54.7391 27.0209 55.5605 27.0209C56.3943 27.0209 57.1347 26.8529 57.7818 26.5169C58.4289 26.1685 58.9454 25.6272 59.3311 24.893C59.7169 24.1463 59.9098 23.1694 59.9098 21.9623C59.9098 20.7552 59.7169 19.7783 59.3311 19.0316C58.9454 18.285 58.4289 17.7374 57.7818 17.389ZM54.0469 17.4896C53.4342 17.6978 53.0536 18.2215 52.905 19.0606C52.7524 19.8879 52.9443 21.091 53.4808 22.6699C54.0173 24.2488 54.5981 25.3197 55.2232 25.8828C55.8442 26.4341 56.4611 26.6056 57.0738 26.3974C57.6747 26.1932 58.0535 25.6834 58.2101 24.8678C58.3745 24.0365 58.1884 22.8314 57.6519 21.2525C57.1154 19.6736 56.5288 18.6047 55.8919 18.0456C55.2629 17.4708 54.6479 17.2854 54.0469 17.4896Z" fill="black"/>
<path d="M45.6316 26.7596V26.3863C46.0547 26.3614 46.3721 26.3116 46.5836 26.2369C46.7952 26.1623 46.9321 26.0129 46.9943 25.7889C47.069 25.5649 47.1063 25.2289 47.1063 24.7809V15.5223C47.1063 15.0618 47.069 14.7258 46.9943 14.5143C46.9321 14.2903 46.789 14.1409 46.565 14.0663C46.3534 13.9791 46.0423 13.9294 45.6316 13.9169V13.5436C45.9427 13.556 46.3285 13.5685 46.789 13.5809C47.2619 13.5934 47.7285 13.5996 48.189 13.5996C48.7116 13.5996 49.197 13.5934 49.645 13.5809C50.093 13.5685 50.4539 13.556 50.7276 13.5436V13.9169C50.317 13.9294 50.0059 13.9791 49.7943 14.0663C49.5827 14.1409 49.4396 14.2903 49.365 14.5143C49.2903 14.7258 49.253 15.0618 49.253 15.5223V24.7809C49.253 25.2289 49.2903 25.5649 49.365 25.7889C49.4396 26.0129 49.5827 26.1623 49.7943 26.2369C50.0059 26.3116 50.317 26.3614 50.7276 26.3863V26.7596C50.4539 26.7347 50.093 26.7223 49.645 26.7223C49.197 26.7098 48.7116 26.7036 48.189 26.7036C47.7285 26.7036 47.2619 26.7098 46.789 26.7223C46.3285 26.7223 45.9427 26.7347 45.6316 26.7596ZM37.7916 26.7596V26.3863C38.2148 26.3614 38.5321 26.3116 38.7436 26.2369C38.9552 26.1623 39.0921 26.0129 39.1543 25.7889C39.229 25.5649 39.2663 25.2289 39.2663 24.7809V15.5223C39.2663 15.0618 39.229 14.7258 39.1543 14.5143C39.0921 14.2903 38.949 14.1409 38.725 14.0663C38.5134 13.9791 38.2023 13.9294 37.7916 13.9169V13.5436C38.0779 13.556 38.445 13.5685 38.893 13.5809C39.3534 13.5934 39.845 13.5996 40.3676 13.5996C40.8405 13.5996 41.301 13.5934 41.749 13.5809C42.2094 13.5685 42.589 13.556 42.8876 13.5436V13.9169C42.477 13.9294 42.1659 13.9791 41.9543 14.0663C41.7428 14.1409 41.5996 14.2903 41.525 14.5143C41.4503 14.7258 41.413 15.0618 41.413 15.5223V24.7809C41.413 25.2289 41.4503 25.5649 41.525 25.7889C41.5996 26.0129 41.7428 26.1623 41.9543 26.2369C42.1659 26.3116 42.477 26.3614 42.8876 26.3863V26.7596C42.589 26.7347 42.2094 26.7223 41.749 26.7223C41.301 26.7098 40.8405 26.7036 40.3676 26.7036C39.845 26.7036 39.3534 26.7098 38.893 26.7223C38.445 26.7223 38.0779 26.7347 37.7916 26.7596ZM40.573 20.3009V19.9276H47.9463V20.3009H40.573Z" fill="black"/>
<defs>
<clipPath id="clip0_24_168">
<rect width="28" height="28" fill="white" transform="translate(0.458328 6)"/>
</clipPath>
</defs>
</svg>
