<svg width="101" height="40" viewBox="0 0 101 40" fill="none" xmlns="http://www.w3.org/2000/svg">
<path fill-rule="evenodd" clip-rule="evenodd" d="M26.5915 17.5616H28.8741C29.7646 17.5616 30.1033 17.8704 30.1033 18.6269C30.1033 19.3554 29.7645 19.6639 28.8741 19.6639H26.5915V17.5616ZM23.0554 25.2132H26.5917V22.1018H30.3794C32.8873 22.1018 33.7902 20.617 33.7902 18.6973C33.7902 16.469 32.8617 15.208 30.3539 15.208H23.0554V25.2132Z" fill="black"/>
<path fill-rule="evenodd" clip-rule="evenodd" d="M34.9564 15.208H44.4739V17.6457H38.4927V18.9911H44.0483V21.4298H38.4927V22.7749H44.4739V25.2132H34.9564V15.208Z" fill="black"/>
<path fill-rule="evenodd" clip-rule="evenodd" d="M49.4904 17.5616H51.7728C52.6632 17.5616 53.0021 17.8704 53.0021 18.6269C53.0021 19.3554 52.6632 19.6639 51.7728 19.6639H49.4904V17.5616ZM45.9541 25.2132H49.4904V22.1018H53.2775C55.786 22.1018 56.6891 20.617 56.6891 18.6973C56.6891 16.469 55.7607 15.208 53.2523 15.208H45.9541V25.2132Z" fill="black"/>
<path fill-rule="evenodd" clip-rule="evenodd" d="M60.112 20.9672C58.3817 20.6725 57.6674 19.5515 57.6674 18.1506C57.6674 15.5578 59.9373 14.8577 62.846 14.8577C66.8333 14.8577 68.4764 16.0204 68.602 18.1367H64.4886C64.4886 17.7302 64.2753 17.4774 63.9498 17.3375C63.6362 17.1837 63.2352 17.1278 62.846 17.1278C61.7926 17.1278 61.4293 17.4216 61.4293 17.8424C61.4293 18.1222 61.5417 18.305 61.8929 18.3608L66.1188 19.0612C67.8998 19.3554 69.0035 20.2803 69.0035 21.9754C69.0035 24.4145 67.2227 25.5636 63.2471 25.5636C60.5261 25.5636 57.5538 25.1433 57.5415 22.2005H61.8051C61.8171 22.5364 61.9305 22.7605 62.1817 22.9148C62.4443 23.0551 62.8333 23.1253 63.3849 23.1253C64.4882 23.1253 64.7897 22.7888 64.7897 22.3122C64.7897 22.018 64.6263 21.7239 64.1508 21.6402L60.112 20.9672Z" fill="black"/>
<path fill-rule="evenodd" clip-rule="evenodd" d="M70.1567 15.208H73.6928V25.2132H70.1567V15.208Z" fill="black"/>
<path fill-rule="evenodd" clip-rule="evenodd" d="M86.7984 21.3175C86.5726 22.6348 86.1708 23.6998 85.2929 24.4282C84.4282 25.157 83.0733 25.5635 80.9169 25.5635C78.7725 25.5635 74.7972 25.395 74.7972 20.2109C74.7972 15.0257 78.7725 14.8575 80.9169 14.8575C83.0482 14.8575 86.334 15.1655 86.7984 19.1317H82.8106C82.7102 18.4164 82.2831 17.3796 80.9169 17.3796C79.474 17.3796 78.5587 18.1783 78.5587 20.2107C78.5587 22.2426 79.4493 23.0408 80.7409 23.0408C81.8573 23.0408 82.5219 22.5224 82.8104 21.3174L86.7984 21.3175Z" fill="black"/>
<path fill-rule="evenodd" clip-rule="evenodd" d="M91.4254 20.2111C91.4254 18.1785 92.3411 17.38 93.7835 17.38C95.2253 17.38 96.1413 18.1787 96.1413 20.2111C96.1413 22.243 95.2253 23.0412 93.7835 23.0412C92.3411 23.041 91.4254 22.2428 91.4254 20.2111ZM87.663 20.2111C87.663 25.395 91.6383 25.5637 93.7833 25.5637C95.9278 25.5637 99.9032 25.3952 99.9032 20.2111C99.9032 15.026 95.9278 14.8577 93.7833 14.8577C91.6383 14.8577 87.663 15.0258 87.663 20.2111Z" fill="black"/>
<path fill-rule="evenodd" clip-rule="evenodd" d="M17.7118 15.3073C17.9402 10.5071 13.8215 5.1014 8.20643 4.43322L8.21602 4.36762C13.7516 4.36762 17.9952 9.51816 17.9952 13.5815C17.9898 14.4273 17.9234 14.9514 17.8048 15.3319L17.7118 15.3073ZM17.3764 15.9174C17.0081 16.3697 16.5449 16.8251 16.0023 17.2574C15.0039 11.4865 10.7847 6.44034 7.80165 4.96745L7.73775 5.01222C10.7377 7.48676 14.3158 12.2928 15.7073 17.4838C15.0416 17.9769 14.2721 18.4307 13.422 18.7991C10.5911 15.5545 7.95188 9.29692 7.10138 5.32608L7.01487 5.35224C7.03406 9.20671 9.75686 15.7501 13.0773 18.9429C12.3404 19.2351 11.548 19.4628 10.7158 19.5987C7.53288 18.3314 5.26727 14.2724 5.26727 10.1144C5.26727 7.39999 6.09071 5.72085 6.25002 5.37721L6.18218 5.35018C5.98947 5.64321 4.78318 7.32148 4.78318 10.2519C4.78318 14.9519 7.08939 18.5443 10.1512 19.6756C9.10369 19.7901 8.00138 19.7555 6.87047 19.5209L6.84768 19.5925C7.17521 19.7137 8.28643 20.1825 9.9816 20.1825C13.8158 20.1825 16.4077 17.7882 17.4511 15.9682L17.3764 15.9174Z" fill="black"/>
<path fill-rule="evenodd" clip-rule="evenodd" d="M9.59823 2.67162C6.69163 2.67162 3.28345 4.77997 3.28345 6.7072C3.28345 7.45268 3.96197 8.08247 5.36628 8.08247C8.62628 8.08247 11.655 5.83139 11.655 4.08098C11.655 3.15989 10.7749 2.67162 9.59823 2.67162ZM10.7586 4.02657C10.7586 5.50204 7.93954 7.30565 5.58298 7.30565C4.54182 7.30565 3.97927 6.89383 3.97927 6.21429C3.97927 4.71765 6.83038 2.94468 9.04083 2.94468C10.482 2.94468 10.7586 3.68172 10.7586 4.02657Z" fill="black"/>
<path fill-rule="evenodd" clip-rule="evenodd" d="M2.12547 7.59955C2.04376 7.74159 1.71658 8.38549 1.71658 9.04523C1.71658 10.2688 2.94668 11.4048 5.2092 11.4048C9.56175 11.4048 14.5904 8.18474 14.5904 5.19576C14.5904 3.85407 13.3267 3.1246 12.4493 2.97378L12.4329 3.02612C12.7058 3.11289 13.7055 3.57998 13.7055 4.77516C13.7055 7.15674 9.26557 10.4017 4.84296 10.4017C3.14984 10.4017 2.08316 9.56173 2.08316 8.33814C2.08316 7.95111 2.16333 7.69614 2.18457 7.62228L2.12547 7.59955Z" fill="black"/>
<path fill-rule="evenodd" clip-rule="evenodd" d="M16.385 5.41921C16.5043 5.51029 17.2212 6.1108 17.2212 7.24641C17.2212 11.1184 11.185 14.9259 5.8485 14.9259C2.6661 14.9259 1.21536 13.3466 1.2796 11.9443H1.33664C1.46135 12.6726 2.49462 13.9757 5.27995 13.9757C10.6231 13.9757 16.589 10.036 16.589 6.58426C16.589 5.99218 16.429 5.62323 16.3385 5.45915L16.385 5.41921Z" fill="black"/>
<path fill-rule="evenodd" clip-rule="evenodd" d="M18.4025 9.03399C18.4275 9.11645 18.5575 9.48713 18.5575 10.0677C18.5575 14.3749 12.4488 18.0624 7.13598 18.0624C4.40153 18.0624 2.97358 16.7274 2.67209 16.1853L2.72074 16.1491C3.47737 16.8142 4.96768 17.3195 6.70688 17.3195C11.3991 17.3195 18.4006 13.7315 18.3381 9.04965L18.4025 9.03399Z" fill="black"/>
</svg>
