<svg width="70" height="40" viewBox="0 0 70 40" fill="none" xmlns="http://www.w3.org/2000/svg">
<path d="M67.4058 16.0894C66.8312 15.3467 66.0948 14.7457 65.253 14.3322C64.4112 13.9187 63.4862 13.7037 62.5488 13.7037C61.6115 13.7037 60.6865 13.9187 59.8447 14.3322C59.0029 14.7457 58.2665 15.3467 57.6919 16.0894C56.9217 17.1913 56.5177 18.5087 56.5374 19.8541C56.5177 21.1995 56.9217 22.5169 57.6919 23.6188C58.2665 24.3615 59.0029 24.9625 59.8447 25.376C60.6865 25.7895 61.6115 26.0045 62.5488 26.0045C63.4862 26.0045 64.4112 25.7895 65.253 25.376C66.0948 24.9625 66.8312 24.3615 67.4058 23.6188C68.1757 22.5168 68.5796 21.1995 68.5602 19.8541C68.5796 18.5087 68.1757 17.1914 67.4058 16.0894V16.0894ZM65.4818 21.2659C65.0407 22.5882 63.9942 23.6188 62.5441 23.6517C61.0941 23.6847 60.0476 22.5882 59.6112 21.2659C59.299 20.3507 59.299 19.3575 59.6112 18.4423C60.0523 17.12 61.0988 16.0894 62.5441 16.0565C63.9895 16.0235 65.0407 17.12 65.4818 18.4423C65.7925 19.3561 65.7925 20.3474 65.4818 21.2612V21.2659ZM21.2528 25.6894C21.2528 25.7818 21.2162 25.8703 21.151 25.9356C21.0859 26.0009 20.9976 26.0376 20.9055 26.0376H18.8876C18.7955 26.0376 18.7072 26.0009 18.6421 25.9356C18.5769 25.8703 18.5403 25.7818 18.5403 25.6894V9.0541C18.5403 8.96174 18.5769 8.87317 18.6421 8.80786C18.7072 8.74255 18.7955 8.70586 18.8876 8.70586H20.9055C20.9976 8.70586 21.0859 8.74255 21.151 8.80786C21.2162 8.87317 21.2528 8.96174 21.2528 9.0541V25.6894ZM16.5131 25.6894C16.5131 25.7818 16.4765 25.8703 16.4114 25.9356C16.3463 26.0009 16.2579 26.0376 16.1658 26.0376H14.1479C14.0558 26.0376 13.9675 26.0009 13.9024 25.9356C13.8373 25.8703 13.8007 25.7818 13.8007 25.6894V9.0541C13.8007 8.96255 13.8366 8.87468 13.9007 8.80951C13.9648 8.74434 14.052 8.7071 14.1433 8.70586H16.1611C16.2532 8.70586 16.3416 8.74255 16.4067 8.80786C16.4718 8.87317 16.5084 8.96174 16.5084 9.0541V25.6894H16.5131ZM56.0822 14.3953V15.807C56.0904 15.868 56.0832 15.93 56.0612 15.9874C56.0392 16.0448 56.0032 16.0957 55.9565 16.1355C55.9098 16.1754 55.8539 16.2028 55.7939 16.2153C55.7338 16.2278 55.6716 16.2249 55.613 16.207C53.3323 15.7365 51.9292 16.7529 51.9292 18.8659V25.6894C51.9292 25.7818 51.8926 25.8703 51.8275 25.9356C51.7623 26.0009 51.674 26.0376 51.5819 26.0376H49.564C49.4719 26.0376 49.3836 26.0009 49.3185 25.9356C49.2534 25.8703 49.2168 25.7818 49.2168 25.6894V18.72C49.2047 18.0608 49.3308 17.4063 49.5871 16.7991C49.8434 16.1919 50.224 15.6455 50.7044 15.1953C51.6908 14.2281 53.018 13.6904 54.3976 13.6988C54.8698 13.7001 55.341 13.7442 55.8054 13.8306C56.0447 13.9106 56.0822 14.0517 56.0822 14.4141V14.3953ZM47.4429 19.8494C47.4685 18.5031 47.064 17.1839 46.2885 16.0847C45.7139 15.342 44.9775 14.7409 44.1357 14.3275C43.2939 13.914 42.3689 13.699 41.4315 13.699C40.4941 13.699 39.5692 13.914 38.7274 14.3275C37.8855 14.7409 37.1492 15.342 36.5745 16.0847C35.8119 17.1912 35.4034 18.5043 35.4034 19.8494C35.4034 21.1945 35.8119 22.5076 36.5745 23.6141C37.1399 24.3669 37.8744 24.9752 38.7184 25.3898C39.5623 25.8044 40.4919 26.0134 41.4315 26C42.6623 26.004 43.8663 25.6403 44.8901 24.9553V26.4423C44.8901 28.4612 43.1303 28.8282 42.004 28.8988C41.2291 28.9245 40.4534 28.882 39.6858 28.7717C39.3761 28.7247 39.1602 28.7717 39.1602 29.1059V30.8941C39.162 30.9343 39.1717 30.9737 39.1888 31.0101C39.2058 31.0466 39.2298 31.0793 39.2594 31.1064C39.2891 31.1335 39.3238 31.1544 39.3615 31.1681C39.3992 31.1817 39.4393 31.1878 39.4793 31.1859C42.0932 31.4117 43.853 31.3647 45.1763 30.607C46.1034 30.0573 46.7916 29.1792 47.105 28.1459C47.3391 27.3486 47.4515 26.5204 47.4382 25.6894V19.8494H47.4429ZM41.4315 23.6423C39.9815 23.6423 38.935 22.5788 38.4939 21.2565C38.1817 20.3413 38.1817 19.3481 38.4939 18.4329C38.935 17.1106 39.9815 16.047 41.4315 16.047C44.6742 16.047 44.7821 19.3647 44.7821 19.8447C44.7821 20.3247 44.6742 23.6423 41.4315 23.6423ZM11.9517 18.6306C11.9517 17.0259 11.5951 15.807 10.8255 14.9647C10.0559 14.1223 8.50728 13.7035 7.0713 13.7035C5.6299 13.6979 4.21287 14.0762 2.96515 14.8C2.9261 14.8231 2.89382 14.8562 2.87158 14.8959C2.84933 14.9355 2.83791 14.9804 2.83845 15.0259L2.94638 16.7953C2.95597 16.8503 2.97997 16.9018 3.01594 16.9445C3.0519 16.9872 3.09852 17.0195 3.15104 17.0382C3.20356 17.0569 3.26009 17.0612 3.31483 17.0508C3.36957 17.0403 3.42056 17.0155 3.46258 16.9788C5.22236 15.8917 7.33409 15.6894 8.40873 16.2353C8.70438 16.4062 8.94799 16.6546 9.11335 16.9539C9.27872 17.2533 9.3596 17.5921 9.34728 17.9341V18.1929H6.41432C5.15197 18.1929 1.28515 18.6635 1.28515 22.2259V22.2635C1.25507 22.8056 1.35284 23.3472 1.57053 23.8443C1.78823 24.3414 2.11972 24.7801 2.53812 25.1247C3.45202 25.7703 4.55676 26.0871 5.67286 26.0235H11.6092C11.7013 26.0235 11.7896 25.9868 11.8547 25.9215C11.9199 25.8562 11.9564 25.7676 11.9564 25.6753V18.6165L11.9517 18.6306ZM9.34728 23.8494H5.8418C5.39203 23.8365 4.95742 23.6835 4.59823 23.4117C4.41346 23.2816 4.26336 23.1081 4.16108 22.9062C4.05881 22.7044 4.00749 22.4805 4.01164 22.2541C4.01164 21.6188 4.43867 20.3482 6.57387 20.3482H9.34728V23.8494ZM28.6814 13.7035C25.0914 13.7035 23.5193 16.1176 23.0172 18.16C22.8791 18.7108 22.8098 19.2767 22.8107 19.8447C22.7913 21.1901 23.1953 22.5074 23.9652 23.6094C24.5405 24.3513 25.277 24.9519 26.1186 25.3653C26.9603 25.7787 27.8849 25.9942 28.8221 25.9953C30.7602 26.0659 32.0554 25.7365 33.0456 25.1717C33.1422 25.1093 33.2167 25.018 33.2588 24.9108C33.3009 24.8036 33.3084 24.6858 33.2802 24.5741V23.007C33.2802 22.687 33.0878 22.5365 32.811 22.7294C31.652 23.4742 30.2766 23.8058 28.9066 23.6706C28.1264 23.6603 27.377 23.3641 26.7996 22.8379C26.2221 22.3117 25.8566 21.5919 25.7719 20.8141H33.7495C33.8358 20.8141 33.9187 20.7801 33.9801 20.7193C34.0416 20.6585 34.0768 20.5759 34.078 20.4894C34.2188 18.3012 33.5853 13.7035 28.6814 13.7035V13.7035ZM25.8141 18.6494C25.8302 18.2891 25.9177 17.9357 26.0713 17.6097C26.2249 17.2836 26.4416 16.9914 26.7089 16.7501C26.9761 16.5089 27.2886 16.3233 27.628 16.2042C27.9674 16.0851 28.3271 16.0349 28.686 16.0565C29.0296 16.0354 29.3737 16.0883 29.6951 16.2116C30.0166 16.3349 30.3081 16.5257 30.5499 16.7714C30.7917 17.017 30.9783 17.3116 31.0971 17.6356C31.216 17.9595 31.2643 18.3052 31.2389 18.6494H25.8141Z" fill="black"/>
</svg>
