<svg width="66" height="64" viewBox="0 0 66 64" fill="none" xmlns="http://www.w3.org/2000/svg">
<g clip-path="url(#clip0_369_826)">
<mask id="mask0_369_826" style="mask-type:luminance" maskUnits="userSpaceOnUse" x="1" y="0" width="65" height="64">
<path d="M65.1719 0H1.17188V64H65.1719V0Z" fill="white"/>
</mask>
<g mask="url(#mask0_369_826)">
<mask id="mask1_369_826" style="mask-type:luminance" maskUnits="userSpaceOnUse" x="1" y="0" width="65" height="64">
<path d="M65.1701 0H1.16992V64H65.1701V0Z" fill="white"/>
</mask>
<g mask="url(#mask1_369_826)">
<path d="M32.4697 0.590842C32.6054 -0.196951 33.7346 -0.196946 33.8702 0.590848L35.3662 9.27376C35.4856 9.96602 36.4274 10.0852 36.7147 9.44442L40.3186 1.40704C40.6456 0.677814 41.739 0.95912 41.675 1.75598L40.9688 10.5388C40.9125 11.2391 41.795 11.5892 42.2325 11.0401L47.7182 4.15325C48.2155 3.52842 49.2053 4.07338 48.9454 4.82922L46.0814 13.1602C45.853 13.8244 46.621 14.3834 47.181 13.9605L54.2034 8.65696C54.8405 8.17578 55.6638 8.95011 55.2245 9.61747L50.3826 16.973C49.9966 17.5595 50.6018 18.2923 51.2488 18.0222L59.3675 14.6352C60.1042 14.3279 60.7093 15.2829 60.1179 15.8199L53.6024 21.7379C53.083 22.2097 53.4872 23.0703 54.1813 22.97L62.8853 21.7122C63.675 21.5981 64.0238 22.674 63.3182 23.0467L55.5384 27.1553C54.9182 27.4828 55.0962 28.4171 55.7931 28.4929L64.5362 29.4435C65.3294 29.5298 65.4002 30.6587 64.6242 30.8439L56.069 32.8848C55.3867 33.0477 55.3272 33.9968 55.9835 34.2438L64.2158 37.343C64.9627 37.6243 64.7509 38.7354 63.9534 38.7216L55.1605 38.5667C54.4594 38.5542 54.1662 39.4589 54.7406 39.8618L61.9451 44.9149C62.5986 45.3734 62.1179 46.3968 61.3486 46.1843L52.8702 43.8435C52.1941 43.657 51.6859 44.4598 52.1419 44.9933L57.8661 51.6829C58.3854 52.2899 57.6654 53.1613 56.973 52.7638L49.3426 48.384C48.7339 48.0349 48.0418 48.6861 48.3515 49.3162L52.235 57.2218C52.5874 57.9392 51.6744 58.6038 51.1026 58.0467L44.7982 51.903C44.2955 51.4131 43.4638 51.8714 43.6075 52.559L45.4069 61.1837C45.5701 61.9664 44.5202 62.3827 44.1048 61.7005L39.5237 54.1789C39.1582 53.5792 38.2389 53.8157 38.2072 54.5174L37.8091 63.32C37.7733 64.1184 36.6526 64.2602 36.42 63.4957L33.8498 55.0691C33.6446 54.3974 32.6953 54.3974 32.4904 55.0691L29.9201 63.4957C29.6869 64.2602 28.5668 64.1184 28.5307 63.32L28.1328 54.5174C28.1011 53.8157 27.1816 53.5792 26.8164 54.1789L22.2353 61.7005C21.8197 62.3827 20.77 61.9664 20.9332 61.1837L22.7326 52.559C22.8761 51.8714 22.0443 51.4131 21.5417 51.903L15.2376 58.0467C14.6656 58.6038 13.7523 57.9392 14.1046 57.2218L17.9883 49.3162C18.2979 48.6861 17.6059 48.0349 16.9975 48.384L9.36662 52.7638C8.67427 53.1613 7.95462 52.2899 8.47395 51.6829L14.1979 44.9933C14.6542 44.4598 14.1455 43.657 13.4696 43.8435L4.9913 46.1843C4.22205 46.3968 3.74136 45.3734 4.39501 44.9149L11.5995 39.8618C12.1739 39.4589 11.8805 38.5542 11.1795 38.5667L2.38654 38.7216C1.58876 38.7354 1.3772 37.6243 2.12412 37.343L10.3565 34.2438C11.0128 33.9968 10.9532 33.0477 10.2711 32.8848L1.716 30.8439C0.939798 30.6587 1.01069 29.5298 1.80394 29.4435L10.5469 28.4929C11.244 28.4171 11.4219 27.4828 10.8016 27.1553L3.02184 23.0467C2.31598 22.6739 2.66487 21.5981 3.4546 21.7122L12.1589 22.97C12.8528 23.0703 13.257 22.2097 12.7375 21.7379L6.22199 15.8199C5.63085 15.2829 6.23578 14.3279 6.97238 14.6352L15.091 18.0222C15.7383 18.2923 16.3434 17.5595 15.9573 16.973L11.1154 9.61747C10.6761 8.95011 11.4991 8.17578 12.1363 8.65696L19.1591 13.9605C19.719 14.3834 20.487 13.8244 20.2587 13.1602L17.3945 4.82922C17.1347 4.07338 18.124 3.52842 18.6218 4.15325L24.1076 11.0401C24.5449 11.5892 25.4275 11.239 25.3712 10.5388L24.6649 1.75598C24.6008 0.959117 25.6944 0.677811 26.0213 1.40704L29.6254 9.44442C29.9128 10.0852 30.8546 9.96602 30.9738 9.27376L32.4697 0.590842Z" fill="url(#paint0_linear_369_826)"/>
</g>
</g>
</g>
<defs>
<linearGradient id="paint0_linear_369_826" x1="-16.5874" y1="62.6126" x2="65.1699" y2="12.4852" gradientUnits="userSpaceOnUse">
<stop stop-color="#FE3A0B"/>
<stop offset="0.49943" stop-color="#FE330A"/>
<stop offset="0.875525" stop-color="#FF7A27"/>
</linearGradient>
<clipPath id="clip0_369_826">
<rect width="64.32" height="64" fill="white" transform="translate(0.960938)"/>
</clipPath>
</defs>
</svg>
