<svg width="201" height="200" viewBox="0 0 201 200" fill="none" xmlns="http://www.w3.org/2000/svg">
<g clip-path="url(#clip0_166_631)">
<mask id="mask0_166_631" style="mask-type:luminance" maskUnits="userSpaceOnUse" x="0" y="0" width="201" height="200">
<path d="M200.667 0H0.666504V200H200.667V0Z" fill="white"/>
</mask>
<g mask="url(#mask0_166_631)">
<path d="M98.4783 1.84638C98.9024 -0.615472 102.431 -0.615455 102.855 1.8464L107.53 28.9805C107.903 31.1438 110.846 31.5163 111.744 29.5138L123.006 4.39701C124.028 2.11817 127.445 2.99725 127.245 5.48745L125.038 32.9338C124.862 35.1221 127.62 36.2162 128.987 34.5003L146.13 12.9789C147.684 11.0263 150.777 12.7293 149.965 15.0913L141.015 41.1255C140.301 43.2011 142.701 44.9481 144.451 43.6267L166.396 27.053C168.387 25.5493 170.96 27.9691 169.587 30.0546L154.456 53.0407C153.25 54.8733 155.141 57.1634 157.163 56.3195L182.534 45.7349C184.836 44.7746 186.727 47.7592 184.879 49.4371L164.518 67.9308C162.895 69.4053 164.158 72.0946 166.327 71.7812L193.527 67.8507C195.995 67.4941 197.085 70.8561 194.88 72.021L170.568 84.8603C168.63 85.8839 169.186 88.8034 171.364 89.0403L198.686 92.0109C201.165 92.2805 201.386 95.8084 198.961 96.3871L172.226 102.765C170.094 103.274 169.908 106.24 171.959 107.012L197.685 116.697C200.019 117.576 199.357 121.048 196.865 121.005L169.387 120.521C167.196 120.482 166.28 123.309 168.075 124.568L190.589 140.359C192.631 141.792 191.129 144.99 188.725 144.326L162.23 137.011C160.117 136.428 158.529 138.937 159.954 140.604L177.842 161.509C179.465 163.406 177.215 166.129 175.051 164.887L151.206 151.2C149.304 150.109 147.141 152.144 148.109 154.113L160.245 178.818C161.346 181.06 158.493 183.137 156.706 181.396L137.005 162.197C135.434 160.666 132.835 162.098 133.284 164.247L138.907 191.199C139.417 193.645 136.136 194.946 134.838 192.814L120.522 169.309C119.38 167.435 116.507 168.174 116.408 170.367L115.164 197.875C115.052 200.37 111.55 200.813 110.823 198.424L102.791 172.091C102.15 169.992 99.1833 169.992 98.5429 172.091L90.5109 198.424C89.7821 200.813 86.2819 200.37 86.169 197.875L84.9255 170.367C84.8264 168.174 81.9531 167.435 80.8118 169.309L66.4959 192.814C65.197 194.946 61.9167 193.645 62.4269 191.199L68.05 164.247C68.4983 162.098 65.8988 160.666 64.3282 162.197L44.628 181.396C42.8406 183.137 39.9863 181.06 41.0875 178.818L53.2239 154.113C54.1915 152.144 52.029 150.109 50.1278 151.2L26.2812 164.887C24.1176 166.129 21.8687 163.406 23.4916 161.509L41.3788 140.604C42.8049 138.937 41.2153 136.428 39.103 137.011L12.6083 144.326C10.2044 144.99 8.70226 141.792 10.7449 140.359L33.2589 124.568C35.0539 123.309 34.1372 120.482 31.9465 120.521L4.46844 121.005C1.97538 121.048 1.31426 117.576 3.64838 116.697L29.3745 107.012C31.4256 106.24 31.2393 103.274 29.1078 102.765L2.373 96.3871C-0.052635 95.8084 0.168915 92.2805 2.64781 92.0109L29.9697 89.0403C32.148 88.8034 32.7038 85.8839 30.7655 84.8603L6.45374 72.021C4.24795 70.856 5.33821 67.4941 7.80613 67.8507L35.007 71.7812C37.1756 72.0946 38.4387 69.4053 36.8153 67.9308L16.4542 49.4371C14.6069 47.7592 16.4973 44.7746 18.7992 45.7349L44.1699 56.3195C46.1927 57.1634 48.0835 54.8733 46.8772 53.0407L31.7461 30.0546C30.3732 27.9691 32.9451 25.5493 34.9363 27.053L56.8827 43.6267C58.6325 44.9481 61.0323 43.2011 60.3188 41.1255L51.3684 15.0913C50.5564 12.7293 53.6481 11.0263 55.2035 12.9789L72.3466 34.5003C73.7134 36.2162 76.4715 35.122 76.2956 32.9338L74.0884 5.48743C73.8881 2.99724 77.3054 2.11816 78.3272 4.39699L89.59 29.5138C90.4879 31.5163 93.431 31.1438 93.8037 28.9805L98.4783 1.84638Z" fill="url(#paint0_linear_166_631)"/>
</g>
</g>
<defs>
<linearGradient id="paint0_linear_166_631" x1="158.167" y1="32" x2="44.6665" y2="147.5" gradientUnits="userSpaceOnUse">
<stop offset="0.0509862" stop-color="#FFB6E1"/>
<stop offset="1" stop-color="#FBE3EA"/>
</linearGradient>
<clipPath id="clip0_166_631">
<rect width="200" height="200" fill="white" transform="translate(0.666504)"/>
</clipPath>
</defs>
</svg>
